<svg xmlns="http://www.w3.org/2000/svg" viewBox="0 0 20 420" enable-background="new 0 0 20 420"><g fill="#e6e6e6"><path d="m6.581 23.295l-1.365 1.217-1.045-1.215.599-4.286 1.386-1.192 1.024 1.197-.599 4.279m1.047-7.33l-1.369 1.215-1.048-1.174.579-4.304 1.387-1.215 1.045 1.217-.594 4.261m4.834 8.824l-1.364 1.215h-4.583l-1.044-1.215 1.385-1.194h4.583l1.023 1.194m2.068-14.579l-1.385 1.194h-4.583l-1.024-1.194 1.364-1.215h4.583l1.045 1.215m-.32 13.09l-1.386 1.215-1.045-1.218.594-4.26 1.369-1.216 1.048 1.174-.58 4.305m1.021-7.31l-1.386 1.192-1.024-1.197.598-4.279 1.365-1.217 1.045 1.215-.598 4.286"/><path d="m9.255 48.901l-1.198 1.05-.817-.947.17-1.236 2.302-2.02-.457 3.149m1.459 10.867l-1.401 1.236-1.062-1.014.865-5.992 1.392-1.178 1.033 1.234-.827 5.714m1.215-8.784l-1.373 1.196-1.035-1.215.815-5.79 1.38-1.181 1.044 1.222-.831 5.768"/><path d="m6.77 93.28l-2.77 2.426.938-6.736 1.397-1.215 1.054 1.239-.619 4.286m6.928 2.724h-9.422l2.75-2.409h4.604l2.068 2.409m-5.354-14.11l-1.363 1.213-1.04-1.21.02-.191 1.39-1.209 1.04 1.209-.047.188m5.354 5.621l-1.385 1.204h-4.605l-1.044-1.204 1.385-1.204h4.604l1.045 1.204m1-7.301l-1.385 1.194h-4.583l-1.024-1.194 1.365-1.215h4.583l1.044 1.215m.703 5.776l-1.386 1.194-1.024-1.196.596-4.28 1.365-1.217 1.046 1.215-.597 4.284"/><path d="m12.12 129.79l-1.364 1.215h-5.201l-1.044-1.215 1.364-1.194h5.222l1.023 1.194m2.067-14.579l-1.385 1.194h-5.2l-1.045-1.194 1.385-1.215h5.201l1.044 1.215m-1.023 7.301l-1.386 1.204h-3.985l-1.023-1.204 1.364-1.204h3.986l1.044 1.204m.704 5.787l-1.387 1.215-1.045-1.218.595-4.26 1.368-1.216 1.048 1.174-.579 4.305m1.021-7.31l-1.386 1.192-1.024-1.197.598-4.279 1.365-1.217 1.045 1.215-.598 4.286"/><path d="m6.988 155.98l-1.366 1.197-1.046-1.194.661-4.604 1.365-1.215 1.045 1.218-.659 4.598m5.9 1.527l-1.386 1.204h-4.603l-1.045-1.204 1.385-1.204h4.604l1.045 1.204m.49 7.257l-1.386 1.236-1.024-1.239.809-5.75 1.365-1.196 1.045 1.194-.809 5.755m1.236-8.781l-1.387 1.194-1.024-1.197.81-5.75 1.365-1.239 1.045 1.236-.809 5.756"/><path d="m6.539 198.29l-1.387 1.217-1.023-1.215.016-.198 1.384-1.214 1.036 1.229-.026.181m1.045-7.311l-1.509 1.303h-1.105l1.119-7.993 2.091 2.433-.596 4.257m4.836 8.805l-1.365 1.215h-4.583l-1.039-1.198 1.363-1.21h4.579l1.045 1.193m3.452-15.793l-2.749 2.409h-4.604l-2.068-2.409h9.421m-2.387 8.515l-1.385 1.204h-4.604l-1.045-1.204 1.386-1.204h4.604l1.044 1.204m.682 5.787l-1.366 1.215-1.045-1.219.617-4.277 1.367-1.197 1.046 1.194-.619 4.284"/><path d="m7.093 233.29l-1.366 1.217-1.045-1.215.79-5.584h1.112l1.135 1.312-.626 4.27m1.058-7.323l-1.502 1.314h-1.116l.79-5.584 1.365-1.215 1.045 1.217-.582 4.268m4.822 8.817l-1.364 1.215h-4.583l-1.045-1.215 1.386-1.194h4.583l1.023 1.194m1.045-7.278l-1.385 1.204h-4.605l-1.045-1.204 1.385-1.205h4.604l1.046 1.205m1.023-7.3l-1.385 1.194h-4.583l-1.023-1.194 1.364-1.215h4.583l1.044 1.215m-.32 13.09l-1.387 1.215-1.045-1.217.619-4.28 1.365-1.195 1.045 1.194-.597 4.283"/><path d="m10.1 265.12l-3.879 5.889h-1.429l.303-2.203 4.168-6.088h1.178l-.341 2.402m5.116-9.904l-1.364 1.194h-7.695l-1.045-1.194 1.385-1.215h7.695l1.024 1.215m-2.153 5.903l-.955 1.172h-1.167l.292-2.092 2.384-3.364h.043l-.597 4.284"/><path d="m6.581 303.3l-1.365 1.216-1.045-1.215.599-4.286 1.386-1.192 1.024 1.197-.599 4.28m1.047-7.331l-1.369 1.216-1.048-1.174.579-4.303 1.387-1.215 1.045 1.217-.594 4.259m4.834 8.824l-1.364 1.215h-4.583l-1.044-1.215 1.385-1.194h4.583l1.023 1.194m1.044-7.278l-1.385 1.204h-4.604l-1.045-1.204 1.386-1.205h4.603l1.045 1.205m1.024-7.3l-1.385 1.194h-4.583l-1.023-1.194 1.364-1.215h4.583l1.044 1.215m-.32 13.09l-1.386 1.215-1.045-1.217.594-4.26 1.369-1.216 1.048 1.174-.58 4.304m1.021-7.309l-1.386 1.192-1.024-1.197.598-4.279 1.365-1.216 1.045 1.215-.598 4.285"/><path d="m7.093 330.99l-1.365 1.196-1.045-1.194.596-4.284 1.387-1.215 1.045 1.217-.618 4.28m4.857 8.804l-1.365 1.215h-4.582l-1.044-1.215 1.385-1.194h4.583l1.023 1.194m1.066-7.3l-1.385 1.204h-4.605l-1.045-1.204 1.386-1.205h4.604l1.045 1.205m1-7.278l-1.385 1.194h-4.583l-1.023-1.194 1.364-1.215h4.583l1.044 1.215m-.342 13.09l-1.365 1.215-1.045-1.217.582-4.267 1.503-1.314h1.116l-.791 5.583m.852-6.01h-1.113l-1.134-1.312.626-4.269 1.365-1.217 1.046 1.215-.79 5.583"/><path d="m10.779 370.52l-1.366 1.239-1.045-1.237.167-1.189 1.39-1.261 1.023 1.244-.169 1.204m.683-4.863l-1.371 1.23-1.039-1.233.17-1.208 1.385-1.214 1.025 1.216-.17 1.209"/></g></svg>