<?xml version="1.0" encoding="utf-8"?>
<!-- Generator: Adobe Illustrator 18.0.0, SVG Export Plug-In . SVG Version: 6.00 Build 0)  -->
<!DOCTYPE svg PUBLIC "-//W3C//DTD SVG 1.1//EN" "http://www.w3.org/Graphics/SVG/1.1/DTD/svg11.dtd">
<svg version="1.1" id="Layer_1" xmlns="http://www.w3.org/2000/svg" xmlns:xlink="http://www.w3.org/1999/xlink" x="0px" y="0px"
	 width="480px" height="120px" viewBox="0 0 480 120" enable-background="new 0 0 480 120" xml:space="preserve">
<rect x="0" y="0" fill="#FFFFFF" width="120" height="120"/>
<rect x="120" y="0" fill="#FFFFFF" width="120" height="120"/>
<rect x="240" y="0" fill="#FFFFFF" width="120" height="120"/>
<rect x="360" y="0" fill="#FFFFFF" width="120" height="120"/>
<g id="restore-water">
	<rect x="69.4" y="23.7" transform="matrix(0.5001 0.866 -0.866 0.5001 59.7886 -54.2527)" fill="#4589C9" width="15" height="2"/>
	<rect x="53.3" y="17.1" transform="matrix(0.8665 0.4992 -0.4992 0.8665 19.5648 -23.827)" fill="#4589C9" width="2" height="15"/>
	<rect x="58.1" y="55.6" fill="#4589C9" width="15" height="2"/>
	<rect x="46.8" y="75.1" transform="matrix(0.5 0.866 -0.866 0.5 93.0835 -8.9855)" fill="#4589C9" width="15" height="2"/>
	
		<rect x="42.4" y="49.4" transform="matrix(0.8664 0.4994 -0.4994 0.8664 34.2176 -14.0768)" fill="#4589C9" width="2" height="15"/>
	<rect x="13.3" y="55.9" transform="matrix(0.5 0.866 -0.866 0.5 59.7059 10.3939)" fill="#4589C9" width="15" height="2"/>
	<path fill="#4589C9" d="M43.6,25.2c-3.4,0-6.2,2.8-6.2,6.2c0,3.4,2.8,6.2,6.2,6.2c3.4,0,6.2-2.8,6.2-6.2C49.8,28,47,25.2,43.6,25.2
		z M41.5,31.7c-0.8,0-1.5-0.7-1.5-1.5c0-0.8,0.7-1.5,1.5-1.5c0.8,0,1.5,0.7,1.5,1.5C43,31,42.3,31.7,41.5,31.7z"/>
	<path fill="#4589C9" d="M77.2,44.1c-3.4,0-6.2,2.8-6.2,6.2c0,3.4,2.8,6.2,6.2,6.2c3.4,0,6.2-2.8,6.2-6.2
		C83.4,46.8,80.6,44.1,77.2,44.1z M75.1,50.6c-0.8,0-1.5-0.7-1.5-1.5c0-0.8,0.7-1.5,1.5-1.5s1.5,0.7,1.5,1.5
		C76.5,49.9,75.9,50.6,75.1,50.6z"/>
	<path fill="#4589C9" d="M87.4,25c-3.4,0-6.2,2.8-6.2,6.2c0,3.4,2.8,6.2,6.2,6.2c3.4,0,6.2-2.8,6.2-6.2C93.6,27.8,90.9,25,87.4,25z
		 M85.3,31.5c-0.8,0-1.5-0.7-1.5-1.5c0-0.8,0.7-1.5,1.5-1.5c0.8,0,1.5,0.7,1.5,1.5C86.8,30.9,86.1,31.5,85.3,31.5z"/>
	<path fill="#4589C9" d="M43.6,63.6c-3.4,0-6.2,2.8-6.2,6.2c0,3.4,2.8,6.2,6.2,6.2c3.4,0,6.2-2.8,6.2-6.2
		C49.8,66.4,47,63.6,43.6,63.6z M41.5,70.1c-0.8,0-1.5-0.7-1.5-1.5c0-0.8,0.7-1.5,1.5-1.5c0.8,0,1.5,0.7,1.5,1.5
		C43,69.5,42.3,70.1,41.5,70.1z"/>
	<path fill="#4589C9" d="M20.6,63.6c-3.4,0-6.2,2.8-6.2,6.2c0,3.4,2.8,6.2,6.2,6.2c3.4,0,6.2-2.8,6.2-6.2
		C26.8,66.4,24.1,63.6,20.6,63.6z M18.5,70.1c-0.8,0-1.5-0.7-1.5-1.5c0-0.8,0.7-1.5,1.5-1.5c0.8,0,1.5,0.7,1.5,1.5
		C20,69.5,19.3,70.1,18.5,70.1z"/>
	<path fill="#4589C9" d="M54.4,44.1c-3.4,0-6.2,2.8-6.2,6.2c0,3.4,2.8,6.2,6.2,6.2c3.4,0,6.2-2.8,6.2-6.2
		C60.6,46.8,57.8,44.1,54.4,44.1z M52.3,50.6c-0.8,0-1.5-0.7-1.5-1.5c0-0.8,0.7-1.5,1.5-1.5c0.8,0,1.5,0.7,1.5,1.5
		C53.7,49.9,53.1,50.6,52.3,50.6z"/>
	<path fill="#4589C9" d="M20.8,25c-3.4,0-6.2,2.8-6.2,6.2c0,3.4,2.8,6.2,6.2,6.2c3.4,0,6.2-2.8,6.2-6.2C27,27.8,24.2,25,20.8,25z
		 M18.7,31.5c-0.8,0-1.5-0.7-1.5-1.5c0-0.8,0.7-1.5,1.5-1.5c0.8,0,1.5,0.7,1.5,1.5C20.2,30.9,19.5,31.5,18.7,31.5z"/>
	<g>
		<path fill="#4589C9" d="M28.7,29.2c0.2,0.6,0.3,1.3,0.3,2c0,0.7-0.1,1.3-0.2,1.9h6.9c-0.1-0.6-0.2-1.2-0.2-1.8
			c0-0.7,0.1-1.5,0.3-2.2H28.7z"/>
		<path fill="#4589C9" d="M35.7,71.6c-0.1-0.6-0.2-1.1-0.2-1.8c0-0.8,0.1-1.5,0.3-2.2h-7.3c0.2,0.7,0.3,1.5,0.3,2.2
			c0,0.6-0.1,1.2-0.2,1.8H35.7z"/>
		<path fill="#4589C9" d="M69.3,52.3C69.1,51.7,69,51,69,50.3c0-0.6,0.1-1.2,0.2-1.8h-6.9c0.1,0.6,0.2,1.2,0.2,1.8
			c0,0.7-0.1,1.4-0.3,2.1H69.3z"/>
		<path fill="#4589C9" d="M82,37.3l-2.9,5.1c1.3,0.3,2.5,1,3.5,1.9l2.9-5.1C84.2,38.8,83,38.2,82,37.3z"/>
		<path fill="#4589C9" d="M48.7,44.5c1-1,2.2-1.7,3.5-2l-3-5.1c-1,0.9-2.2,1.6-3.6,2L48.7,44.5z"/>
		<path fill="#4589C9" d="M48.7,56.1l-3.3,5.7c1.4,0.3,2.6,1,3.6,1.9l3.2-5.6C50.9,57.8,49.7,57.1,48.7,56.1z"/>
		<path fill="#4589C9" d="M49.1,25.3l6.6-11.4h19.9L82,25.1c1-0.9,2.2-1.5,3.5-1.8L78.4,11c-0.3-0.6-1-1-1.7-1H54.5
			c-0.7,0-1.3,0.4-1.7,1l-7.2,12.5C46.9,23.8,48.1,24.4,49.1,25.3z"/>
		<path fill="#4589C9" d="M15.4,25.2c1-0.9,2.1-1.5,3.4-1.8L11.7,11C11.2,10,10,9.7,9,10.3c-0.9,0.5-1.3,1.7-0.7,2.7L15.4,25.2z"/>
		<path fill="#4589C9" d="M110.1,29.2H95.3c0.2,0.6,0.3,1.3,0.3,2c0,0.7-0.1,1.3-0.2,1.9h14.7c1.1,0,2-0.9,2-2
			C112,30.1,111.2,29.2,110.1,29.2z"/>
		<path fill="#4589C9" d="M82.2,94.7c-1,0.9-2.2,1.5-3.5,1.8l7.2,12.6c0.4,0.6,1,1,1.7,1c0.3,0,0.7-0.1,1-0.3
			c0.9-0.5,1.3-1.7,0.7-2.7L82.2,94.7z"/>
		<path fill="#4589C9" d="M82.5,56.4c-1,0.9-2.2,1.5-3.6,1.8l6.6,11.4l-6.4,11.1c1.3,0.4,2.4,1.1,3.4,2L89.2,71
			c0.7-0.6,0.8-1.6,0.4-2.4L82.5,56.4z"/>
		<path fill="#4589C9" d="M15.3,63.6c1-0.9,2.2-1.5,3.5-1.8l-6.6-11.4l6.6-11.4c-1.3-0.3-2.5-1-3.5-1.9L8.3,49.4
			c-0.3,0.6-0.3,1.3,0,2L15.3,63.6z"/>
		<path fill="#4589C9" d="M68.7,88.5c0-0.6,0.1-1.1,0.2-1.7H55.6l-6.4-11.1c-1,0.9-2.2,1.6-3.6,2l7,12c0,0,0,0,0.1,0.1
			c0.3,0.6,1,1,1.7,1H69C68.8,90.1,68.7,89.3,68.7,88.5z"/>
		<path fill="#4589C9" d="M15.1,75.8l-6.9,12c-0.5,0.9-0.2,2.1,0.7,2.7c0.9,0.5,2.1,0.2,2.7-0.7l7-12.1
			C17.3,77.3,16.1,76.7,15.1,75.8z"/>
	</g>
	<path fill="#4589C9" d="M76.9,82.4c-3.4,0-6.2,2.8-6.2,6.2c0,3.4,2.8,6.2,6.2,6.2c3.4,0,6.2-2.8,6.2-6.2
		C83,85.1,80.3,82.4,76.9,82.4z M74.7,88.9c-0.8,0-1.5-0.7-1.5-1.5c0-0.8,0.7-1.5,1.5-1.5c0.8,0,1.5,0.7,1.5,1.5
		C76.2,88.2,75.5,88.9,74.7,88.9z"/>
</g>
<g id="years-of-research">
	<path fill="#4589C9" d="M457.2,102.8c0,4-3.2,7.2-7.2,7.2H390c-4,0-7.2-3.2-7.2-7.2l0,0c0-4,3.2-7.2,7.2-7.2H450
		C453.9,95.6,457.2,98.8,457.2,102.8L457.2,102.8z"/>
	<path fill="#4589C9" d="M442.8,92.6H406c-11.9,0-21.7-9.7-21.7-21.7v-4.7c0-11.9,9.7-21.7,21.7-21.7h12.2v9H406
		c-7,0-12.7,5.7-12.7,12.7v4.7c0,7,5.7,12.7,12.7,12.7h36.8V92.6z"/>
	<g>
		<g>
			<path fill="#4589C9" d="M413.8,66.4l0.7,1.8c0.9,2.5,3.6,3.7,6.1,2.8c0,0,2.4,0.6,6.1-0.8c3.7-1.4,5.2-3.4,5.2-3.4
				c2.5-0.9,3.7-3.7,2.8-6.1l-0.7-1.8L413.8,66.4z"/>
			<path fill="#4589C9" d="M421.1,24l-1.5-4c-0.9-2.5-3.7-3.7-6.1-2.8l-11.3,4.2c-2.5,0.9-3.7,3.6-2.8,6.1l1.5,4L421.1,24z"/>
			
				<rect x="401.6" y="34.4" transform="matrix(0.3493 0.937 -0.937 0.3493 314.0073 -361.739)" fill="#4589C9" width="31.7" height="21.6"/>
		</g>
		<path fill="#4589C9" d="M417.2,23.3l-2.7-7.3c-0.4-1.2-1.7-1.7-2.9-1.3l-9.7,3.6c-1.2,0.4-1.7,1.7-1.3,2.9l2.7,7.3L417.2,23.3z"/>
		<path fill="#4589C9" d="M411.7,15.8l-1.8-4.8c-0.3-0.8-1.1-1.1-1.9-0.9l-6.4,2.4c-0.8,0.3-1.2,1.1-0.9,1.9l1.8,4.8L411.7,15.8z"/>
		<path fill="#4589C9" d="M424,69.8l1.1,3.1c0.1,0.4,0.6,0.6,0.9,0.4l3.2-1.2c0.4-0.1,0.6-0.6,0.4-0.9l-1.1-3.1L424,69.8z"/>
		<path fill="#4589C9" d="M418.2,70.2l0.2,3.3c0,0.4,0.4,0.7,0.8,0.7l3.4-0.2c0.4,0,0.7-0.4,0.7-0.8l-0.2-3.3L418.2,70.2z"/>
		<path fill="#4589C9" d="M433.2,64.6l2,2.6c0.2,0.3,0.2,0.8-0.1,1l-2.7,2.1c-0.3,0.2-0.8,0.2-1-0.1l-2-2.6L433.2,64.6z"/>
	</g>
	<rect x="408.6" y="80.2" fill="#4589C9" width="30" height="5.1"/>
</g>
<g id="external">
	<path fill="#4589C9" d="M300,48.6c-6.5,0-11.8,5.3-11.8,11.8c0,6.5,5.3,11.8,11.8,11.8c6.5,0,11.8-5.3,11.8-11.8
		C311.8,53.9,306.5,48.6,300,48.6z M295.2,59.6c-1.4,0-2.6-1.2-2.6-2.6c0-1.4,1.2-2.6,2.6-2.6c1.4,0,2.6,1.2,2.6,2.6
		C297.8,58.5,296.7,59.6,295.2,59.6z"/>
	<g>
		<path fill="#4589C9" d="M278.4,14.3c0.2-1.1,0.7-2.1,1.3-2.9c-3-0.9-5.6-0.7-7.7,0.5c-5.2,3-6.3,11.7-3.2,24.5
			c0.2,0.9,1.1,1.4,1.9,1.2c0.9-0.2,1.4-1.1,1.2-1.9c-2.7-11-2.1-18.8,1.6-20.9C274.8,14,276.5,13.9,278.4,14.3z"/>
		<path fill="#4589C9" d="M331.8,87.1c-2.2-10.8-7.5-23.7-14.9-36.4c-7.2-12.5-15.6-23.3-23.6-30.7c-0.5,1-1.2,1.8-2.1,2.4
			c7.8,7.1,15.9,17.7,22.9,29.8c7.2,12.4,12.3,25,14.5,35.5c2,9.7,1.2,16.4-2.2,18.4c-3.4,2-9.7-0.7-17.1-7.3
			c-7.9-7.1-16.3-17.9-23.5-30.3c-3.4-6-6.4-12-8.9-17.9c-0.3-0.8-1.3-1.2-2.1-0.9c-0.8,0.3-1.2,1.3-0.9,2.1
			c2.5,6,5.6,12.2,9.1,18.2c7.3,12.7,15.9,23.8,24.1,31.1c6.4,5.7,12.2,8.7,16.7,8.7c1.5,0,2.9-0.3,4.2-1.1
			C332.8,106.2,334.1,98.4,331.8,87.1z"/>
	</g>
	<path fill="#4589C9" d="M286.2,10c-3.4,0-6.1,2.7-6.1,6.1s2.7,6.1,6.1,6.1c3.4,0,6.1-2.7,6.1-6.1S289.6,10,286.2,10z M284.1,16.4
		c-0.8,0-1.5-0.6-1.5-1.4c0-0.8,0.6-1.4,1.5-1.4c0.8,0,1.4,0.7,1.4,1.4C285.6,15.8,284.9,16.4,284.1,16.4z"/>
	<g>
		<path fill="#4589C9" d="M338,49.3c9.4,3.1,14.8,7.2,14.8,11.1c0,1.1-0.4,2.2-1.2,3.2c0.8,0.8,1.5,1.7,1.9,2.8
			c1.6-1.8,2.5-3.8,2.5-6c0-5.5-6.1-10.6-17-14.2c-0.8-0.3-1.8,0.2-2,1C336.7,48.1,337.1,49,338,49.3z"/>
		<path fill="#4589C9" d="M338.2,71.4c-9.3,3.1-22.6,5.3-38.2,5.3c-31.1,0-52.8-8.6-52.8-16.3c0-7.7,21.7-16.3,52.8-16.3
			c0,0,0,0,0,0c6.8,0,13.4,0.4,19.7,1.2c0.9,0.1,1.7-0.5,1.8-1.4c0.1-0.9-0.5-1.7-1.4-1.8c-6.4-0.8-13.2-1.2-20.1-1.2c0,0,0,0,0,0
			c-27.5,0-56,7.3-56,19.5c0,12.2,28.5,19.5,56,19.5c14.3,0,28.9-2,39.6-5.6C339,73.5,338.5,72.5,338.2,71.4z"/>
	</g>
	<path fill="#4589C9" d="M346.1,63.4c-3.4,0-6.1,2.7-6.1,6.1c0,3.4,2.7,6.1,6.1,6.1c3.4,0,6.1-2.7,6.1-6.1
		C352.2,66.2,349.5,63.4,346.1,63.4z M344,69.9c-0.8,0-1.5-0.7-1.5-1.5c0-0.8,0.6-1.4,1.5-1.4c0.8,0,1.4,0.6,1.4,1.4
		C345.4,69.2,344.8,69.9,344,69.9z"/>
	<g>
		<path fill="#4589C9" d="M328,11.9c-10.6-6.1-31.1,14.9-44.9,38.8c-7,12.1-12.1,24.3-14.5,34.8c1.1,0.1,2.2,0.4,3.1,0.9
			c2.3-10.1,7.3-22.2,14.2-34c15.6-26.9,33.8-41.4,40.5-37.6c3.4,2,4.2,8.7,2.2,18.4c-2.2,10.4-7.3,23-14.5,35.5
			c-3,5.1-6.2,10-9.5,14.5c-0.5,0.7-0.4,1.7,0.3,2.3c0.7,0.5,1.7,0.4,2.3-0.3c3.4-4.6,6.6-9.6,9.7-14.8
			c7.4-12.7,12.6-25.7,14.9-36.4C334.1,22.4,332.8,14.7,328,11.9z"/>
		<path fill="#4589C9" d="M293.4,96.2c-8.5,8.4-15.9,12.1-19.8,9.9c-1.5-0.9-2.5-2.6-3-5.1c-0.8,0.3-1.7,0.5-2.7,0.5
			c-0.2,0-0.3,0-0.5,0c0.7,3.6,2.2,6.1,4.5,7.5c1.2,0.7,2.6,1.1,4.2,1.1c5.2,0,11.9-3.9,19.5-11.5c0.6-0.6,0.6-1.6,0-2.3
			C295.1,95.6,294.1,95.6,293.4,96.2z"/>
	</g>
	<path fill="#4589C9" d="M268,87.3c-3.4,0-6.1,2.7-6.1,6.1c0,3.4,2.7,6.1,6.1,6.1c3.4,0,6.1-2.7,6.1-6.1
		C274.1,90.1,271.3,87.3,268,87.3z M265.9,93.8c-0.8,0-1.4-0.6-1.4-1.4c0-0.8,0.6-1.4,1.4-1.4c0.8,0,1.4,0.6,1.4,1.4
		C267.3,93.1,266.7,93.8,265.9,93.8z"/>
</g>
<g id="simple-and-safe">
	<path fill="#4589C9" d="M147.8,10c-1.6,0-3.1,0.7-4.1,1.8c-1.1,1.2-1.6,2.7-1.4,4.3l9,86.8l1.2,1c1.1,1,7.7,6,27.5,6
		c19.8,0,26.4-5,27.5-6l1.2-1.1l9-86.8c0.2-1.6-0.3-3.1-1.4-4.3c-1.1-1.2-2.6-1.8-4.1-1.8L147.8,10L147.8,10z M200.8,98.5
		c-2.4,1.1-8.5,3.3-20.8,3.3c-12.4,0-18.5-2.2-20.8-3.3l-7.7-74.1c-0.2-1.6,0.3-3.1,1.4-4.3c1.1-1.2,2.6-1.8,4.1-1.8h46
		c1.6,0,3.1,0.7,4.1,1.8c1.1,1.2,1.6,2.7,1.4,4.3L200.8,98.5z"/>
	<path fill="#4589C9" d="M162,44.1l4.5,48.1c0,0,4.8,2.6,12.7,2.6c7.9,0,15.1-2.6,15.1-2.6l4.3-45.8c-1.5,0.1-3,0.2-4.5,0.2
		C184.4,46.3,172.5,43.6,162,44.1z"/>
</g>
</svg>
