<?xml version="1.0" encoding="utf-8"?>
<!-- Generated by IcoMoon.io -->
<!DOCTYPE svg PUBLIC "-//W3C//DTD SVG 1.1//EN" "http://www.w3.org/Graphics/SVG/1.1/DTD/svg11.dtd">

<svg version="1.1" xmlns="http://www.w3.org/2000/svg" xmlns:xlink="http://www.w3.org/1999/xlink" width="165" height="32" viewBox="0 0 165 32">
<defs>
<g id="icon-external">
	<path class="path1" d="M17.92 12.352c-2.080 0-3.776 1.696-3.776 3.776s1.696 3.776 3.776 3.776c2.080 0 3.776-1.696 3.776-3.776s-1.696-3.776-3.776-3.776zM16.384 15.872c-0.448 0-0.832-0.384-0.832-0.832s0.384-0.832 0.832-0.832c0.448 0 0.832 0.384 0.832 0.832 0.032 0.48-0.352 0.832-0.832 0.832z"></path>
	<path class="path2" d="M11.008 1.376c0.064-0.352 0.224-0.672 0.416-0.928-0.96-0.288-1.792-0.224-2.464 0.16-1.664 0.96-2.016 3.744-1.024 7.84 0.064 0.288 0.352 0.448 0.608 0.384 0.288-0.064 0.448-0.352 0.384-0.608-0.864-3.52-0.672-6.016 0.512-6.688 0.448-0.256 0.96-0.288 1.568-0.16z"></path>
	<path class="path3" d="M28.096 24.672c-0.704-3.456-2.4-7.584-4.768-11.648-2.304-4-4.992-7.488-7.552-9.824-0.16 0.32-0.384 0.576-0.672 0.768 2.496 2.272 5.088 5.664 7.328 9.536 2.304 3.968 3.936 8 4.64 11.36 0.64 3.104 0.384 5.248-0.704 5.888s-3.104-0.224-5.472-2.336c-2.528-2.24-5.184-5.696-7.488-9.664-1.088-1.92-2.048-3.84-2.848-5.728-0.096-0.256-0.416-0.384-0.672-0.288s-0.384 0.416-0.288 0.672c0.8 1.92 1.792 3.904 2.912 5.824 2.368 4.096 5.088 7.616 7.712 9.984 2.048 1.824 3.904 2.784 5.344 2.784 0.48 0 0.928-0.096 1.344-0.352 1.504-0.864 1.952-3.36 1.184-6.976z"></path>
	<path class="path4" d="M13.504 0c-1.088 0-1.952 0.864-1.952 1.952s0.864 1.952 1.952 1.952c1.088 0 1.952-0.864 1.952-1.952s-0.864-1.952-1.952-1.952zM12.832 2.048c-0.256 0-0.48-0.192-0.48-0.448s0.192-0.448 0.48-0.448c0.256 0 0.448 0.224 0.448 0.448 0.032 0.256-0.192 0.448-0.448 0.448z"></path>
	<path class="path5" d="M30.080 12.576c3.008 0.992 4.736 2.304 4.736 3.552 0 0.352-0.128 0.704-0.384 1.024 0.256 0.256 0.48 0.544 0.608 0.896 0.512-0.576 0.8-1.216 0.8-1.92 0-1.76-1.952-3.392-5.44-4.544-0.256-0.096-0.576 0.064-0.64 0.32-0.096 0.288 0.032 0.576 0.32 0.672z"></path>
	<path class="path6" d="M30.176 19.648c-2.976 0.992-7.232 1.696-12.224 1.696-9.952 0-16.896-2.752-16.896-5.216s6.944-5.216 16.896-5.216c0 0 0 0 0 0 2.176 0 4.288 0.128 6.304 0.384 0.288 0.032 0.544-0.16 0.576-0.448s-0.16-0.544-0.448-0.576c-2.080-0.256-4.224-0.384-6.464-0.384 0 0 0 0 0 0-8.8 0-17.92 2.336-17.92 6.24s9.12 6.24 17.92 6.24c4.576 0 9.248-0.64 12.672-1.792-0.192-0.256-0.352-0.576-0.416-0.928z"></path>
	<path class="path7" d="M32.672 17.088c-1.088 0-1.952 0.864-1.952 1.952s0.864 1.952 1.952 1.952c1.088 0 1.952-0.864 1.952-1.952 0-1.056-0.864-1.952-1.952-1.952zM32 19.168c-0.256 0-0.48-0.224-0.48-0.48s0.192-0.448 0.48-0.448c0.256 0 0.448 0.192 0.448 0.448 0.032 0.256-0.192 0.48-0.448 0.48z"></path>
	<path class="path8" d="M26.88 0.608c-3.392-1.952-9.952 4.768-14.368 12.416-2.24 3.84-3.872 7.776-4.64 11.104 0.352 0.032 0.704 0.128 0.992 0.288 0.736-3.232 2.336-7.104 4.544-10.88 4.992-8.64 10.816-13.28 12.96-12.032 1.088 0.64 1.344 2.784 0.704 5.888-0.704 3.328-2.336 7.36-4.64 11.36-0.96 1.632-1.984 3.2-3.040 4.64-0.16 0.224-0.128 0.544 0.096 0.736 0.224 0.16 0.544 0.128 0.736-0.096 1.088-1.472 2.112-3.072 3.104-4.736 2.368-4.064 4.032-8.224 4.768-11.648 0.768-3.68 0.32-6.144-1.216-7.040z"></path>
	<path class="path9" d="M15.808 27.584c-2.72 2.688-5.088 3.872-6.336 3.168-0.48-0.288-0.8-0.832-0.96-1.632-0.256 0.096-0.544 0.16-0.864 0.16-0.064 0-0.096 0-0.16 0 0.224 1.152 0.704 1.952 1.44 2.4 0.384 0.224 0.832 0.352 1.344 0.352 1.664 0 3.808-1.248 6.24-3.68 0.192-0.192 0.192-0.512 0-0.736-0.16-0.224-0.48-0.224-0.704-0.032z"></path>
	<path class="path10" d="M7.68 24.736c-1.088 0-1.952 0.864-1.952 1.952s0.864 1.952 1.952 1.952 1.952-0.864 1.952-1.952c0-1.056-0.864-1.952-1.952-1.952zM7.008 26.816c-0.256 0-0.448-0.192-0.448-0.448s0.192-0.448 0.448-0.448c0.256 0 0.448 0.192 0.448 0.448 0 0.224-0.192 0.448-0.448 0.448z"></path>
</g>
<g id="icon-restores-water">
	<path class="path1" d="M21.117 2.453l2.4 4.157-0.554 0.32-2.4-4.157 0.554-0.32z"></path>
	<path class="path2" d="M15.777 2.441l0.555 0.32-2.396 4.159-0.555-0.319 2.396-4.159z"></path>
	<path class="path3" d="M16.032 14.592h4.8v0.64h-4.8v-0.64z"></path>
	<path class="path4" d="M13.909 18.899l2.4 4.157-0.554 0.32-2.4-4.157 0.554-0.32z"></path>
	<path class="path5" d="M12.28 12.777l0.555 0.32-2.397 4.159-0.555-0.32 2.397-4.159z"></path>
	<path class="path6" d="M3.205 12.772l2.4 4.157-0.554 0.32-2.4-4.157 0.554-0.32z"></path>
	<path class="path7" d="M11.424 4.864c-1.088 0-1.984 0.896-1.984 1.984s0.896 1.984 1.984 1.984c1.088 0 1.984-0.896 1.984-1.984s-0.896-1.984-1.984-1.984zM10.752 6.944c-0.256 0-0.48-0.224-0.48-0.48s0.224-0.48 0.48-0.48c0.256 0 0.48 0.224 0.48 0.48-0.032 0.256-0.224 0.48-0.48 0.48z"></path>
	<path class="path8" d="M22.144 10.912c-1.088 0-1.984 0.896-1.984 1.984s0.896 1.984 1.984 1.984c1.088 0 1.984-0.896 1.984-1.984 0-1.12-0.896-1.984-1.984-1.984zM21.472 12.992c-0.256 0-0.48-0.224-0.48-0.48s0.224-0.48 0.48-0.48c0.256 0 0.48 0.224 0.48 0.48s-0.224 0.48-0.48 0.48z"></path>
	<path class="path9" d="M25.44 4.8c-1.088 0-1.984 0.896-1.984 1.984s0.896 1.984 1.984 1.984c1.088 0 1.984-0.896 1.984-1.984s-0.896-1.984-1.984-1.984zM24.768 6.88c-0.256 0-0.48-0.224-0.48-0.48s0.224-0.48 0.48-0.48c0.256 0 0.48 0.224 0.48 0.48-0.032 0.288-0.224 0.48-0.48 0.48z"></path>
	<path class="path10" d="M11.424 17.152c-1.088 0-1.984 0.896-1.984 1.984s0.896 1.984 1.984 1.984c1.088 0 1.984-0.896 1.984-1.984s-0.896-1.984-1.984-1.984zM10.752 19.232c-0.256 0-0.48-0.224-0.48-0.48s0.224-0.48 0.48-0.48c0.256 0 0.48 0.224 0.48 0.48-0.032 0.288-0.224 0.48-0.48 0.48z"></path>
	<path class="path11" d="M4.064 17.152c-1.088 0-1.984 0.896-1.984 1.984s0.896 1.984 1.984 1.984c1.088 0 1.984-0.896 1.984-1.984s-0.896-1.984-1.984-1.984zM3.392 19.232c-0.256 0-0.48-0.224-0.48-0.48s0.224-0.48 0.48-0.48c0.256 0 0.48 0.224 0.48 0.48-0.032 0.288-0.224 0.48-0.48 0.48z"></path>
	<path class="path12" d="M14.848 10.912c-1.088 0-1.984 0.896-1.984 1.984s0.896 1.984 1.984 1.984c1.088 0 1.984-0.896 1.984-1.984 0-1.12-0.896-1.984-1.984-1.984zM14.176 12.992c-0.256 0-0.48-0.224-0.48-0.48s0.224-0.48 0.48-0.48c0.256 0 0.48 0.224 0.48 0.48s-0.224 0.48-0.48 0.48z"></path>
	<path class="path13" d="M4.128 4.8c-1.088 0-1.984 0.896-1.984 1.984s0.896 1.984 1.984 1.984c1.088 0 1.984-0.896 1.984-1.984s-0.896-1.984-1.984-1.984zM3.424 6.88c-0.256 0-0.48-0.224-0.48-0.48s0.224-0.48 0.48-0.48c0.256 0 0.48 0.224 0.48 0.48 0 0.288-0.192 0.48-0.48 0.48z"></path>
	<path class="path14" d="M6.656 6.144c0.064 0.192 0.096 0.416 0.096 0.64s-0.032 0.416-0.064 0.608h2.208c-0.032-0.192-0.064-0.384-0.064-0.576 0-0.224 0.032-0.48 0.096-0.704h-2.272z"></path>
	<path class="path15" d="M8.864 19.712c-0.032-0.192-0.064-0.352-0.064-0.576 0-0.256 0.032-0.48 0.096-0.704h-2.336c0.064 0.224 0.096 0.48 0.096 0.704 0 0.192-0.032 0.384-0.064 0.576h2.272z"></path>
	<path class="path16" d="M19.648 13.536c-0.064-0.224-0.096-0.448-0.096-0.672 0-0.192 0.032-0.384 0.064-0.576h-2.208c0.032 0.192 0.064 0.384 0.064 0.576 0 0.224-0.032 0.448-0.096 0.672h2.272z"></path>
	<path class="path17" d="M23.712 8.736l-0.928 1.632c0.416 0.096 0.8 0.32 1.12 0.608l0.928-1.632c-0.416-0.128-0.8-0.32-1.12-0.608z"></path>
	<path class="path18" d="M13.024 11.040c0.32-0.32 0.704-0.544 1.12-0.64l-0.96-1.632c-0.32 0.288-0.704 0.512-1.152 0.64l0.992 1.632z"></path>
	<path class="path19" d="M13.056 14.752l-1.056 1.824c0.448 0.096 0.832 0.32 1.152 0.608l1.024-1.792c-0.416-0.096-0.8-0.32-1.12-0.64z"></path>
	<path class="path20" d="M13.152 4.896l2.112-3.648h6.368l2.080 3.584c0.32-0.288 0.704-0.48 1.12-0.576l-2.304-3.936c-0.096-0.192-0.32-0.32-0.544-0.32h-7.104c-0.224 0-0.416 0.128-0.544 0.32l-2.304 4c0.416 0.096 0.8 0.288 1.12 0.576z"></path>
	<path class="path21" d="M2.368 4.864c0.32-0.288 0.672-0.48 1.088-0.576l-2.272-3.968c-0.16-0.32-0.544-0.416-0.832-0.224-0.32 0.16-0.416 0.544-0.224 0.832l2.24 3.936z"></path>
	<path class="path22" d="M32.672 6.144h-4.704c0.064 0.192 0.096 0.416 0.096 0.64s-0.032 0.416-0.064 0.608h4.704c0.352 0 0.64-0.288 0.64-0.64-0.032-0.32-0.32-0.608-0.672-0.608z"></path>
	<path class="path23" d="M23.744 27.104c-0.32 0.288-0.704 0.48-1.12 0.576l2.336 4c0.128 0.192 0.32 0.32 0.544 0.32 0.096 0 0.224-0.032 0.32-0.096 0.288-0.16 0.416-0.544 0.224-0.864l-2.304-3.936z"></path>
	<path class="path24" d="M23.872 14.848c-0.32 0.288-0.704 0.48-1.152 0.576l2.112 3.648-2.048 3.552c0.416 0.128 0.768 0.352 1.088 0.64l2.144-3.744c0.224-0.192 0.256-0.512 0.128-0.768l-2.272-3.904z"></path>
	<path class="path25" d="M2.368 17.152c0.32-0.288 0.704-0.48 1.12-0.576l-2.112-3.648 2.112-3.648c-0.416-0.096-0.8-0.32-1.12-0.608l-2.272 3.936c-0.096 0.192-0.096 0.416 0 0.64l2.272 3.904z"></path>
	<path class="path26" d="M19.456 25.12c0-0.192 0.032-0.352 0.064-0.544h-4.256l-2.048-3.552c-0.32 0.288-0.704 0.512-1.152 0.64l2.24 3.84c0 0 0 0 0.032 0.032 0.096 0.192 0.32 0.32 0.544 0.32h4.704c-0.096-0.224-0.128-0.48-0.128-0.736z"></path>
	<path class="path27" d="M2.304 21.056l-2.208 3.84c-0.192 0.288-0.096 0.672 0.224 0.832 0.288 0.16 0.672 0.064 0.864-0.224l2.24-3.872c-0.448-0.096-0.832-0.288-1.12-0.576z"></path>
	<path class="path28" d="M22.048 23.168c-1.088 0-1.984 0.896-1.984 1.984s0.896 1.984 1.984 1.984c1.088 0 1.984-0.896 1.984-1.984 0-1.12-0.896-1.984-1.984-1.984zM21.376 25.248c-0.256 0-0.48-0.224-0.48-0.48s0.224-0.48 0.48-0.48c0.256 0 0.48 0.224 0.48 0.48-0.032 0.256-0.224 0.48-0.48 0.48z"></path>
</g>
<g id="icon-simple-and-safe">
	<path class="path1" d="M1.792 0c-0.512 0-0.992 0.224-1.344 0.576-0.32 0.384-0.48 0.896-0.448 1.376l2.88 27.808 0.384 0.32c0.352 0.32 2.464 1.92 8.8 1.92s8.448-1.6 8.8-1.92l0.384-0.352 2.88-27.776c0.064-0.48-0.096-0.992-0.448-1.376-0.32-0.352-0.832-0.576-1.312-0.576h-20.576zM18.752 28.32c-0.768 0.352-2.72 1.056-6.656 1.056-3.968 0-5.92-0.704-6.656-1.056l-2.496-23.744c-0.064-0.48 0.128-0.992 0.448-1.376 0.352-0.384 0.832-0.576 1.312-0.576h14.72c0.512 0 0.992 0.224 1.312 0.576 0.352 0.384 0.512 0.864 0.448 1.376l-2.432 23.744z"></path>
	<path class="path2" d="M6.304 10.912l1.44 15.392c0 0 1.536 0.832 4.064 0.832s4.832-0.832 4.832-0.832l1.376-14.656c-0.48 0.032-0.96 0.064-1.44 0.064-3.104-0.096-6.88-0.96-10.272-0.8z"></path>
</g>
<g id="icon-years-of-research">
	<path class="path1" d="M23.776 29.696c0 1.28-1.024 2.304-2.304 2.304h-19.168c-1.28 0-2.304-1.024-2.304-2.304v0c0-1.28 1.024-2.304 2.304-2.304h19.168c1.28 0 2.304 1.024 2.304 2.304v0z"></path>
	<path class="path2" d="M19.168 26.432h-11.744c-3.808 0-6.944-3.104-6.944-6.944v-1.504c0-3.808 3.104-6.944 6.944-6.944h3.904v2.88h-3.904c-2.24 0-4.064 1.824-4.064 4.064v1.504c0 2.24 1.824 4.064 4.064 4.064h11.776v2.88z"></path>
	<path class="path3" d="M9.92 18.048l0.224 0.576c0.288 0.8 1.152 1.184 1.952 0.896 0 0 0.768 0.192 1.952-0.256s1.664-1.088 1.664-1.088c0.8-0.288 1.184-1.184 0.896-1.952l-0.224-0.576-6.464 2.4z"></path>
	<path class="path4" d="M12.224 4.48l-0.48-1.28c-0.288-0.8-1.184-1.184-1.952-0.896l-3.616 1.344c-0.8 0.288-1.184 1.152-0.896 1.952l0.48 1.28 6.464-2.4z"></path>
	<path class="path5" d="M12.546 5.321l3.543 9.505-6.477 2.414-3.543-9.505 6.477-2.414z"></path>
	<path class="path6" d="M11.008 4.256l-0.896-2.336c-0.128-0.384-0.544-0.544-0.928-0.416l-3.104 1.184c-0.384 0.128-0.544 0.544-0.416 0.928l0.864 2.336 4.48-1.696z"></path>
	<path class="path7" d="M9.248 1.856l-0.576-1.536c-0.096-0.256-0.352-0.352-0.608-0.288l-2.048 0.768c-0.256 0.096-0.384 0.352-0.288 0.608l0.576 1.536 2.944-1.088z"></path>
	<path class="path8" d="M13.152 19.136l0.352 0.992c0.032 0.128 0.192 0.192 0.288 0.128l1.024-0.384c0.128-0.032 0.192-0.192 0.128-0.288l-0.352-0.992-1.44 0.544z"></path>
	<path class="path9" d="M11.296 19.264l0.064 1.056c0 0.128 0.128 0.224 0.256 0.224l1.088-0.064c0.128 0 0.224-0.128 0.224-0.256l-0.064-1.056-1.568 0.096z"></path>
	<path class="path10" d="M16.128 17.472l0.64 0.832c0.064 0.096 0.064 0.256-0.032 0.32l-0.864 0.672c-0.096 0.064-0.256 0.064-0.32-0.032l-0.64-0.832 1.216-0.96z"></path>
	<path class="path11" d="M8.256 22.464h9.6v1.632h-9.6v-1.632z"></path>
</g>
</defs>

<g fill="#000000">
	<use xlink:href="#icon-external" transform="translate(0 0)"></use>
	<use xlink:href="#icon-restores-water" transform="translate(52 0)"></use>
	<use xlink:href="#icon-simple-and-safe" transform="translate(101 0)"></use>
	<use xlink:href="#icon-years-of-research" transform="translate(141 0)"></use>
</g>

</svg>
