<?xml version="1.0" encoding="utf-8"?>
<!-- Generator: Adobe Illustrator 18.0.0, SVG Export Plug-In . SVG Version: 6.00 Build 0)  -->
<!DOCTYPE svg PUBLIC "-//W3C//DTD SVG 1.1//EN" "http://www.w3.org/Graphics/SVG/1.1/DTD/svg11.dtd">
<svg version="1.1" id="Layer_1" xmlns="http://www.w3.org/2000/svg" xmlns:xlink="http://www.w3.org/1999/xlink" x="0px" y="0px"
	 width="181.1px" height="64px" viewBox="0 368 181.1 64" enable-background="new 0 368 181.1 64" xml:space="preserve">
<path fill="#293679" d="M90.6,431c-17.1,0-31-13.9-31-31c0-17.1,13.9-31,31-31c17.1,0,31,13.9,31,31C121.6,417.1,107.7,431,90.6,431
	"/>
<path fill="#FFFFFF" d="M90.6,370c16.6,0,30,13.4,30,30c0,16.6-13.4,30-30,30c-16.6,0-30-13.4-30-30C60.6,383.4,74,370,90.6,370
	 M90.6,368c-17.6,0-32,14.4-32,32c0,17.6,14.4,32,32,32c17.6,0,32-14.4,32-32C122.6,382.4,108.2,368,90.6,368z"/>
<path fill="#4589C9" d="M110.7,379.8l0.2,11.7l-0.3,0.1l-7.9-3.9l-3.9-7.9l0.1-0.3L110.7,379.8z"/>
<path fill="#D3E8F8" d="M102.8,387.8l5.1,12.2l-5.1,12.2l-12.2,5.1l-12.2-5.1L73.3,400l5.1-12.2l12.2-5.1L102.8,387.8z"/>
<g>
	<path fill="#83B7E3" d="M110.7,391.7l-2.8,8.3l-5.1-12.2L110.7,391.7z"/>
	<path fill="#83B7E3" d="M107.9,400l2.8,8.3l-7.9,3.9L107.9,400z"/>
	<path fill="#83B7E3" d="M102.8,412.2l-3.9,7.9l-8.3-2.8L102.8,412.2z"/>
	<path fill="#83B7E3" d="M90.6,417.3l-8.3,2.8l-3.9-7.9L90.6,417.3z"/>
	<path fill="#83B7E3" d="M73.3,400l5.1,12.2l-7.9-3.9L73.3,400z"/>
	<path fill="#83B7E3" d="M78.3,387.8L73.3,400l-2.8-8.3L78.3,387.8z"/>
	<path fill="#83B7E3" d="M90.6,382.7l-12.2,5.1l3.9-7.9L90.6,382.7z"/>
	<path fill="#83B7E3" d="M98.9,379.9l3.9,7.9l-12.2-5.1L98.9,379.9z"/>
</g>
<g>
	<path fill="#4589C9" d="M110.9,391.6l8.2,8.4l-8.2,8.4l-0.3-0.1l-2.8-8.3l2.8-8.3L110.9,391.6z"/>
	<path fill="#4589C9" d="M110.9,408.4l-0.2,11.7L99,420.4l-0.1-0.3l3.9-7.9l7.9-3.9L110.9,408.4z"/>
	<path fill="#4589C9" d="M99,379.6l-0.1,0.3l-8.3,2.8l-8.3-2.8l-0.1-0.3l8.4-8.2L99,379.6z"/>
	<path fill="#4589C9" d="M98.9,420.1l0.1,0.3l-8.4,8.2l-8.4-8.2l0.1-0.3l8.3-2.8L98.9,420.1z"/>
	<path fill="#4589C9" d="M82.1,379.6l0.1,0.3l-3.9,7.9l-7.9,3.9l-0.3-0.1l0.2-11.7L82.1,379.6z"/>
	<path fill="#4589C9" d="M78.3,412.2l3.9,7.9l-0.1,0.3l-11.7-0.2l-0.2-11.7l0.3-0.1L78.3,412.2z"/>
	<path fill="#4589C9" d="M70.5,391.7l2.8,8.3l-2.8,8.3l-0.3,0.1L62,400l8.2-8.4L70.5,391.7z"/>
</g>
<path fill="#FFFFFF" d="M181.1,405.8c0,3.4-2.8,6.2-6.2,6.2H6.2c-3.4,0-6.2-2.8-6.2-6.2v-11.5c0-3.4,2.8-6.2,6.2-6.2h168.7
	c3.4,0,6.2,2.8,6.2,6.2L181.1,405.8L181.1,405.8z"/>
<g>
	<g>
		<path id="_x30_" fill="#4589C9" d="M12.8,396.3v-0.4c0-1-0.4-1.9-1.3-1.9c-1,0-1.4,0.8-1.4,1.5c0,3.5,7.4,1.8,7.4,8.2
			c0,3.7-2.2,5.4-6.2,5.4c-3.8,0-5.9-1.3-5.9-4.9v-0.6h4.4v0.4c0,1.5,0.6,2,1.5,2c0.9,0,1.5-0.7,1.5-1.7c0-3.5-7.2-1.7-7.2-7.9
			c0-3.5,1.9-5.5,5.7-5.5c4,0,5.7,1.6,5.7,5.4L12.8,396.3L12.8,396.3z M22,391.3h5.7l4.3,17.5h-4.9l-0.5-3.1h-3.6l-0.5,3.1h-4.8
			L22,391.3 M24.9,394.8L24.9,394.8l-1.3,7.4h2.5L24.9,394.8 M32.6,391.3h6.8c3.5,0,5,2.3,5,5.4c0,3.6-2,5.4-5.7,5.4h-1.6v6.7h-4.6
			L32.6,391.3 M37.2,398.8H38c1.1,0,1.8-0.7,1.8-2.1c0-1.4-0.6-2.1-1.8-2.1h-0.9V398.8 M45.8,391.3h6.8c3.5,0,5,2.3,5,5.4
			c0,3.6-2,5.4-5.7,5.4h-1.6v6.7h-4.6L45.8,391.3 M50.3,398.8h0.9c1.1,0,1.8-0.7,1.8-2.1c0-1.4-0.6-2.1-1.8-2.1h-0.9V398.8
			 M59.1,391.3h4.6v6.4h2.8v-6.4H71v17.5h-4.6v-7.2h-2.8v7.2h-4.6V391.3 M73,391.3h4.6v17.5H73V391.3 M79.5,391.3h7.1
			c3.5,0,4.8,2,4.8,4.7c0,2.3-0.9,3.8-3,4.2v0c2.2,0.2,2.9,1.6,2.9,3.9v1.5c0,0.9,0,2.1,0.2,2.4c0.1,0.2,0.2,0.4,0.5,0.5v0.2h-4.9
			c-0.4-0.9-0.4-2.6-0.4-3.3v-1.2c0-2-0.4-2.5-1.5-2.5h-1.2v7h-4.6L79.5,391.3 M84.1,398.7H85c1.3,0,1.9-0.8,1.9-2.1
			c0-1.4-0.6-2-1.9-2h-0.9L84.1,398.7 M93.6,391.3h10.4v3.7h-5.8v3h5.4v3.6h-5.4v3.5h6v3.7H93.6L93.6,391.3 M114.4,391.3h4.1
			l1.8,12.1h0l1.2-12.1h4.4l-3,17.5h-5l-1.5-11.8h-0.1l-1.5,11.8h-5l-3-17.5h4.4l1.4,12.1h0L114.4,391.3 M129.3,391.3h5.7l4.3,17.5
			h-4.8l-0.5-3.1h-3.6l-0.5,3.1H125L129.3,391.3 M132.2,394.8L132.2,394.8l-1.3,7.4h2.5L132.2,394.8 M137.7,391.3h4.9l1.8,13.2h0
			l1.8-13.2h4.9l-3.8,17.5h-5.9L137.7,391.3 M151.9,391.3h10.4v3.7h-5.8v3h5.4v3.6h-5.4v3.5h6v3.7h-10.6L151.9,391.3L151.9,391.3z
			 M170.9,396.3v-0.4c0-1-0.4-1.9-1.3-1.9c-1,0-1.4,0.8-1.4,1.5c0,3.5,7.4,1.8,7.4,8.2c0,3.7-2.2,5.4-6.2,5.4
			c-3.8,0-5.9-1.3-5.9-4.9v-0.6h4.4v0.4c0,1.5,0.6,2,1.5,2c0.9,0,1.5-0.7,1.5-1.7c0-3.5-7.1-1.7-7.1-7.9c0-3.5,1.9-5.5,5.7-5.5
			c4,0,5.7,1.6,5.7,5.4L170.9,396.3L170.9,396.3z"/>
	</g>
	<path fill="#4589C9" d="M12.8,396.3v-0.4c0-1-0.4-1.9-1.3-1.9c-1,0-1.4,0.8-1.4,1.5c0,3.5,7.4,1.8,7.4,8.2c0,3.7-2.2,5.4-6.2,5.4
		c-3.8,0-5.9-1.3-5.9-4.9v-0.6h4.4v0.4c0,1.5,0.6,2,1.5,2c0.9,0,1.5-0.7,1.5-1.7c0-3.5-7.2-1.7-7.2-7.9c0-3.5,1.9-5.5,5.7-5.5
		c4,0,5.7,1.6,5.7,5.4L12.8,396.3L12.8,396.3z"/>
	<path fill="#4589C9" d="M22,391.3h5.7l4.3,17.5h-4.9l-0.5-3.1h-3.6l-0.5,3.1h-4.8L22,391.3 M24.9,394.8L24.9,394.8l-1.3,7.4h2.5
		L24.9,394.8"/>
	<path fill="#4589C9" d="M32.6,391.3h6.8c3.5,0,5,2.3,5,5.4c0,3.6-2,5.4-5.7,5.4h-1.6v6.7h-4.6L32.6,391.3 M37.2,398.8H38
		c1.1,0,1.8-0.7,1.8-2.1c0-1.4-0.6-2.1-1.8-2.1h-0.9V398.8"/>
	<path fill="#4589C9" d="M45.8,391.3h6.8c3.5,0,5,2.3,5,5.4c0,3.6-2,5.4-5.7,5.4h-1.6v6.7h-4.6L45.8,391.3 M50.3,398.8h0.9
		c1.1,0,1.8-0.7,1.8-2.1c0-1.4-0.6-2.1-1.8-2.1h-0.9V398.8"/>
	<path fill="#4589C9" d="M59.1,391.3h4.6v6.4h2.8v-6.4H71v17.5h-4.6v-7.2h-2.8v7.2h-4.6L59.1,391.3"/>
	<path fill="#4589C9" d="M73,391.3h4.6v17.5H73V391.3"/>
	<path fill="#4589C9" d="M79.5,391.3h7.1c3.5,0,4.8,2,4.8,4.7c0,2.3-0.9,3.8-3,4.2v0c2.2,0.2,2.9,1.6,2.9,3.9v1.5
		c0,0.9,0,2.1,0.2,2.4c0.1,0.2,0.2,0.4,0.5,0.5v0.2h-4.9c-0.4-0.9-0.4-2.6-0.4-3.3v-1.2c0-2-0.4-2.5-1.5-2.5h-1.2v7h-4.6V391.3
		 M84.1,398.7H85c1.3,0,1.9-0.8,1.9-2.1c0-1.4-0.6-2-1.9-2h-0.9L84.1,398.7"/>
	<path fill="#4589C9" d="M93.6,391.3h10.4v3.7h-5.8v3h5.4v3.6h-5.4v3.5h6v3.7H93.6L93.6,391.3"/>
	<path fill="#4589C9" d="M114.4,391.3h4.1l1.8,12.1h0l1.2-12.1h4.4l-3,17.5h-5l-1.5-11.8h-0.1l-1.5,11.8h-5l-3-17.5h4.4l1.4,12.1h0
		L114.4,391.3"/>
	<path fill="#4589C9" d="M129.3,391.3h5.7l4.3,17.5h-4.8l-0.5-3.1h-3.6l-0.5,3.1H125L129.3,391.3 M132.2,394.8L132.2,394.8l-1.3,7.4
		h2.5L132.2,394.8"/>
	<path fill="#4589C9" d="M137.7,391.3h4.9l1.8,13.2h0l1.8-13.2h4.9l-3.8,17.5h-5.9L137.7,391.3"/>
	<path fill="#4589C9" d="M151.9,391.3h10.4v3.7h-5.8v3h5.4v3.6h-5.4v3.5h6v3.7h-10.6L151.9,391.3L151.9,391.3z"/>
	<path fill="#4589C9" d="M170.9,396.3v-0.4c0-1-0.4-1.9-1.3-1.9c-1,0-1.4,0.8-1.4,1.5c0,3.5,7.4,1.8,7.4,8.2c0,3.7-2.2,5.4-6.2,5.4
		c-3.8,0-5.9-1.3-5.9-4.9v-0.6h4.4v0.4c0,1.5,0.6,2,1.5,2c0.9,0,1.5-0.7,1.5-1.7c0-3.5-7.1-1.7-7.1-7.9c0-3.5,1.9-5.5,5.7-5.5
		c4,0,5.7,1.6,5.7,5.4L170.9,396.3L170.9,396.3z"/>
</g>
<g>
	<defs>
		<path id="SVGID_1_" d="M12.8,396.3v-0.4c0-1-0.4-1.9-1.3-1.9c-1,0-1.4,0.8-1.4,1.5c0,3.5,7.4,1.8,7.4,8.2c0,3.7-2.2,5.4-6.2,5.4
			c-3.8,0-5.9-1.3-5.9-4.9v-0.6h4.4v0.4c0,1.5,0.6,2,1.5,2c0.9,0,1.5-0.7,1.5-1.7c0-3.5-7.2-1.7-7.2-7.9c0-3.5,1.9-5.5,5.7-5.5
			c4,0,5.7,1.6,5.7,5.4L12.8,396.3L12.8,396.3z M22,391.3h5.7l4.3,17.5h-4.9l-0.5-3.1h-3.6l-0.5,3.1h-4.8L22,391.3 M24.9,394.8
			L24.9,394.8l-1.3,7.4h2.5L24.9,394.8 M32.6,391.3h6.8c3.5,0,5,2.3,5,5.4c0,3.6-2,5.4-5.7,5.4h-1.6v6.7h-4.6L32.6,391.3
			 M37.2,398.8H38c1.1,0,1.8-0.7,1.8-2.1c0-1.4-0.6-2.1-1.8-2.1h-0.9V398.8 M45.8,391.3h6.8c3.5,0,5,2.3,5,5.4c0,3.6-2,5.4-5.7,5.4
			h-1.6v6.7h-4.6L45.8,391.3 M50.3,398.8h0.9c1.1,0,1.8-0.7,1.8-2.1c0-1.4-0.6-2.1-1.8-2.1h-0.9V398.8 M59.1,391.3h4.6v6.4h2.8v-6.4
			H71v17.5h-4.6v-7.2h-2.8v7.2h-4.6V391.3 M73,391.3h4.6v17.5H73V391.3 M79.5,391.3h7.1c3.5,0,4.8,2,4.8,4.7c0,2.3-0.9,3.8-3,4.2v0
			c2.2,0.2,2.9,1.6,2.9,3.9v1.5c0,0.9,0,2.1,0.2,2.4c0.1,0.2,0.2,0.4,0.5,0.5v0.2h-4.9c-0.4-0.9-0.4-2.6-0.4-3.3v-1.2
			c0-2-0.4-2.5-1.5-2.5h-1.2v7h-4.6L79.5,391.3 M84.1,398.7H85c1.3,0,1.9-0.8,1.9-2.1c0-1.4-0.6-2-1.9-2h-0.9L84.1,398.7
			 M93.6,391.3h10.4v3.7h-5.8v3h5.4v3.6h-5.4v3.5h6v3.7H93.6L93.6,391.3 M114.4,391.3h4.1l1.8,12.1h0l1.2-12.1h4.4l-3,17.5h-5
			l-1.5-11.8h-0.1l-1.5,11.8h-5l-3-17.5h4.4l1.4,12.1h0L114.4,391.3 M129.3,391.3h5.7l4.3,17.5h-4.8l-0.5-3.1h-3.6l-0.5,3.1H125
			L129.3,391.3 M132.2,394.8L132.2,394.8l-1.3,7.4h2.5L132.2,394.8 M137.7,391.3h4.9l1.8,13.2h0l1.8-13.2h4.9l-3.8,17.5h-5.9
			L137.7,391.3 M151.9,391.3h10.4v3.7h-5.8v3h5.4v3.6h-5.4v3.5h6v3.7h-10.6L151.9,391.3L151.9,391.3z M170.9,396.3v-0.4
			c0-1-0.4-1.9-1.3-1.9c-1,0-1.4,0.8-1.4,1.5c0,3.5,7.4,1.8,7.4,8.2c0,3.7-2.2,5.4-6.2,5.4c-3.8,0-5.9-1.3-5.9-4.9v-0.6h4.4v0.4
			c0,1.5,0.6,2,1.5,2c0.9,0,1.5-0.7,1.5-1.7c0-3.5-7.1-1.7-7.1-7.9c0-3.5,1.9-5.5,5.7-5.5c4,0,5.7,1.6,5.7,5.4L170.9,396.3
			L170.9,396.3z"/>
	</defs>
	<clipPath id="SVGID_2_">
		<use xlink:href="#SVGID_1_"  overflow="visible"/>
	</clipPath>
	<path clip-path="url(#SVGID_2_)" fill="#293679" d="M177.3,394.6c-16.7,8.7-46.8,8.5-70.4,6.1c-26.6-2.8-31.7-2-45.9-2
		c-14.2,0-17.7,6.2-57.2-4.6v15.1h173.5L177.3,394.6"/>
</g>
</svg>
