<svg xmlns="http://www.w3.org/2000/svg" viewBox="0 0 174.9 60" enable-background="new 0 0 174.9 60"><g fill="#fff"><path d="m119.9 0h-70.8c-1 0-1.8.8-1.8 1.8v48.9c0 1 .8 1.8 1.8 1.8h26.6v4.2c0 .1 0 .1 0 .2h-3.7c-.9 0-1.6.7-1.6 1.6 0 .9.7 1.6 1.6 1.6h26c.9 0 1.6-.7 1.6-1.6 0-.9-.7-1.6-1.6-1.6h-3.8c0-.1 0-.1 0-.2v-4.2h25.8c1 0 1.8-.8 1.8-1.8v-48.9c-.1-1-.9-1.8-1.9-1.8m-3.2 43c0 1-.8 1.8-1.8 1.8h-60.8c-1 0-1.8-.8-1.8-1.8v-37.1c0-1 .8-1.8 1.8-1.8h60.9c1 0 1.8.8 1.8 1.8v37.1z"/><path d="m158.7 12.9l-1.7 10.4c-.7 0-1.4 0-2.2-.1l1.2-7.6h-20.9l5.5 34.3h10l3.4-21.6c.7 0 1.5.1 2.1.3l-3.8 24h-13.5l-6.3-39.6h26.2z"/><path d="m131.9 30.8c.3.4.4.9.2 1.3-.2.5-.3 1.1-.2 1.7v.2c.1.6.3 1.1.7 1.5.3.4.4.9.2 1.3-.2.5-.3 1.1-.2 1.7v.2c.1.6.3 1.1.7 1.5.3.4.4.9.2 1.3-.2.5-.3 1.1-.2 1.7v.2c.2 1.6 1.5 2.6 2.8 2.4l.7-.1c.2 0 .5.1.7.2.3-.3.7-.4 1.1-.4l-3.2-21.5c-.5-.2-.8-.5-1.2-.9l.3 1.6c.1.5-.2.9-.6 1-.4.1-.7.1-.7.1-1.3.2-2.2 1.6-1.9 3.2v.2c0 .6.2 1.1.6 1.6m2.7 12.1c-.1-.9.3-1.7 1-1.9l.6-.1c.3-.1.7.3.7.7l.3 1.9c.1.5-.1.9-.5.9-.3.1-.6.1-.6.1-.7.1-1.3-.6-1.5-1.5v-.1m-.8-4.7c-.1-.9.3-1.8 1-1.9l.6-.1c.3-.1.7.3.7.7l.3 1.9c.1.5-.1.9-.5.9-.3.1-.6.1-.6.1-.7.1-1.3-.6-1.5-1.5v-.1m-.7-4.7c-.1-.9.3-1.7 1-1.9l.6-.1c.3-.1.7.3.7.7l.3 1.9c.1.5-.1.9-.5.9s-.6.1-.6.1c-.7.1-1.3-.6-1.5-1.5v-.1m-.8-4.7c-.1-.9.3-1.8 1-1.9l.6-.1c.3-.1.7.3.7.7l.3 1.9c.1.5-.1.9-.5.9-.3.1-.6.1-.6.1-.7.1-1.3-.6-1.5-1.5v-.1"/><path d="m154 20.9l-.1.7-1.4-.2c-.2 0-.4 0-.6 0-1.8 0-3.3 1.3-3.6 3.1l-.1.4c-.3 2 1.1 3.9 3.1 4.2 0 0 .7.1 1.5.2l-2.8 19.4h-8.8l-4-27.7h16.8z"/><path d="m159.4 20.5c1.4.3 2.2 1.4 2.6 2.2.2.4 0 .7-.5.6l-9.1-1.4c-1.7-.3-3.2.9-3.5 2.5l-.1.4c-.3 1.7.9 3.2 2.5 3.5 0 0 5 .8 5.1.8s.1.4.1.8c0 .6.1 1.1.1 1.6.1.4.1.7.1.7 0 0-.1.3-.1.7l-1.8 11.8c-.1.8-.8 1.3-1.6 1.2l-.4-.1c0 .4-.1.7-.3 1 .2.1.4.3.6.4 2.5 2.8 5.9 3.7 8.2 4.1.2 0 .4.1.6.1.3 0 .6.3.5.7-.1.4-.1.6-.1.6 0 .3.2.5.4.6.3 0 .6-.2.6-.4l.3-1.9c0-.2 0-.3-.1-.4-.1-.1-.2-.2-.4-.2-.1 0-.8 0-1.8-.2-1.8-.3-4.5-1-6.7-3.1-.3-.3-.2-.6.1-.9.5-.3.9-.9 1-1.5l1.5-10c.1-.4.2-.4.4-.1 2.5 4.9 8.3 6.5 8.4 6.5 0 0 .1 0 .1 0 .3 0 .6-.1.7-.4 0-.2 0-.3-.1-.5-.1-.1-.2-.2-.4-.3-.3-.1-7.1-2-8.4-8.2-.1-.4-.1-1.1 0-1.5v-.2c.1-.4.5-.7.9-.6l1.6.2c.3.1.6-.2.7-.5.1-.3-.2-.6-.5-.7l-9-1.4c-1-.2-1.7-1.1-1.5-2.1l.1-.4c.2-1 1.1-1.7 2.1-1.5l10 1.5c1.7.3 3.7 1.7 4.5 3.3l5.1 10.6c.8 1.7 1.6 4.2 1.7 5.7l.2 2.3c0 .4.3.7.7.7.3 0 .6-.4.5-.8l-.2-2.3c-.1-1.6-.9-4.4-1.8-6.1l-5.1-10.6c-.6-1.3-2-2.5-3.5-3.3-.4-.2-.8-.6-.9-1-.4-1.1-1.2-2.6-3-3.5 0 0-2.3-1.1-3.1-.8-.9.4-.9 1.1 2 1.8"/><path d="m1.5 38.8c1.5 3.1 3.8 5.6 6.2 6.7 1.1 3.9 2.3 6.3 3.5 7.3l.2.2h17l.2-.2c4.4-3.2 6.5-25.7 6.5-30.8v-.8h-30.8v.8c0 .8.1 2 .2 3.4-.4.1-.8.2-1.1.4-1.8.8-2.9 2.7-3.2 5.2-.4 2.4.1 5.2 1.3 7.8m10.6 12.6c-3.3-3.1-6-21.7-6.2-28.6h27.7c-.2 7.1-2.4 25.6-5.7 28.6h-15.8m-4.9-8c-1.7-1.2-3.2-3-4.3-5.2-1.1-2.3-1.6-4.7-1.4-6.8.2-2.1 1.1-3.5 2.4-4.2.3-.1.5-.2.7-.2.4 4.4 1.3 11 2.6 16.4"/><path d="m32.4 26.9c-.7 9-2.6 22-4.9 24h-15c-2.3-2-4.6-15-5.4-24h25.3"/></g></svg>