<svg xmlns="http://www.w3.org/2000/svg" viewBox="0 0 91 63.2" enable-background="new 0 0 91 63.2"><g fill="#fff"><path d="m63.7 20l6.6 41.4h14.1l6.6-41.4h-27.3m18.9 38.6h-10.5l-5.7-35.8h21.9l-5.7 35.8"/><path d="m73.1 57.2l-4.2-27h17.6l-4.2 27z"/><path d="m52.9 59.2h-4s.1-1.2.1-1.3v-2.7h18.6l-1.3-8h-59.2c-1 0-1.1-2.5-1.1-3.5v-38.8c0-1 .1.2 1.1.2h63.6c1 0 2.4-1.2 2.4-.2v15.2h5v-19.5c0-1-1.2-.4-2.2-.4h-74c-1 0-1.9-.6-1.9.4v51c0 1 .9 3.5 1.9 3.5h28.1v2.7c0 .1-.3 1.3-.3 1.3h-4c-.9 0-1.7 1.1-1.7 2s.8 2 1.7 2h27.2c.9 0 1.7-1.1 1.7-2 0-.9-.8-1.9-1.7-1.9"/></g><path fill="none" stroke="#fff" stroke-miterlimit="10" d="m59.5 29.7c0 1.1-.9 2-2 2h-37c-1.1 0-2-.9-2-2v-11c0-1.1.9-2 2-2h37c1.1 0 2 .9 2 2v11z"/><text transform="translate(21.376 27.844)" fill="#fff" font-family="&apos;ArialMT&apos;" font-size="10.398">START</text></svg>