<svg xmlns="http://www.w3.org/2000/svg" viewBox="0 0 137 64.3" enable-background="new 0 0 137 64.3"><g fill="#fff"><circle cx="115" cy="11" r="9.5"/><path d="m84.6 32.1c4.3.5 8.7 1.1 13 1.2-2.5 11.1-3.5 19.4-4.7 30.3 0 .2 0 .7 0 .7h21.2l.1-.6c.9-8.2 1.5-14.2 3.1-21.6 3.6 4.2 7 8.5 10.2 13.1 4.2 6 12.6-1.6 8.5-7.5-6.2-8.9-13.3-17-21-24.5-1.2-1.2-2.5-1.7-3.9-1.7-1-.5-2.3-.7-3.7-.3-5.6 1.4-11.4 1-17.2.3-.3-3.4-.2-5.9.5-9.7l12.1-1.6.5-.1.5-.1-2-9.7-.5.1-.5.1-12 3.4c-2.9-2.3-7.6-2.2-8.5 2.4-1.8 8.5-1.8 12.9-.8 21.5.3 2.3 2.7 4 5.1 4.3m16.3-30.9l1.6 7.7-1.3.2.1-.1c0 0-2.1-2.4-4.7-2.6-2.6-.2-.7-2-3.1-2.8-.2 0-.3-.1-.5-.1l7.9-2.3"/><path d="M0,21.1l6.7,42H21l6.7-42L0,21.1z M19.1,60.2H8.5L2.8,23.9h22.2L19.1,60.2z"/><path d="m9.3 60.3l-4.1-30h17.1l-4 30z"/><path d="m68.4 39.9c-.3-2.6-1.5-4.6-3.4-5.4-.4-.2-.8-.3-1.2-.4.1-1.5.2-2.7.2-3.6v-.8h-32.4v.8c0 5.4 2.2 29 6.8 32.3l.2.2h17.8l.2-.2c1.3-1 2.5-3.5 3.7-7.6 2.6-1.2 5-3.8 6.5-7 1.4-2.7 2-5.7 1.6-8.3m-29.2 21.5c-3.4-3.1-5.7-22.5-5.9-30h29.1c-.2 7.3-3 26.8-6.5 30h-16.7m24.5-25.6c.2.1.4.1.6.2 1.4.7 2.3 2.2 2.5 4.4.2 2.2-.3 4.7-1.4 7.2-1.1 2.3-2.7 4.3-4.5 5.5 1.4-5.7 2.3-12.6 2.8-17.3"/><path d="m34.8 36.3c.7 10 2.8 22 5.1 25h15.8c2.5-3 4.9-16 5.7-25h-26.6"/></g></svg>