<svg xmlns="http://www.w3.org/2000/svg" viewBox="0 0 60 60" enable-background="new 0 0 60 60"><path fill="#8dacc9" d="m24.63 49.07c-1.127 0-2.118-.92-2.201-2.044 0 0-1.045-14.15-1.318-18.2-.273-4.049-1.934-16.387-1.934-16.387-.045-.335.195-.609.533-.609h20.578c.338 0 .578.274.533.609 0 0-1.66 12.339-1.934 16.387-.273 4.049-1.318 18.2-1.318 18.2-.083 1.124-1.073 2.044-2.201 2.044h-10.738m8.54-7.687c1.744 0 3.278-1.472 3.409-3.271 0 0 .513-7.03.673-9.395.225-3.333 1.672-14.433 1.672-14.433.058-.447-.263-.813-.714-.813h-16.421c-.451 0-.772.366-.714.813 0 0 1.447 11.1 1.672 14.433.16 2.361.673 9.395.673 9.395.131 1.799 1.665 3.271 3.409 3.271s4.598 0 6.341 0m2.966-21.387h-10.565c.036.482.081 1.087.128 1.783.062.896.128 1.943.191 3.064.064 1.121.12 2.319.168 3.516.019.599.038 1.198.056 1.788.01.591.029 1.171.03 1.733-.001.563.013 1.106-.001 1.623-.012.517-.008 1-.035 1.455-.025.452-.029.864-.069 1.231-.036.367-.052.686-.091.95-.082.527-.129.828-.129.828-.017.11-.12.185-.23.168-.106-.017-.18-.113-.169-.218l.002-.021c0 0 .029-.291.081-.801.024-.255.023-.572.038-.931.02-.358.002-.769.002-1.213.002-.444-.027-.928-.044-1.438-.014-.51-.057-1.049-.087-1.606-.032-.557-.082-1.132-.124-1.717-.05-.584-.101-1.178-.153-1.771-.113-1.187-.233-2.373-.357-3.484-.124-1.111-.245-2.147-.356-3.035-.094-.76-.177-1.41-.242-1.905h-.318c-.451 0-.776.366-.723.814 0 0 .709 5.964.834 7.824.145 2.144.657 9.168.657 9.168.09 1.237 1.178 2.249 2.419 2.249h5.9c1.24 0 2.329-1.012 2.419-2.249 0 0 .512-7.02.657-9.168.126-1.859.834-7.824.834-7.824.054-.447-.272-.813-.723-.813"/><g fill="none" stroke="#8dacc9" stroke-width="4" stroke-miterlimit="10"><circle cx="30" cy="30" r="25"/><path d="m12.322 47.678l35.36-35.36"/></g></svg>