<svg xmlns="http://www.w3.org/2000/svg" viewBox="0 0 70 45" enable-background="new 0 0 70 45"><path fill="#77adc6" d="m7.656 43.577c-1.226 0-2.303-1-2.394-2.223 0 0-1.136-15.389-1.434-19.792s-2.102-17.823-2.102-17.823c-.049-.365.212-.663.58-.663h22.381c.368 0 .629.298.58.663 0 0-1.806 13.42-2.103 17.823-.297 4.403-1.434 19.792-1.434 19.792-.09 1.223-1.167 2.223-2.394 2.223h-11.68m9.288-8.36c1.896 0 3.565-1.601 3.708-3.558 0 0 .558-7.65.732-10.218.245-3.625 1.819-15.698 1.819-15.698.063-.486-.286-.884-.776-.884h-17.861c-.49 0-.84.398-.776.884 0 0 1.574 12.07 1.819 15.698.173 2.568.731 10.218.731 10.218.143 1.957 1.811 3.558 3.708 3.558s5 0 6.896 0m3.226-23.261h-11.491c.04.524.088 1.182.139 1.939.068.975.139 2.113.208 3.333.069 1.22.13 2.522.183 3.824.021.652.041 1.303.061 1.945.011.642.031 1.273.033 1.885-.001.612.014 1.202-.001 1.765-.013.562-.009 1.091-.038 1.583-.027.491-.031.939-.075 1.339-.039.399-.057.746-.099 1.033-.09.573-.141.901-.141.901-.019.119-.131.201-.25.182-.115-.018-.195-.123-.184-.238l.002-.023c0 0 .032-.317.088-.871.026-.277.025-.622.042-1.012.022-.39.002-.836.002-1.319.003-.483-.03-1.01-.047-1.564-.015-.555-.062-1.141-.094-1.747-.035-.606-.089-1.232-.135-1.867-.055-.635-.11-1.281-.166-1.927-.123-1.291-.253-2.581-.388-3.789-.134-1.208-.267-2.335-.387-3.3-.102-.827-.193-1.533-.263-2.072h-.347c-.491 0-.844.398-.787.886 0 0 .771 6.487.907 8.509.158 2.332.714 9.971.714 9.971.098 1.345 1.282 2.446 2.63 2.446h6.417c1.349 0 2.533-1.101 2.63-2.446 0 0 .556-7.639.714-9.971.137-2.02.907-8.509.907-8.509.06-.487-.294-.886-.784-.886"/><path fill="none" stroke="#77adc6" stroke-width="3" stroke-linecap="round" stroke-linejoin="round" d="m29.648 6.664l7.993 17.874 12.689-9.108 11.3 17.77"/><path fill="#77adc6" d="m67.47 42.36c-4.345-3.294-10.48-6.907-15.482-8.384l8.885-1.984 5.558-7.207c-.782 5.157-.107 12.245 1.039 17.575"/><g fill="#e5f8ff" stroke="#77adc6" stroke-width="2" stroke-miterlimit="10"><circle cx="37.643" cy="23.945" r="2.608"/><circle cx="50.33" cy="15.578" r="2.608"/></g></svg>