<svg xmlns="http://www.w3.org/2000/svg" viewBox="322.4 276.6 29.4 28" enable-background="new 322.4 276.6 29.4 28"><path fill="#4d9bff" d="m330.7 304.1c-.4 0-.8-.2-1-.6-.6-.9-1.4-2.2-1.7-2.8l-.2-.3c-1.2-2.2-1.9-3.2-2.5-4.3-.6-1-1.2-2.1-2.3-4-.1-.2-.1-.5 0-.7.1-.2.4-.3.6-.3.1 0 .3 0 .4.1l3.3 1.4c1.2.5 2.3 1 3.6 1.6l8.8-8.3 8.9-8.3c.4-.3.8-.5 1.3-.5.6 0 1.1.2 1.3.6.1.3.1.6-.1.9-10.4 12-16.1 19.2-19.4 24.8-.2.4-.6.7-1 .7"/><path fill="#13548b" d="m349.9 277.6c.6 0 1.1.3.8.7-10.5 12.2-16.1 19.3-19.4 24.9-.1.3-.4.4-.6.4-.2 0-.5-.1-.6-.4-.7-1.2-1.9-3-1.9-3.1-2.4-4.2-2.5-4.3-4.7-8.3-.1-.2 0-.3.2-.3 0 0 .1 0 .1 0 2.5 1.1 4.5 1.9 6.9 3 .1 0 .2.1.2.1.1 0 .2 0 .3-.1 6-5.6 11.8-11 17.7-16.6.3-.2.7-.3 1-.3m0-1c-.6 0-1.2.2-1.7.6-3 2.8-5.9 5.6-8.9 8.3-2.8 2.7-5.7 5.3-8.6 8-1.2-.5-2.3-1-3.3-1.4-1.1-.5-2.1-.9-3.3-1.4-.2-.1-.4-.1-.6-.1-.4 0-.8.2-1 .6-.2.4-.2.8 0 1.2 1.1 1.9 1.7 3 2.3 4 .6 1.1 1.2 2.2 2.5 4.3l.2.3c.4.6 1.1 1.9 1.7 2.8.3.5.9.8 1.5.8.6 0 1.1-.3 1.4-.9 3.3-5.6 8.9-12.8 19.3-24.7.3-.4.4-1 .1-1.4-.1-.7-.8-1-1.6-1z"/></svg>