<svg xmlns="http://www.w3.org/2000/svg" viewBox="0 0 45 45" enable-background="new 0 0 45 45"><path fill="#70b4e3" d="m32.874 25.19c.221-.861.352-1.758.352-2.687 0-1.031-.153-2.025-.423-2.97l3.127-1.843-2.734-4.636-3.119 1.84c-1.339-1.338-3.03-2.313-4.922-2.8v-3.634h-5.378v3.635c-1.986.512-3.748 1.57-5.113 3.01l-3.179-1.76-2.607 4.708 3.179 1.76c-.221.861-.352 1.758-.352 2.687 0 1.031.153 2.025.423 2.97l-3.128 1.842 2.734 4.636 3.119-1.84c1.339 1.338 3.03 2.313 4.922 2.8v3.635h5.378v-3.635c1.986-.512 3.748-1.57 5.113-3.01l3.179 1.76 2.607-4.708-3.178-1.76m-10.409 1.981c-2.577 0-4.668-2.09-4.668-4.668s2.091-4.668 4.668-4.668 4.668 2.09 4.668 4.668-2.091 4.668-4.668 4.668"/><path fill="none" stroke="#70b4e3" stroke-width="2" stroke-miterlimit="10" d="m42.05 36.14c0 2.75-2.25 5-5 5h-29.09c-2.75 0-5-2.25-5-5v-27.28c0-2.75 2.25-5 5-5h29.09c2.75 0 5 2.25 5 5v27.28z"/></svg>