<svg xmlns="http://www.w3.org/2000/svg" viewBox="0 0 27.8 28.8" enable-background="new 0 0 27.8 28.8"><g fill="none" stroke-miterlimit="10"><path stroke="#fff" d="m27.3 14.9c0 7.4-6 13.4-13.4 13.4-7.4 0-13.4-6-13.4-13.4 0-7.4 6-13.4 13.4-13.4 7.4 0 13.4 6 13.4 13.4zm-4.4-9l.1 5.2-.1.1-3.5-1.7-1.7-3.5.1-.1h5.1zm-3.5 3.5l2.3 5.5-2.3 5.5-5.5 2.3-5.5-2.3-2.3-5.5 2.3-5.5 5.5-2.3 5.5 2.3zm3.5 1.8l-1.2 3.7-2.3-5.5 3.5 1.8zm-1.3 3.7l1.2 3.7-3.5 1.7 2.3-5.4zm-2.2 5.5l-1.7 3.5-3.7-1.2 5.4-2.3zm-5.5 2.2l-3.7 1.2-1.7-3.5 5.4 2.3zm-7.7-7.7l2.3 5.5-3.5-1.7 1.2-3.8zm2.2-5.5l-2.3 5.5-1.2-3.7 3.5-1.8zm5.5-2.2l-5.5 2.2 1.7-3.5 3.8 1.3zm3.7-1.3l1.7 3.5-5.5-2.3 3.8-1.2zm5.4 5.2l3.6 3.8-3.6 3.8-.1-.1-1.2-3.7 1.2-3.7.1-.1zm0 7.6l-.1 5.2-5.2.1-.1-.1 1.7-3.5 3.5-1.7h.2zm-5.3-12.9l-.1.1-3.7 1.2-3.7-1.2-.1-.1 3.8-3.6 3.8 3.6zm-.1 18.1l.1.1-3.8 3.6-3.8-3.6.1-.1 3.7-1.2 3.7 1.2zm-7.5-18.1l.1.1-1.8 3.5-3.5 1.7-.1-.1.1-5.2h5.2zm-1.7 14.6l1.7 3.5v.1l-5.2-.1-.1-5.2.1-.1 3.5 1.8zm-3.5-9.2l1.2 3.7-1.2 3.7-.1.1-3.6-3.8 3.6-3.8.1.1z"/><path stroke="#5f320e" d="m27.3 13.9c0 7.4-6 13.4-13.4 13.4-7.4 0-13.4-6-13.4-13.4 0-7.4 6-13.4 13.4-13.4 7.4 0 13.4 6 13.4 13.4zm-4.4-9l.1 5.2-.1.1-3.5-1.7-1.7-3.5.1-.1h5.1zm-3.5 3.5l2.3 5.5-2.3 5.5-5.5 2.3-5.5-2.3-2.3-5.5 2.3-5.5 5.5-2.3 5.5 2.3zm3.5 1.8l-1.2 3.7-2.3-5.5 3.5 1.8zm-1.3 3.7l1.2 3.7-3.5 1.7 2.3-5.4zm-2.2 5.5l-1.7 3.5-3.7-1.2 5.4-2.3zm-5.5 2.2l-3.7 1.2-1.7-3.5 5.4 2.3zm-7.7-7.7l2.3 5.5-3.5-1.7 1.2-3.8zm2.2-5.5l-2.3 5.5-1.2-3.7 3.5-1.8zm5.5-2.2l-5.5 2.2 1.7-3.5 3.8 1.3zm3.7-1.3l1.7 3.5-5.5-2.3 3.8-1.2zm5.4 5.2l3.6 3.8-3.6 3.8-.1-.1-1.2-3.7 1.2-3.7.1-.1zm0 7.6l-.1 5.2-5.2.1-.1-.1 1.7-3.5 3.5-1.7h.2zm-5.3-12.9l-.1.1-3.7 1.2-3.7-1.2-.1-.1 3.8-3.6 3.8 3.6zm-.1 18.1l.1.1-3.8 3.6-3.8-3.6.1-.1 3.7-1.2 3.7 1.2zm-7.5-18.1l.1.1-1.8 3.5-3.5 1.7-.1-.1.1-5.2h5.2zm-1.7 14.6l1.7 3.5v.1l-5.2-.1-.1-5.2.1-.1 3.5 1.8zm-3.5-9.2l1.2 3.7-1.2 3.7-.1.1-3.6-3.8 3.6-3.8.1.1z"/></g></svg>