<svg xmlns="http://www.w3.org/2000/svg" xmlns:xlink="http://www.w3.org/1999/xlink" viewBox="0 0 30 30" enable-background="new 0 0 30 30"><symbol id="0" viewBox="-13.281 -14.035 26.563 28.07"><path fill="#14558c" d="m-13.281 3.574v-17.609h26.563l-.045 17.525c-.002.99-8.513 10.545-10.08 10.545h-6.144c-1.65 0-10.292-9.528-10.292-10.461"/><path fill="#fff" d="m-3.112-5.113l-9.624-7.883 9.993 6.9h6.479l8.922-6.813-8.523 7.796h-7.247"/><path fill="#fff" d="m-12.829 3.637l8.274-10.285.768.614-9.04 9.671"/><path fill="#fff" d="m-7.766-.32l15.264 4.274 1.455-3.02-4.723-5.05c-.032.003-.063.005-.095.005h-7.247c-.231 0-.455-.08-.634-.227l-.146-.119-3.874 4.139"/><path fill="#fff" d="m12.209 2.945l-7.15-9.07-.767.614 7.917 8.461"/></symbol><use xlink:href="#0" width="26.563" height="28.07" x="-13.281" y="-14.04" transform="matrix(1 0 0-1 15.04 14.598)"/></svg>