<svg xmlns="http://www.w3.org/2000/svg" viewBox="0 0 26 27" enable-background="new 0 0 26 27"><g fill="#fff"><path d="m22 2h-2v4h-4v2h4v4h2v-4h4v-2h-4z"/><path d="m11.412 18.671c-.807-.606-2.564-1.847-2.564-2.68 0-.977.279-1.458 1.749-2.606 1.507-1.178 2.573-2.632 2.573-4.557 0-2.098-.858-3.828-2.471-4.828h2.286l1.946-2c0 0-6.431 0-8.708 0-2.48 0-4.728.791-6.223 2.324v9.09c1.119 1.101 2.706 1.775 4.696 1.775.289 0 .569-.015.844-.035-.27.517-.462 1.093-.462 1.697 0 1.018.56 1.598 1.252 2.272-.523 0-1.028.014-1.58.014-1.811 0-3.422.451-4.751 1.177v2.741c1.019-1.694 3.31-2.918 5.898-2.89.816.009 1.576.14 2.267.363 1.898 1.32 3.43 2.144 3.814 3.649.072.304.111.618.111.939 0 .673-.111 1.309-.355 1.883h2.49c.369-.724.569-1.488.569-2.255 0-2.636-.569-3.963-3.381-6.072m-5.03-4.813c-2.347-.071-4.578-2.224-4.983-5.306-.405-3.083 1.169-5.441 3.515-5.372 2.346.07 4.354 2.599 4.759 5.681.406 3.083-.945 5.067-3.291 4.997"/></g></svg>