<svg xmlns="http://www.w3.org/2000/svg" viewBox="0 0 52 52" enable-background="new 0 0 52 52"><g fill="#fff"><path d="m19.8 21.8c-.5-3.8-3.2-6.8-6.1-6.9-2.9-.1-4.8 2.8-4.3 6.6.5 3.8 3.2 6.9 6.1 7 2.9 0 4.8-3 4.3-6.7"/><path d="m22.5 41.8c0-.4 0-.8-.1-1.2-.5-1.8-2.1-2.8-4.5-4.4-.8-.3-1.8-.4-2.8-.4-4.3 0-8.1 2.6-8.1 5.8 0 .2 0 .4 0 .5 1.8 2.1 4 4 6.5 5.4.3 0 .6 0 .9 0 6 .1 8.1-2.4 8.1-5.7"/><path d="m26 1c-13.8 0-25 11.2-25 25 0 4.7 1.3 9 3.5 12.7 1.9-2.3 5.3-4 9.4-4 .7 0 1.3 0 1.9 0-.9-.8-1.5-1.9-1.5-3.1 0-.7.2-1.5.6-2.1-.3 0-.7 0-1 0-5.1 0-8.5-3.8-8.5-8.3 0-4.4 4.7-8.5 9.7-8.5 2.8 0 11.2 0 11.2 0l-2.5 2.3h-3.5c2.4.6 3.6 3.7 3.6 6.5 0 2.4-1.3 4.4-3.2 5.9-1.8 1.4-2.1 2-2.1 3.2 0 1 1.9 2.8 2.9 3.5 3 2.1 3.9 4 3.9 7.3 0 3.5-3 7.1-8.5 7.9 2.8 1.1 5.9 1.7 9.2 1.7 13.8 0 25-11.2 25-25-.1-13.8-11.3-25-25.1-25m13.2 21.8v7h-3.5v-7h-7v-3.5h7v-7h3.5v7h7v3.5h-7"/></g></svg>