<svg xmlns="http://www.w3.org/2000/svg" xmlns:xlink="http://www.w3.org/1999/xlink" viewBox="0 0 30 30" enable-background="new 0 0 30 30"><symbol id="0" viewBox="-11 -13.5 22 27"><path fill="#70b4e3" d="M8.938,3.5H8v4.714C8,11.247,5.532,13.5,2.5,13.5h-5c-3.033,0-5.5-2.253-5.5-5.286V3.5h-0.938
		C-10.042,3.5-11,2.667-11,1.563V-11c0-1.105,0.958-2.5,2.062-2.5H8.938C10.042-13.5,11-12.105,11-11V1.563
		C11,2.667,10.042,3.5,8.938,3.5z M-5,8.214C-5,9.593-3.878,10.5-2.5,10.5h5C3.879,10.5,5,9.593,5,8.214V3.5H-5V8.214z M-2.875-11.5
		l1.139,6.336C-2.857-4.547-3.625-3.369-3.625-2c0,2.002,1.623,3.625,3.625,3.625S3.625,0.002,3.625-2
		c0-1.369-0.768-2.547-1.889-3.164L2.875-11.5H-2.875z"/></symbol><use xlink:href="#0" width="22" height="27" x="-11" y="-13.5" transform="matrix(1 0 0-1 15 15)"/></svg>