<svg width="251.79" xmlns="http://www.w3.org/2000/svg" height="83.33" viewBox="0 0 251.791 83.331" enable-background="new 0 0 251.791 83.331"><g fill="#fff"><path d="m184.57 34.497l-1.739 10.305h3.541l-1.737-10.305z"/><path d="m119.04 34.08h-1.232v5.714h1.266c1.802 0 2.65-1.153 2.65-2.896 0-1.962-.791-2.818-2.684-2.818"/><path d="m72.14 34.08h-1.201v5.923h1.201c1.593 0 2.449-.928 2.449-2.969 0-1.995-.857-2.954-2.449-2.954"/><path d="m53.865 34.08h-1.188v5.923h1.188c1.593 0 2.449-.928 2.449-2.969 0-1.995-.856-2.954-2.449-2.954"/><path d="m35.595 34.497l-1.731 10.305h3.541l-1.739-10.305z"/><path d="m245.31 25.02h-80.27c-6.416-14.719-21.09-25.01-38.17-25.02-.013 0-.013 0-.018 0-17.1 0-31.796 10.292-38.21 25.02h-82.15c-3.564 0-6.481 2.917-6.481 6.481v20.344c0 3.564 2.917 6.481 6.481 6.481h82.14c6.429 14.716 21.11 24.996 38.2 25.01 0 0 0 0 .026 0 17.09 0 31.775-10.293 38.19-25.01h80.27c3.564 0 6.481-2.917 6.481-6.481v-20.344c0-3.564-2.918-6.481-6.482-6.481m-146.49-11.374l16.301-.272 11.724-11.323 11.716 11.323 16.294.272.193 11.374h-10.562l-.668-.33-5.423-10.913-11.549 3.88-11.567-3.88-5.429 10.913-.666.33h-10.552l.188-11.374m46.06 25.2v4.97h-7.552v4.835h8.374v5.166h-14.69v-24.277h14.38v5.165h-8.06v4.141h7.551m-25.404 5.243h-1.668v9.728h-6.324v-24.277h9.896c4.836 0 6.669 2.714 6.669 6.455 0 3.227-1.256 5.346-4.146 5.781v.07c3.063.273 3.979 2.21 3.979 5.438v2.086c0 1.245 0 2.884.305 3.364.167.273.303.546.718.745v.337h-6.742c-.614-1.29-.614-3.603-.614-4.627v-1.622c0-2.759-.542-3.478-2.073-3.478m-10.752-14.549v24.277h-.87-5.449v-10.908-2.475-10.894h5.436.883m-91.91 24.756c-5.238 0-8.165-1.802-8.165-6.831v-.855h6.123v.582c0 2.074.856 2.814 2.073 2.814 1.298 0 2.042-1.01 2.042-2.345 0-4.79-9.922-2.419-9.922-11.02 0-4.899 2.611-7.581 7.951-7.581 5.517 0 7.857 2.274 7.857 7.478h-5.92v-.577c0-1.424-.582-2.626-1.802-2.626-1.358 0-1.974 1.064-1.974 2.146 0 4.802 10.343 2.449 10.343 11.335 0 5.165-3.034 7.479-8.606 7.479m21.97-.479l-.642-4.252h-5.04l-.64 4.252h-6.742l5.925-24.277h7.959l5.917 24.277h-6.74m16.09-9.249h-2.204v9.249h-6.332v-24.277h9.492c4.825 0 7.01 3.227 7.01 7.473 0 4.97-2.821 7.555-7.962 7.555m18.278 0h-2.225v9.249h-6.319v-24.277h9.489c4.836 0 7.01 3.227 7.01 7.473 0 4.97-2.84 7.555-7.958 7.555m20.16 9.249v-5.832-4.169h-3.875v.155 9.845h-2.475-3.857v-24.276h3.857 2.475v8.904h.901 2.974v-3.084-5.82h5.243 1.084v.227 2.456 18.898 2.456.24h-1.084-5.243m61.54 15.872l-16.294.272-11.716 11.335-11.724-11.335-16.301-.272-.188-11.361h10.552l.666.332 5.429 10.919 11.567-3.889 11.549 3.889 5.423-10.919.668-.332h10.562l-.193 11.361m11.852-15.872h-1.794l-1.206-9.3-.841-6.566-.065-.46h-.073l-.031.285-1.167 9-.906 7.04h-5.504-1.431l-.013-.065-1.29-7.537-1.037-6.02-1.822-10.653h4.047 1.546.533l.131 1.082 1.773 15.715h.081l1.645-12.09.635-4.705h5.71l2.475 16.797h.07l.305-2.954 1.392-13.843h6.126l-4.141 24.277h-5.148m21.06 0l-.648-4.252h-5.03l-.661 4.252h-6.726l5.917-24.277h7.959l5.93 24.277h-6.739m17.96 0h-8.16l-5.251-24.277h6.739l2.554 18.294h.07l2.543-18.294h6.739l-5.234 24.277m20.952 0h-14.693v-24.277h14.382v5.165h-8.05v4.141h7.544v4.97h-7.544v4.835h8.361v5.166m9.734.479c-4.883 0-7.752-1.561-8.129-5.845-.031-.312-.039-.642-.039-.986v-.855h6.126v.582c0 2.074.841 2.814 2.068 2.814 1.295 0 2.042-1.01 2.042-2.345 0-4.79-9.936-2.419-9.936-11.02 0-.616.044-1.191.12-1.73.58-3.791 3.17-5.852 7.836-5.852 5.523 0 7.867 2.274 7.867 7.478h-5.927v-.577c0-1.424-.569-2.626-1.802-2.626-1.355 0-1.971 1.064-1.971 2.146 0 4.802 10.343 2.449 10.343 11.335 0 5.166-3.03 7.48-8.598 7.48"/></g></svg>