<svg width="181.13" xmlns="http://www.w3.org/2000/svg" viewBox="0 0 181.131 64" xmlns:xlink="http://www.w3.org/1999/xlink" enable-background="new 0 0 181.131 64"><defs><path id="0" d="m12.823 28.3v-.416c0-1.028-.416-1.885-1.298-1.885-.979 0-1.422.757-1.422 1.543 0 3.452 7.445 1.761 7.445 8.157 0 3.723-2.178 5.387-6.196 5.387-3.771 0-5.878-1.298-5.878-4.922v-.613h4.41v.417c0 1.494.612 2.031 1.494 2.031.93 0 1.469-.733 1.469-1.688 0-3.454-7.152-1.739-7.152-7.936 0-3.525 1.887-5.461 5.73-5.461 3.971 0 5.66 1.642 5.66 5.388h-4.262zm9.208-5.05h5.73l4.263 17.487h-4.851l-.465-3.062h-3.625l-.466 3.062h-4.847l4.261-17.487m2.89 3.575h-.049l-1.247 7.422h2.547l-1.251-7.422m7.691-3.575h6.833c3.477 0 5.05 2.326 5.05 5.387 0 3.577-2.032 5.437-5.73 5.437h-1.593v6.662h-4.555v-17.486m4.554 7.543h.86c1.147 0 1.759-.662 1.759-2.133 0-1.443-.611-2.127-1.759-2.127h-.86v4.26m8.597-7.543h6.833c3.479 0 5.05 2.326 5.05 5.387 0 3.577-2.037 5.437-5.733 5.437h-1.591v6.662h-4.556v-17.486m4.556 7.543h.856c1.148 0 1.764-.662 1.764-2.133 0-1.443-.615-2.127-1.764-2.127h-.856v4.26m8.767-7.543h4.555v6.417h2.793v-6.417h4.555v17.487h-4.555v-7.201h-2.793v7.201h-4.555v-17.487m13.887 0h4.555v17.487h-4.555v-17.487m6.539 0h7.126c3.479 0 4.802 1.96 4.802 4.652 0 2.328-.906 3.846-2.989 4.166v.048c2.206.195 2.868 1.593 2.868 3.919v1.495c0 .905 0 2.082.217 2.424.125.195.223.39.516.538v.247h-4.852c-.44-.932-.44-2.596-.44-3.331v-1.175c0-1.986-.393-2.5-1.494-2.5h-1.199v7.01h-4.555v-17.489m4.554 7.397h.906c1.299 0 1.912-.835 1.912-2.084 0-1.419-.564-2.03-1.936-2.03h-.881v4.114m9.502-7.397h10.361v3.723h-5.806v2.987h5.438v3.576h-5.438v3.48h6.03v3.721h-10.581v-17.487m20.81 0h4.114l1.788 12.1h.048l1.225-12.1h4.41l-2.988 17.487h-4.996l-1.521-11.756h-.05l-1.518 11.756h-4.995l-2.987-17.487h4.407l1.372 12.1h.047l1.644-12.1m14.915 0h5.73l4.262 17.487h-4.849l-.468-3.062h-3.623l-.467 3.062h-4.848l4.263-17.487m2.889 3.575h-.048l-1.249 7.422h2.549l-1.252-7.422m5.535-3.575h4.851l1.836 13.177h.048l1.838-13.177h4.852l-3.771 17.487h-5.878l-3.776-17.487m14.158 0h10.359v3.723h-5.805v2.987h5.436v3.576h-5.436v3.48h6.02v3.721h-10.579v-17.487zm19.05 5.04v-.416c0-1.028-.415-1.885-1.298-1.885-.979 0-1.418.757-1.418 1.543 0 3.452 7.443 1.761 7.443 8.157 0 3.723-2.177 5.387-6.195 5.387-3.773 0-5.877-1.298-5.877-4.922v-.613h4.408v.417c0 1.494.611 2.031 1.492 2.031.932 0 1.468-.733 1.468-1.688 0-3.454-7.148-1.739-7.148-7.936 0-3.525 1.884-5.461 5.73-5.461 3.97 0 5.657 1.642 5.657 5.388h-4.262z"/><clipPath id="1"><use xlink:href="#0"/></clipPath></defs><path fill="#293679" d="m90.57 63c-17.1 0-31-13.906-31-30.999 0-17.09 13.909-31 31-31 17.09 0 31 13.907 31 31 0 17.09-13.906 30.999-31 30.999"/><path fill="#fff" d="m90.57 2c16.564 0 30 13.431 30 30 0 16.568-13.436 29.999-30 29.999-16.572 0-30-13.431-30-29.999 0-16.57 13.433-30 30-30m0-2c-17.647 0-32.01 14.356-32.01 32 0 17.644 14.358 31.999 32.01 31.999 17.645 0 32-14.355 32-31.999 0-17.645-14.355-32-32-32z"/><path fill="#4589c9" d="m110.74 11.825l.196 11.734-.278.116-7.863-3.905-3.906-7.861.117-.279z"/><path fill="#d3e8f8" d="m102.8 19.77l5.064 12.227-5.064 12.232-12.227 5.063-12.229-5.063-5.068-12.232 5.068-12.227 12.229-5.063z"/><g fill="#83b7e3"><path d="m110.66 23.675l-2.799 8.322-5.064-12.227z"/><path d="m107.86 31.997l2.799 8.319-7.863 3.913z"/><path d="m102.8 44.23l-3.906 7.861-8.321-2.798z"/><path d="m90.57 49.29l-8.321 2.798-3.908-7.861z"/><path d="m73.27 31.997l5.068 12.232-7.865-3.913z"/><path d="m78.34 19.77l-5.068 12.227-2.797-8.322z"/><path d="m90.57 14.707l-12.229 5.063 3.908-7.861z"/><path d="m98.89 11.909l3.906 7.861-12.227-5.063z"/></g><g fill="#4589c9"><path d="m110.94 23.559l8.156 8.438-8.156 8.442-.278-.123-2.799-8.319 2.799-8.322z"/><path d="m110.94 40.44l-.196 11.736-11.734.194-.117-.279 3.906-7.861 7.863-3.913z"/><path d="m99.01 11.63l-.117.279-8.321 2.798-8.321-2.798-.114-.279 8.435-8.158z"/><path d="m98.89 52.09l.117.279-8.438 8.159-8.435-8.159.114-.279 8.321-2.798z"/><path d="m82.13 11.63l.114.279-3.908 7.861-7.865 3.905-.279-.116.197-11.734z"/><path d="m78.34 44.23l3.908 7.861-.114.279-11.741-.194-.197-11.736.279-.123z"/><path d="m70.47 23.675l2.797 8.322-2.797 8.319-.279.123-8.157-8.442 8.157-8.438z"/></g><path fill="#fff" d="M181.131,37.752c0,3.431-2.807,6.238-6.24,6.238H6.238C2.807,43.991,0,41.183,0,37.752V26.248    c0-3.431,2.807-6.239,6.238-6.239h168.652c3.434,0,6.24,2.808,6.24,6.239V37.752z"/><g fill="#4589c9"><use xlink:href="#0"/><path d="m12.823 28.3v-.416c0-1.028-.416-1.885-1.298-1.885-.979 0-1.422.757-1.422 1.543 0 3.452 7.445 1.761 7.445 8.157 0 3.723-2.178 5.387-6.196 5.387-3.771 0-5.878-1.298-5.878-4.922v-.613h4.41v.417c0 1.494.612 2.031 1.494 2.031.93 0 1.469-.733 1.469-1.688 0-3.454-7.152-1.739-7.152-7.936 0-3.525 1.887-5.461 5.73-5.461 3.971 0 5.66 1.642 5.66 5.388h-4.262z"/><path d="m22.03 23.257h5.73l4.263 17.487h-4.851l-.465-3.062h-3.625l-.466 3.062h-4.847l4.261-17.487m2.89 3.575h-.049l-1.247 7.422h2.547l-1.251-7.422"/><path d="m32.612 23.257h6.833c3.477 0 5.05 2.326 5.05 5.387 0 3.577-2.032 5.437-5.73 5.437h-1.593v6.662h-4.555v-17.486m4.554 7.543h.86c1.147 0 1.759-.662 1.759-2.133 0-1.443-.611-2.127-1.759-2.127h-.86v4.26"/><path d="m45.763 23.257h6.833c3.479 0 5.05 2.326 5.05 5.387 0 3.577-2.037 5.437-5.733 5.437h-1.591v6.662h-4.556v-17.486m4.556 7.543h.856c1.148 0 1.764-.662 1.764-2.133 0-1.443-.615-2.127-1.764-2.127h-.856v4.26"/><path d="m59.09 23.257h4.555v6.417h2.793v-6.417h4.555v17.487h-4.555v-7.201h-2.793v7.201h-4.555v-17.487"/><path d="m72.973 23.257h4.555v17.487h-4.555v-17.487"/><path d="m79.51 23.257h7.126c3.479 0 4.802 1.96 4.802 4.652 0 2.328-.906 3.846-2.989 4.166v.048c2.206.195 2.868 1.593 2.868 3.919v1.495c0 .905 0 2.082.217 2.424.125.195.223.39.516.538v.247h-4.852c-.44-.932-.44-2.596-.44-3.331v-1.175c0-1.986-.393-2.5-1.494-2.5h-1.199v7.01h-4.555v-17.489m4.554 7.397h.906c1.299 0 1.912-.835 1.912-2.084 0-1.419-.564-2.03-1.936-2.03h-.881v4.114"/><path d="m93.57 23.257h10.361v3.723h-5.806v2.987h5.438v3.576h-5.438v3.48h6.03v3.721h-10.581v-17.487"/><path d="m114.38 23.257h4.114l1.788 12.1h.048l1.225-12.1h4.41l-2.988 17.487h-4.996l-1.521-11.756h-.05l-1.518 11.756h-4.995l-2.987-17.487h4.407l1.372 12.1h.047l1.644-12.1"/><path d="m129.29 23.257h5.73l4.262 17.487h-4.849l-.468-3.062h-3.623l-.467 3.062h-4.848l4.263-17.487m2.889 3.575h-.048l-1.249 7.422h2.549l-1.252-7.422"/><path d="m137.72 23.257h4.851l1.836 13.177h.048l1.838-13.177h4.852l-3.771 17.487h-5.878l-3.776-17.487"/><path d="m151.88 23.257h10.359v3.723h-5.805v2.987h5.436v3.576h-5.436v3.48h6.02v3.721h-10.579v-17.487z"/><path d="m170.93 28.3v-.416c0-1.028-.415-1.885-1.298-1.885-.979 0-1.418.757-1.418 1.543 0 3.452 7.443 1.761 7.443 8.157 0 3.723-2.177 5.387-6.195 5.387-3.773 0-5.877-1.298-5.877-4.922v-.613h4.408v.417c0 1.494.611 2.031 1.492 2.031.932 0 1.468-.733 1.468-1.688 0-3.454-7.148-1.739-7.148-7.936 0-3.525 1.884-5.461 5.73-5.461 3.97 0 5.657 1.642 5.657 5.388h-4.262z"/></g><path fill="#293679" d="m177.33 26.604c-16.704 8.662-46.822 8.52-70.42 6.06-26.593-2.777-31.699-2-45.863-2.01-14.164-.005-17.67 6.22-57.25-4.64v15.07h173.53v-14.482" clip-path="url(#1)"/></svg>