<svg xmlns="http://www.w3.org/2000/svg" viewBox="0 0 340.936 123.757" enable-background="new 0 0 340.936 123.757"><defs><linearGradient id="3" gradientUnits="userSpaceOnUse" y1="123.76" x2="0" y2=".004"><stop stop-color="#186aad"/><stop offset="1" stop-color="#428ab9"/></linearGradient><linearGradient id="2" gradientUnits="userSpaceOnUse" y1="123.76" x2="0" y2=".004"><stop stop-color="#1460a7"/><stop offset="1" stop-color="#377db4"/></linearGradient><linearGradient id="0" gradientUnits="userSpaceOnUse" y1="123.76" x2="0" y2=".004"><stop stop-color="#1157a0"/><stop offset="1" stop-color="#2f71ae"/></linearGradient><linearGradient id="1" gradientUnits="userSpaceOnUse" y1="123.76" x2="0" y2=".004"><stop stop-color="#10468a"/><stop offset=".917" stop-color="#295a9a"/><stop offset="1" stop-color="#2c5c9c"/></linearGradient></defs><g fill="url(#1)"><path d="m340.94 0h-43.29v.593l43.28 44.767v-45.36"/><path d="m84.56 0l-22.08 53.28-17.47 51.95-1.74.77-43.27-44.79v62.55h43.566l-.296-17.76 1.74-.77 17.47-51.95 22.08-53.28"/><path d="M43.28 0 0 0 0 45.35 43.27.593 43.28 0"/><path d="m340.94 61.2l-43.28 44.8-.3 17.76h43.58v-62.56"/></g><path fill="url(#0)" d="m297.65 0h-4.38l2.66 1.319 1.73-.726v-.593"/><path fill="url(#3)" d="m256.38 0h-171.82l-22.08 53.28 29.19 70.48h157.6l29.18-70.48-22.07-53.28"/><g fill="url(#2)"><path d="m293.27 0h-36.89l22.07 53.28 17.48-51.961-2.66-1.319"/><path d="m278.45 53.28l-29.18 70.48h9.42l37.24-18.53-17.48-51.95"/><path d="m62.48 53.28l-17.47 51.95 37.25 18.53h9.41l-29.19-70.48"/><path d="M84.56 0 47.664 0 45.01 1.319 62.48 53.28 84.56 0"/></g><g fill="url(#0)"><path d="m297.66.593l-1.73.726-17.48 51.961 17.48 51.95 1.73.77 43.28-44.8v-15.84l-43.28-44.767"/><path d="m295.93 105.23l-37.24 18.53h38.67l.3-17.76-1.73-.77"/><path d="m47.664 0h-4.384v.593l1.74.726 2.654-1.319"/><path d="m45.01 105.23l-1.74.77.296 17.76h38.694l-37.25-18.53"/><path d="M43.27.593 0 45.35 0 61.21 43.27 106 45.01 105.23 62.48 53.28 45.01 1.319 43.27.593"/></g></svg>