<svg xmlns="http://www.w3.org/2000/svg" xmlns:xlink="http://www.w3.org/1999/xlink" viewBox="0 0 30 30" enable-background="new 0 0 30 30"><symbol id="0" viewBox="-47.824 -61.711 91.285 115.991"><path fill="#70b4e3" d="m29.18-52.46c0-1.792-.958-3.25-2.75-3.25h-64.5c-1.792 0-3.75 1.458-3.75 3.25v76.75h25.06c5.204 0 8.938 4.233 8.938 9.437v11.563h23.13l1.986 6h-27.619c-.014 0-.029-.003-.043-.003-.024 0-.047-.004-.071-.005-.244-.009-.486-.044-.719-.111-.013-.004-.025-.001-.038-.014-.246-.075-.484-.178-.705-.314l-34-21c-.2-.123-.373-.273-.534-.433-.035-.035-.07-.069-.103-.106-.15-.165-.285-.342-.393-.534-.014-.025-.024-.052-.037-.077-.095-.18-.17-.368-.227-.563-.012-.043-.027-.083-.038-.126-.053-.215-.331-.436-.335-.66 0-.018-.257-.035-.257-.053v-79.75c0-5.101 4.649-9.25 9.75-9.25h64.5c5.101 0 8.75 4.149 8.75 9.25v58.36l-6-18.13v-40.24zm-43 95.37v-9.184c0-1.896-1.042-3.437-2.938-3.437h-16.996l19.934 12.621"/><path fill="#70b4e3" d="m13.564-7.128c-11.08 3.668-12.394-1.162-12.394-1.162l3.276-27.21 18.862 19.881c0 0 1.34 4.82-9.744 8.489"/><path fill="#70b4e3" d="m40.509 49.44l-13.969 4.623c-2.256.747-4.69-.477-5.437-2.733l-18.225-55.06c2.526 1.034 4.837 2.371 12.01-.002 7.427-2.458 8.619-5.092 10.09-7.454l18.267 55.19c.746 2.256-.477 4.69-2.733 5.437"/></symbol><use xlink:href="#0" width="91.28" height="115.99" x="-47.824" y="-61.711" transform="matrix(.2431 0 0-.2431 15.53 14.1)"/></svg>