<svg xmlns="http://www.w3.org/2000/svg" height="12.05" viewBox="0 0 11.663 12.054" enable-background="new 0 0 11.663 12.054"><path fill="#d3e8f8" d="m10.299 7.18c.095-.369.151-.754.151-1.153 0-.443-.066-.869-.181-1.275l1.342-.791-1.173-1.989-1.339.79c-.575-.575-1.303-.993-2.113-1.202v-1.56h-2.308v1.56c-.853.22-1.609.674-2.195 1.293l-1.364-.755-1.119 2.02 1.364.755c-.094.37-.15.755-.15 1.154 0 .443.066.869.181 1.275l-1.342.791 1.173 1.989 1.339-.79c.575.574 1.302.993 2.112 1.202v1.56h2.308v-1.56c.852-.22 1.608-.674 2.194-1.293l1.364.755 1.119-2.02-1.363-.756m-4.467.85c-1.106 0-2-.897-2-2s.897-2 2-2 2 .897 2 2-.897 2-2 2"/></svg>