<svg version="1.1" xmlns="http://www.w3.org/2000/svg" xmlns:xlink="http://www.w3.org/1999/xlink" width="322" height="100" viewBox="0 0 322 100" style="display: none;">
<defs>
<g id="icon-app">
	<path class="path1" d="M100.607 34.754l10.385 65.246h22.242l10.385-65.246h-43.011zM130.36 95.585h-16.495l-8.981-56.417h34.454l-8.978 56.417z" opacity="1" visibility="false"></path>
	<path class="path2" d="M114.85 91.736l-6.572-46.279h27.668l-6.572 46.279z" opacity="1" visibility="false"></path>
	<path class="path3" d="M83.022 91.736h-6.292c0.010 0 1.666 2.77 1.666 2.669v-9.281h27.792l-2.007-13.222h-93.43c-1.597 0-0.121 1.664-0.121 0.069v-61.007c0-1.597-1.474-5.175 0.121-5.175h100.212c1.597 0 5.448 3.578 5.448 5.175v19.617h6.611v-26.458c0-1.597-2.271-4.945-3.869-4.945h-116.591c-1.597 0-1.848 3.349-1.848 4.945v80.459c0 1.597 0.253 0.542 1.848 0.542h46.084v9.281c0 0.101-2.22-2.669-2.21-2.669h-6.292c-1.463 0-2.649 1.843-2.649 3.306s1.187 3.306 2.649 3.306h42.879c1.463 0 2.649-1.843 2.649-3.306 0-1.464-1.187-3.306-2.649-3.306z" opacity="1" visibility="false"></path>
	<path class="path4" d="M96.577 49.589c0 2.283-1.85 4.132-4.132 4.132h-59.501c-2.283 0-4.132-1.85-4.132-4.132v-18.181c0-2.283 1.85-4.132 4.132-4.132h59.501c2.283 0 4.132 1.85 4.132 4.132v18.181zM94.924 31.408c0-1.369-1.111-2.479-2.479-2.479h-59.501c-1.369 0-2.479 1.111-2.479 2.479v18.181c0 1.369 1.111 2.479 2.479 2.479h59.501c1.369 0 2.479-1.111 2.479-2.479v-18.181z" opacity="1" visibility="false"></path>
	<path class="path5" d="M35.368 43.297l1.466-0.127c0.069 0.587 0.231 1.068 0.484 1.445s0.646 0.681 1.18 0.912c0.534 0.233 1.134 0.349 1.802 0.349 0.592 0 1.116-0.088 1.569-0.263 0.453-0.177 0.792-0.418 1.012-0.724s0.332-0.643 0.332-1.005c0-0.369-0.106-0.689-0.321-0.964-0.213-0.274-0.565-0.506-1.056-0.692-0.314-0.122-1.012-0.312-2.089-0.574-1.078-0.258-1.833-0.502-2.266-0.731-0.56-0.294-0.978-0.658-1.253-1.092s-0.412-0.922-0.412-1.461c0-0.592 0.169-1.145 0.504-1.661 0.337-0.516 0.828-0.906 1.474-1.172 0.646-0.268 1.362-0.4 2.154-0.4 0.868 0 1.636 0.139 2.301 0.42s1.175 0.692 1.534 1.236c0.357 0.544 0.549 1.16 0.577 1.85l-1.489 0.111c-0.079-0.74-0.35-1.302-0.812-1.681s-1.142-0.569-2.045-0.569c-0.939 0-1.623 0.172-2.053 0.516-0.43 0.345-0.645 0.76-0.645 1.245 0 0.423 0.152 0.77 0.456 1.041 0.299 0.273 1.078 0.55 2.34 0.836s2.127 0.536 2.597 0.749c0.683 0.314 1.188 0.714 1.512 1.197 0.326 0.483 0.489 1.040 0.489 1.669 0 0.625-0.179 1.212-0.536 1.765-0.359 0.552-0.871 0.982-1.542 1.288s-1.423 0.459-2.261 0.459c-1.063 0-1.952-0.155-2.668-0.464-0.719-0.309-1.281-0.775-1.689-1.397s-0.626-1.326-0.648-2.111z" opacity="1" visibility="false"></path>
	<path class="path6" d="M49.816 47.069v-10.35h-3.866v-1.383h9.3v1.383h-3.881v10.35h-1.554z" opacity="1" visibility="false"></path>
	<path class="path7" d="M54.338 47.069l4.507-11.733h1.673l4.801 11.733h-1.769l-1.369-3.554h-4.907l-1.288 3.554h-1.65zM57.723 42.251h3.977l-1.225-3.249c-0.374-0.988-0.651-1.798-0.831-2.435-0.15 0.752-0.36 1.499-0.633 2.241l-1.288 3.443z" opacity="1" visibility="false"></path>
	<path class="path8" d="M66.583 47.069v-11.733h5.201c1.046 0 1.841 0.104 2.385 0.314 0.544 0.212 0.98 0.585 1.304 1.117 0.326 0.534 0.489 1.124 0.489 1.769 0 0.833-0.269 1.535-0.808 2.104-0.539 0.572-1.372 0.934-2.497 1.089 0.41 0.197 0.724 0.392 0.935 0.585 0.453 0.415 0.883 0.935 1.288 1.559l2.041 3.195h-1.95l-1.552-2.441c-0.453-0.706-0.826-1.245-1.121-1.618s-0.557-0.635-0.79-0.785c-0.231-0.149-0.468-0.253-0.707-0.311-0.177-0.036-0.464-0.056-0.864-0.056h-1.802v5.21h-1.552zM68.135 40.514h3.339c0.711 0 1.266-0.074 1.664-0.22 0.4-0.147 0.706-0.382 0.914-0.706s0.311-0.673 0.311-1.053c0-0.555-0.202-1.010-0.603-1.369-0.403-0.357-1.040-0.536-1.909-0.536h-3.714v3.882z" opacity="1" visibility="false"></path>
	<path class="path9" d="M81.085 47.069v-10.35h-3.866v-1.383h9.3v1.383h-3.882v10.35h-1.552z" opacity="1" visibility="false"></path>
</g>
<g id="icon-drinking">
	<path class="path1" d="M57.093 36.036c-1.872-1.823-4.016-2.614-6.111-2.66-1.59-0.832-3.558-1.116-5.859-0.526-8.895 2.275-18.061 1.518-27.124 0.463-0.478-5.364-0.363-9.354 0.732-15.392l19.177-2.608 0.013 0.061 1.719-0.362-3.225-15.399-1.719 0.362 0.013 0.061-18.899 5.386c-4.582-3.669-11.965-3.455-13.472 3.721-2.817 13.505-2.916 20.386-1.225 33.99 0.494 4.038 4.394 6.757 8.146 7.185 6.803 0.773 13.704 1.858 20.592 2.070-3.984 17.473-5.538 31.013-7.364 47.615h33.523c1.356-12.913 2.359-22.167 4.774-33.75 5.722 6.606 11.133 13.383 16.159 20.579 6.606 9.463 19.954-2.581 13.403-11.965-9.792-14.021-21.018-26.894-33.256-38.83zM35.030 1.572l2.555 12.199-2.070 0.28 0.12-0.212c0 0-3.367-3.743-7.487-4.062-4.123-0.319-1.090-3.199-4.955-4.425-0.258-0.079-0.511-0.137-0.764-0.186l12.601-3.593z" opacity="1" visibility="false"></path>
	<path class="path2" d="M72.23 16.947c0 8.254-6.691 14.946-14.946 14.946s-14.946-6.691-14.946-14.946c0-8.254 6.691-14.946 14.946-14.946s14.946 6.691 14.946 14.946z" opacity="1" visibility="false"></path>
</g>
<g id="icon-glass">
	<path class="path1" d="M0 0l15.917 100h34.090l15.917-100h-65.923zM45.602 93.235h-25.28l-13.765-86.47h52.807l-13.762 86.47z" opacity="1" visibility="false"></path>
	<path class="path2" d="M22.070 86.667l-10.073-68.333h42.407l-10.070 68.333z" opacity="1" visibility="false"></path>
</g>
</defs>
</svg>
