<svg xmlns="http://www.w3.org/2000/svg" viewBox="0 0 26 27" enable-background="new 0 0 26 27"><path fill="#fff" d="m24.384 5.953c-.758.336-1.572.563-2.427.665.872-.523 1.542-1.351 1.858-2.338-.816.484-1.721.836-2.683 1.025-.771-.821-1.869-1.334-3.084-1.334-2.334 0-4.226 1.892-4.226 4.225 0 .331.037.654.109.963-3.512-.176-6.625-1.858-8.71-4.415-.363.626-.571 1.351-.571 2.126 0 1.466.746 2.759 1.88 3.517-.693-.022-1.344-.212-1.914-.529 0 .018 0 .035 0 .053 0 2.047 1.457 3.755 3.39 4.143-.355.097-.728.148-1.113.148-.272 0-.537-.026-.795-.076.538 1.679 2.098 2.9 3.947 2.935-1.446 1.133-3.268 1.809-5.248 1.809-.341 0-.677-.02-1.01-.059 1.87 1.199 4.091 1.898 6.477 1.898 7.772 0 12.02-6.439 12.02-12.02 0-.183-.004-.365-.012-.547.824-.594 1.541-1.338 2.107-2.186"/></svg>