<svg xmlns="http://www.w3.org/2000/svg" viewBox="0 0 52 52" enable-background="new 0 0 52 52"><path fill="#fff" d="m51 26c0 13.8-11.2 25-25 25s-25-11.2-25-25c0-13.8 11.2-25 25-25s25 11.2 25 25m-7.3-11c-1.3.6-2.7 1-4.2 1.1 1.5-.9 2.6-2.3 3.2-4-1.4.8-3 1.4-4.6 1.8-1.3-1.4-3.2-2.3-5.3-2.3-4 0-7.3 3.3-7.3 7.3 0 .6.1 1.1.2 1.7-6-.3-11.4-3.2-15-7.6-.6 1.1-1 2.3-1 3.7 0 2.5 1.3 4.7 3.2 6-1.2 0-2.3-.4-3.3-.9v.1c0 3.5 2.5 6.5 5.8 7.1-.6.2-1.3.3-1.9.3-.5 0-.9 0-1.4-.1.9 2.9 3.6 5 6.8 5-2.5 1.9-5.6 3.1-9 3.1-.6 0-1.2 0-1.7-.1 3.2 2.1 7 3.3 11.1 3.3 13.4 0 20.7-11.1 20.7-20.7v-.9c1.5-1.1 2.7-2.4 3.7-3.9"/></svg>