<svg xmlns="http://www.w3.org/2000/svg" viewBox="0 0 32.310002 50.529999" enable-background="new 0 0 36.91 56.223"><path fill="#fff" d="m32.31 34.78c0 8.7-7.23 15.75-16.15 15.75-8.92 0-16.16-7.05-16.16-15.75 0-8.69 11.19-27.31 15.87-34.78 5.76 8.52 16.44 26.09 16.44 34.78m-6.56 5.99c-.02.001.14-.36.001-1.06-.05-.16-.11-.35-.17-.55-.09-.19-.19-.4-.32-.61-.27-.4-.63-.85-1.09-1.22-.45-.4-1-.74-1.59-1.06-.61-.3-1.26-.6-1.96-.8-.69-.22-1.43-.38-2.18-.49-.37-.06-.77-.09-1.17-.12l-1.12-.05c-.77.02-1.54.06-2.3.17-.75.11-1.49.27-2.18.49-.7.21-1.35.5-1.95.8-.6.32-1.14.67-1.59 1.06-.47.37-.82.82-1.09 1.22-.14.21-.24.42-.33.61-.06.2-.12.39-.17.55-.06.37-.06.63-.03.8.03.17.04.26.04.26 0 0 .03-.09.09-.25.03-.18.17-.4.31-.64.09-.12.19-.25.31-.39.14-.11.26-.26.42-.38.32-.25.7-.51 1.16-.72.9-.44 2.04-.8 3.31-1.01 1.25-.23 2.62-.35 4-.35l1.05.02c.33.04.65.03.99.07.67.07 1.33.13 1.96.26 1.26.21 2.4.57 3.3 1.01.46.22.84.47 1.17.72.16.12.27.27.42.38.11.14.21.27.3.39.14.26.28.47.31.64.06.16.09.25.09.25m-.97-12.85c0-1.2-1.5-2.17-3.35-2.17-1.84 0-3.34.97-3.34 2.17 0 1.2 1.5 2.17 3.34 2.17 1.85 0 3.35-.97 3.35-2.17m-10.56 0c0-1.2-1.5-2.17-3.34-2.17-1.85 0-3.34.97-3.34 2.17 0 1.2 1.49 2.17 3.34 2.17 1.84 0 3.34-.97 3.34-2.17"/></svg>