<svg xmlns="http://www.w3.org/2000/svg" viewBox="0 0 48.200767 32.372161" enable-background="new 0 0 52.361 34.921"><path fill="#fff" d="m8.571 11.317c.45.02.95.09 1.48.19.53.13 1.09.3 1.64.55.56.24 1.09.6 1.62.98.51.4.96.9 1.38 1.42.39.52.74 1.19.95 1.74.29.78.41 1.31.48 2.01.03.67.04 1.34-.09 1.98-.14.63-.28 1.26-.55 1.81-.24.55-.54 1.05-.85 1.5-.33.43-.66.82-.98 1.14-.17.15-.32.3-.47.43-.16.12-.3.23-.43.34-.26.21-.49.34-.64.45-.15.1-.23.15-.23.15 0 0 .09-.02.27-.06.17-.06.45-.09.77-.23.16-.06.34-.13.54-.21.19-.09.39-.21.61-.32.42-.26.88-.58 1.33-1 .22-.22.44-.46.67-.71.2-.27.42-.54.6-.85.39-.6.69-1.32.91-2.08.2-.77.31-1.6.27-2.45-.03-.81-.26-1.79-.49-2.46-.37-.88-.77-1.57-1.31-2.25-.53-.65-1.17-1.2-1.83-1.64-.67-.43-1.37-.76-2.07-.94-.68-.22-1.36-.3-1.98-.32-.62-.02-1.18.05-1.66.14-.24.06-.46.11-.67.17-.2.07-.38.14-.55.2-.33.1-.55.27-.72.34-.16.09-.24.13-.24.13 0 0 .09-.001.27-.04.18-.001.46-.08.79-.09.16-.001.34-.02.54-.03.2 0 .41 0 .64.001m39.63-7.72c-5.91 8.42-18.52 24.66-26.64 27.76-8.12 3.1-17.29-1.14-20.47-9.47-3.18-8.34.83-17.61 8.95-20.71 8.12-3.1 29.5.71 38.16 2.42m-22.91 18.28c.77-.3.86-1.93.2-3.66-.66-1.72-1.82-2.88-2.59-2.59-.77.3-.86 1.93-.2 3.66.66 1.72 1.82 2.88 2.59 2.59m-3.77-9.86c.77-.3.86-1.93.2-3.66-.65-1.72-1.81-2.88-2.58-2.59-.77.29-.86 1.93-.2 3.66.65 1.72 1.81 2.88 2.58 2.59"/></svg>