<svg xmlns="http://www.w3.org/2000/svg" viewBox="0 0 32.309996 50.539998" enable-background="new 0 0 37.768 55.794"><path fill="#fff" d="m32.31 34.79c0 8.7-7.24 15.75-16.16 15.75-8.91 0-16.15-7.05-16.15-15.75 0-8.69 11.18-27.31 15.87-34.79 5.76 8.52 16.44 26.1 16.44 34.79m-7.49-8.72c.43-.73.61-1.32.61-1.32 0 0-.59.18-1.31.61-.59.33-1.26.82-1.89 1.38-.57-.49-1.15-.9-1.66-1.2-.73-.43-1.32-.61-1.32-.61 0 0 .18.59.62 1.32.3.52.71 1.1 1.21 1.68-.5.57-.91 1.17-1.21 1.68-.44.73-.62 1.32-.62 1.32 0 0 .59-.18 1.32-.62.51-.29 1.1-.71 1.67-1.19.63.57 1.29 1.05 1.88 1.38.72.43 1.31.61 1.31.61 0 0-.18-.59-.61-1.32-.33-.58-.81-1.23-1.37-1.86.56-.63 1.04-1.28 1.37-1.86m-2.62 12.77c0 0-.77-.37-1.91-.63-1.14-.3-2.67-.47-4.2-.48-1.52.001-3.05.18-4.19.48-1.15.26-1.91.63-1.91.63 0 0 .76.37 1.91.64 1.14.29 2.67.47 4.19.47 1.53 0 3.06-.17 4.2-.47 1.14-.26 1.91-.64 1.91-.64m-9.76-12.77c.44-.73.62-1.32.62-1.32 0 0-.6.18-1.32.61-.59.33-1.25.82-1.88 1.39-.57-.5-1.16-.91-1.67-1.21-.72-.43-1.32-.61-1.32-.61 0 0 .19.59.62 1.32.3.52.72 1.1 1.21 1.68-.49.57-.91 1.17-1.21 1.68-.43.73-.62 1.32-.62 1.32 0 0 .6-.18 1.32-.62.51-.29 1.1-.71 1.67-1.2.63.57 1.29 1.06 1.88 1.39.72.43 1.32.61 1.32.61 0 0-.18-.59-.62-1.32-.32-.58-.8-1.23-1.37-1.86.57-.63 1.05-1.28 1.37-1.86"/></svg>