<svg xmlns="http://www.w3.org/2000/svg" viewBox="0 0 32.299999 50.53" enable-background="new 0 0 37.339 55.794"><path fill="#fff" d="m32.3 34.79c0 8.69-7.23 15.74-16.15 15.74-8.92 0-16.15-7.05-16.15-15.74 0-8.7 11.18-27.31 15.87-34.79 5.76 8.52 16.43 26.09 16.43 34.79m-6.47.07c.04-.42-.04-.74-.05-.97-.02-.22-.03-.34-.03-.34 0 0-.02.12-.07.34-.05.21-.09.55-.21.93-.06.2-.12.41-.18.64-.09.23-.18.47-.28.73-.22.52-.51 1.07-.86 1.64-.38.55-.82 1.12-1.36 1.65-.52.54-1.17 1-1.85 1.43-.69.43-1.48.72-2.27.98-.79.23-1.71.32-2.47.34-1.01-.02-1.72-.11-2.56-.35-.8-.26-1.59-.54-2.27-.97-.68-.43-1.34-.89-1.86-1.43-.54-.53-.97-1.1-1.35-1.65-.35-.57-.64-1.12-.86-1.64-.1-.26-.2-.5-.28-.73-.07-.23-.13-.45-.19-.64-.12-.39-.16-.71-.21-.93-.04-.22-.07-.34-.07-.34 0 0-.001.12-.03.34-.001.22-.09.56-.05.98.001.21.02.45.02.7.04.26.08.53.13.83.11.58.3 1.24.6 1.93.31.67.7 1.4 1.26 2.07.53.69 1.22 1.32 2 1.87.78.55 1.68 1.01 2.64 1.32.94.31 2.11.46 2.99.48 1.12-.03 2.08-.18 3.07-.48.97-.31 1.86-.77 2.65-1.32.78-.55 1.46-1.19 1.99-1.88.56-.66.95-1.39 1.26-2.06.3-.69.49-1.35.6-1.93.05-.3.09-.57.13-.83.001-.26.02-.49.02-.71m-1.06-6.94c0-1.84-1.5-3.34-3.34-3.34-1.85 0-3.34 1.5-3.34 3.34 0 1.85 1.49 3.35 3.34 3.35 1.84 0 3.34-1.5 3.34-3.35m-10.55 0c0-1.84-1.5-3.34-3.35-3.34-1.84 0-3.34 1.5-3.34 3.34 0 1.85 1.5 3.35 3.34 3.35 1.85 0 3.35-1.5 3.35-3.35"/></svg>