<svg width="50.11" xmlns="http://www.w3.org/2000/svg" height="32.25" viewBox="0 0 50.10504 32.251248" enable-background="new 0 0 53.122 33.667"><path fill="#fff" d="m37.84 18.931c.06.29.08.56.1.81 0 .16-.02.35-.03.52 0 .09-.05.28-.06.41-.12.57-.3 1.08-.61 1.52-.3.44-.7.85-1.09 1.26-.4.4-.75.84-.99 1.26-.24.43-.37.83-.44 1.16-.08.34-.07.6-.08.77 0 .18-.001.27-.001.27 0 0 .04-.09.11-.25.06-.16.18-.4.33-.66.14-.27.38-.57.66-.87.29-.29.67-.57 1.11-.88.44-.31.98-.65 1.47-1.19.5-.52.91-1.24 1.11-2.01.05-.2.12-.35.15-.6l.08-.54.02-.68c-.02-.21-.04-.43-.08-.64-.16-.88-.58-1.66-.95-2.3-.38-.62-.66-1.15-.78-1.7-.12-.54-.12-1.14 0-1.75.03-.19.07-.31.1-.42.03-.12.07-.25.13-.37.09-.26.21-.5.37-.72.3-.44.71-.84 1.1-1.25.39-.41.74-.84.98-1.27.24-.43.37-.83.43-1.16.14-.66.07-1.04.1-1.04 0 0-.04.09-.11.25-.06.16-.17.39-.33.66-.15.28-.38.57-.66.87-.29.3-.67.57-1.11.88-.44.31-.98.65-1.47 1.19-.25.26-.49.57-.67.92-.11.16-.19.34-.26.55-.08.2-.16.4-.19.55-.2.73-.35 1.58-.17 2.46.16.87.59 1.66.95 2.29.39.62.67 1.15.79 1.7m-.8-18.75c8.57 1.45 14.32 9.76 12.83 18.56-1.49 8.79-9.65 14.75-18.22 13.29-8.57-1.45-25.06-15.58-31.65-21.45 9.36-4.25 28.47-11.85 37.04-10.4m-5.29 10.14c.31-1.82-.91-3.55-2.73-3.86-1.82-.3-3.55.92-3.86 2.74-.3 1.82.92 3.55 2.74 3.86 1.82.3 3.55-.92 3.85-2.74m-1.76 10.4c.31-1.82-.91-3.54-2.73-3.85-1.82-.31-3.55.92-3.86 2.74-.31 1.82.92 3.54 2.74 3.85 1.82.31 3.54-.92 3.85-2.74"/></svg>