<svg xmlns="http://www.w3.org/2000/svg" height="68.28" viewBox="0 0 68.250001 68.281252" enable-background="new 0 0 69.099 72.532"><path fill="#fff" d="m8.809 36.1c.073-1.878.235-3.717 1.207-5.37 1.979-3.367 6.553-4.171 9.45-1.573 1.01.906 1.98 1.871 3.062 2.683 1.196.897 2.633 1.273 4.107 1.471.386.052.775.108 1.164.111.741.007 1.344-.466 1.517-1.144.107-.419-.261-.963-.911-1.264-1.718-.795-3.236-1.874-4.53-3.245-1.989-2.107-3.521-4.484-4.073-7.389-.468-2.463.188-4.672 1.653-6.634 1.144-1.532 2.548-2.807 4.327-3.595 1.496-.663 3.06-1.04 4.694-1.215 1.946-.209 3.886-.179 5.729.419 2.338.759 3.891 2.444 4.339 4.878.459 2.499-.489 4.573-2.411 6.219-1.457 1.247-2.403 2.828-2.863 4.68-.214.86-.331 1.746-.457 2.624-.075.522.544 1.325 1.1 1.501.449.142 1.089-.182 1.338-.799.801-1.986 2.123-3.59 3.68-4.998 2.165-1.956 4.589-3.415 7.579-3.759 2.529-.292 4.62.612 6.548 2.139 2.456 1.946 3.659 4.596 4.157 7.57.367 2.192.406 4.453-.258 6.6-.748 2.42-2.423 3.999-4.96 4.505-2.433.485-4.41-.442-5.986-2.223-.952-1.076-2.046-1.899-3.328-2.499-1.353-.633-2.781-.953-4.276-.941-.842.007-1.476.611-1.335 1.397.063.352.408.787.737.935 2.41 1.087 4.284 2.784 5.916 4.831.759.952 1.451 1.926 1.9 3.044.545 1.357 1.036 2.747 1.017 4.242-.03 2.273-.883 4.219-2.369 5.922-1.625 1.863-3.629 3.084-6.02 3.666-1.674.407-3.376.69-5.095.527-1.57-.149-3.139-.319-4.544-1.222-2.17-1.394-3.511-4.298-2.713-7.01.438-1.491 1.393-2.548 2.47-3.567 1.85-1.75 2.779-3.932 3.02-6.455.066-.695.112-1.31-.438-1.826-.615-.577-1.383-.445-1.803.288-.558.973-1.04 2.01-1.74 2.875-.932 1.146-1.957 2.25-3.101 3.178-.991.804-2.179 1.382-3.322 1.98-1.386.725-2.881.991-4.455.932-1.797-.066-3.315-.745-4.739-1.796-2.706-1.996-4.158-4.7-4.652-7.97-.136-.902-.219-1.814-.326-2.722m25.307.405c1.343.119 2.421-1.14 2.446-2.342.025-1.189-.902-2.48-2.413-2.465-1.412.014-2.383 1.01-2.412 2.463-.028 1.438 1.381 2.478 2.379 2.344"/><circle fill="none" cx="34.546" cy="36.27" stroke="#fff" r="32.534" stroke-width="3.183" transform="translate(-.406-2.125)" stroke-miterlimit="10"/></svg>