<svg xmlns="http://www.w3.org/2000/svg" height="74.03" viewBox="0 0 55.788076 74.031248" enable-background="new 0 0 60.086 79.399"><defs><linearGradient id="0" y1="47.28" x1="1.774" y2="65.15" gradientUnits="userSpaceOnUse" x2="75.02"><stop stop-color="#fff" stop-opacity=".7"/><stop offset="1" stop-color="#fff" stop-opacity=".3"/></linearGradient></defs><path fill="#fff" d="m27.908 0c-13.691 0-27.573 3.051-27.906 8.875-.003.02.002.042 0 .063-.002.051 0 .105 0 .156 0 .044-.004.081 0 .125l.031.219c.008.091-.015.191 0 .281l4.969 55.31c.095 5.855 11.851 9 22.906 9 11.05 0 22.778-3.145 22.875-9l4.969-55.31v-.063c.027-.181.031-.376.031-.563 0-.076.011-.146 0-.219-.334-5.824-14.184-8.875-27.875-8.875m0 2.938c6.927 0 13.417.752 18.281 2.156 5.218 1.506 6.654 3.189 6.688 3.969l-.031.156c-.129.812-1.618 2.421-6.656 3.875-4.864 1.404-11.353 2.188-18.281 2.188-6.928 0-13.447-.784-18.313-2.188-5.154-1.487-6.589-3.146-6.656-3.938-.002-.02-.031-.044-.031-.063 0-.009 0-.022 0-.031.032-.779 1.467-2.462 6.688-3.969 4.865-1.404 11.386-2.156 18.313-2.156m-24.594 10.688c4.962 3.01 14.818 4.563 24.594 4.563 9.775 0 19.601-1.554 24.563-4.563l-4.594 51.19c-.004.044 0 .082 0 .125 0 2.578-7.587 6.188-19.969 6.188-12.382 0-20-3.609-20-6.188 0-.044.004-.082 0-.125l-4.594-51.19"/><path fill="url(#0)" d="m27.908 47.781c-10.724 0-19.438 2.639-19.438 5.875 0 3.236 8.714 5.844 19.438 5.844 10.724 0 19.406-2.607 19.406-5.844 0-3.236-8.682-5.875-19.406-5.875m21.13 6.531c-.568 3.786-9.815 6.719-21.12 6.719-11.217 0-20.42-2.884-21.12-6.625l1.438 12.688c0 0 5.455 5.875 19.844 5.875 14.389 0 20.19-7.313 20.19-7.313l.781-11.344"/></svg>