<svg width="364.01" xmlns="http://www.w3.org/2000/svg" height="471.93" viewBox="17 0 364.00516 471.92526" xmlns:xlink="http://www.w3.org/1999/xlink" enable-background="new 17 0 386 501"><defs><linearGradient id="4" y1="44.772" x1="45.09" y2="-3.823" gradientUnits="userSpaceOnUse" x2="93.69"><stop stop-color="#fff" stop-opacity=".05"/><stop offset="1" stop-color="#fff" stop-opacity=".3"/></linearGradient><linearGradient id="5" y1="62.53" x1="46.05" y2="15.882" gradientUnits="userSpaceOnUse" x2="92.7" xlink:href="#0"/><linearGradient id="3" y1="377.52" x1="308.75" y2="294.52" gradientUnits="userSpaceOnUse" x2="391.75" xlink:href="#0"/><linearGradient id="1" y1="174.77" x1="38" y2="82.27" gradientUnits="userSpaceOnUse" x2="130.5" xlink:href="#0"/><linearGradient id="0" y1="477.17" x1="154.26" y2="378.68" gradientUnits="userSpaceOnUse" x2="252.76"><stop stop-color="#fff" stop-opacity=".3"/><stop offset="1" stop-color="#fff" stop-opacity=".05"/></linearGradient><linearGradient id="2" y1="294.02" x1="164.25" y2="183.02" gradientUnits="userSpaceOnUse" x2="275.25" xlink:href="#0"/></defs><path fill="url(#4)" d="m110.39 12.878v15.24c-4.6-2.05-8.24-5.59-8.28-5.64l-2.38-1.8-1.77 1.8c-1.95 1.97-8.2 7.09-13.68 7.09-6.58 0-13.61-7.02-13.68-7.09l-1.77-1.79-1.78 1.79c-.07.07-7.11 7.09-13.68 7.09-6.58 0-13.62-7.02-13.69-7.09l-1.78-1.8-1.79 1.8c-1.27 1.29-4.18 3.92-7.72 5.59v-15.23c4.18-1.48 7.5-4.16 9.53-5.89 2.93 2.49 9.14 6.96 15.53 6.96 6.38 0 12.6-4.47 15.52-6.96 2.93 2.49 9.22 6.96 15.61 6.96 6.38 0 12.83-4.47 15.75-6.96 2.05 1.739 5.67 4.459 10.06 5.93"/><path fill="url(#5)" d="m110.39 33.568v11.3h-82v-11.34c4.18-1.48 7.5-4.15 9.53-5.88 2.93 2.49 9.14 6.95 15.53 6.95 6.38 0 12.6-4.46 15.52-6.95 2.93 2.49 9.22 6.95 15.61 6.95 6.38 0 12.83-4.46 15.75-6.95 2.05 1.74 5.67 4.45 10.06 5.92"/><g fill="#fff"><path d="m35.656 15.594l-1.813 1.781c-1.95 1.97-7.719 7.094-13.719 7.094v2 3.03 15.656 5.03 16.281h94v-16.281-5.03-15.656-3.03-2c-7 0-14.221-7.02-14.281-7.094l-2.375-1.781-1.75 1.781c-1.95 1.97-8.207 7.094-13.688 7.094-6.58 0-13.617-7.02-13.688-7.094l-1.781-1.781-1.781 1.781c-.07.08-7.086 7.094-13.656 7.094-6.58 0-13.617-7.02-13.688-7.094l-1.781-1.781m0 6.938c2.93 2.49 9.141 6.969 15.531 6.969 6.38 0 12.611-4.479 15.531-6.969 2.93 2.49 9.204 6.969 15.594 6.969 6.38 0 12.83-4.479 15.75-6.969 2.05 1.74 5.672 4.468 10.06 5.938v15.25c.95.425 1.961.775 2.969 1.031-1.01-.256-2.02-.606-2.969-1.031-4.6-2.049-8.241-5.606-8.281-5.656l-2.375-1.781-1.75 1.781c-1.95 1.97-8.207 7.094-13.688 7.094-6.58 0-13.617-7.02-13.688-7.094l-1.781-1.781-1.781 1.781c-.07.07-7.086 7.094-13.656 7.094-6.58 0-13.617-7.02-13.688-7.094l-1.781-1.781-1.813 1.781c-1.27 1.29-4.179 3.924-7.719 5.594v-15.219c4.18-1.48 7.501-4.176 9.531-5.906m0 20.719c2.93 2.49 9.141 6.938 15.531 6.938 6.38 0 12.611-4.447 15.531-6.938 2.93 2.49 9.204 6.938 15.594 6.938 6.38 0 12.83-4.447 15.75-6.938 2.05 1.74 5.672 4.436 10.06 5.906v11.313h-82v-11.344c4.18-1.48 7.501-4.145 9.531-5.875" transform="translate(2.252-15.594)"/></g><g transform="translate(-14.748-15.594)"><g stroke="#fff" stroke-width="5" stroke-miterlimit="10"><path fill="url(#1)" d="m57.25 63.02h54v131h-54z"/><path fill="url(#2)" d="m135.25 212.02h169v53h-169z"/><path fill="url(#3)" d="m323.25 280.02h54v112h-54z"/></g><g fill="#fff"><path d="m50.753 175.52h69v20h-69z"/><path d="m315.75 280.52h69v20h-69z"/><path d="m316.75 380.52h69v20h-69z"/><path d="m125.75 204.52h20v68h-20z"/><path d="m287.75 204.52h21v68h-21z"/></g></g><path fill="url(#0)" stroke="#fff" stroke-width="5" d="m131.51 401.42h144v53h-144z" stroke-miterlimit="10"/><path fill="#fff" d="m274.01 392.92h21v68h-21z"/><g fill="#407dce"><path d="m37.856 181.7h64.69a8.4839 8.4839 0 0 1 8.484 8.484v64.69a8.4839 8.4839 0 0 1 -8.484 8.484h-64.69a8.4839 8.4839 0 0 1 -8.4839 -8.484v-64.69a8.4839 8.4839 0 0 1 8.4839 -8.484"/><path d="m304.747,181.35h64.69a8.4839,8.4839 0 0,1 8.484,8.484v64.69a8.4839,8.4839 0 0,1 -8.484,8.484h-64.69a8.4839,8.4839 0 0,1 -8.484-8.484v-64.69a8.4839,8.4839 0 0,1 8.484-8.484"/><path d="m304.04,387.086h64.69a8.4839,8.4839 0 0,1 8.484,8.484v64.69a8.4839,8.4839 0 0,1 -8.484,8.484h-64.69a8.4839,8.4839 0 0,1 -8.484-8.484v-64.69a8.4839,8.4839 0 0,1 8.484-8.484"/></g><g transform="translate(-12.748-15.594)"><g fill="none" stroke="#fff" stroke-miterlimit="10"><g stroke-width="5"><path d="m125.25 269.41c0 5.861-4.751 10.611-10.611 10.611h-62.778c-5.861 0-10.611-4.751-10.611-10.611v-62.778c0-5.861 4.751-10.611 10.611-10.611h62.777c5.861 0 10.611 4.751 10.611 10.611v62.777z"/><path d="m391.25 474.41c0 5.861-4.751 10.611-10.611 10.611h-62.777c-5.861 0-10.611-4.751-10.611-10.611v-62.778c0-5.861 4.751-10.611 10.611-10.611h62.777c5.861 0 10.611 4.751 10.611 10.611v62.778z"/><path d="m391.25 269.41c0 5.861-4.751 10.611-10.611 10.611h-62.777c-5.861 0-10.611-4.751-10.611-10.611v-62.778c0-5.861 4.751-10.611 10.611-10.611h62.777c5.861 0 10.611 4.751 10.611 10.611v62.778z"/></g><g stroke-width="3"><path d="m377.25 248.71c0 2.93-2.375 5.306-5.306 5.306h-45.39c-2.93 0-5.306-2.375-5.306-5.306v-38.39c0-2.93 2.375-5.306 5.306-5.306h45.39c2.93 0 5.306 2.375 5.306 5.306v38.39z"/><path d="m332.25 205.52v48"/><path d="m342.25 205.52v48"/><path d="m350.25 205.52v48"/><path d="m360.25 205.52v48"/><path d="m369.25 205.52v48"/><path d="m378.75 212.02h-56.19"/><path d="m378.75 229.02h-56.46"/><path d="m378.75 246.02h-56.19"/></g></g><g fill="#fff"><circle cx="323.25" cy="267.61" r="7.05"/><circle cx="349.15" cy="267.61" r="7.05"/><circle cx="377.65" cy="267.61" r="7.05"/><path d="m81.75 196.52h6v9h-6z"/><path d="m81.75 270.52h6v10h-6z"/><path d="m115.75 235.52h9v6h-9z"/><path d="m41.753 235.52h10v6h-10z"/><path d="m348.72 415.36l-32.38 21.16h12.41v33h24v-19h14v19h4v-33h10.351l-32.381-21.16m-.97 40.16h-14v-16h14v16"/><path d="m135.94 411.52l-1.139 13h-1.976c-4.995 0-9.259 3-10.997 7h-11.909c-1.314-3-2.166-4.342-4.166-6.134v-1.866h.283c1.376 0 2.717-1.107 2.717-2.483v-8.722c0-1.376-1.341-1.795-2.717-1.795h-13.282v-9.532c0-.506.654-1.468 1.056-1.468h8.615c1.761 2 4.923 3.49 8.543 3.49 5.534 0 10.02-3.465 10.02-7.651 0-4.186-4.486-7.734-10.02-7.734-3.848 0-7.184.895-8.863 3.895h-8.05c-1.27-3-3.794-4.049-6.704-4.049-2.91 0-5.434 1.049-6.704 4.049h-8.158c-1.679-3-5.02-3.931-8.863-3.931-5.534 0-10.02 3.531-10.02 7.717 0 4.186 4.486 7.636 10.02 7.636 3.62 0 6.782-1.422 8.543-3.422h8.719c.403 0 2.869.963 2.869 1.468v9.532h-15.09c-1.376 0-1.905.419-1.905 1.795v8.722c0 1.376.529 2.483 1.905 2.483h1.095v2.518c-1 1.809-4.02 4.482-5.215 6.482h-8.34c-13.418 0-23.445 10.608-23.445 24.03v11.974h-2.096c-1.032 0-.904.699-.904 1.732v9.345c0 1.032-.129 1.924.904 1.924h24.919c1.032 0 2.178-.892 2.178-1.924v-9.345c0-1.032-1.145-1.732-2.178-1.732h-.823v-10.11c0-2.064 1.25-3.895 3.314-3.895h8.167c4.515 6 12.305 10.435 21.16 10.435 8.859 0 16.649-4.435 21.16-10.435h3.624 9.412c1.566 4 5.995 8 11.224 8h1.976l1.139 14h8.816v-65h-8.814"/></g></g></svg>