<svg xmlns="http://www.w3.org/2000/svg" viewBox="0 0 1920 534" enable-background="new 0 0 1920 534" xmlns:xlink="http://www.w3.org/1999/xlink"><defs><radialGradient cx="495.57" cy="2190.47" gradientTransform="matrix(1 0 0 .4947 0-644.77)" id="5" r="408.51" gradientUnits="userSpaceOnUse" xlink:href="#0"/><radialGradient cx="687.69" cy="2409.86" gradientTransform="matrix(1 0 0 .4947 0-644.77)" id="4" r="560.28" gradientUnits="userSpaceOnUse" xlink:href="#0"/><radialGradient cx="234.39" cy="2304.62" gradientTransform="matrix(1 0 0 .4947 0-644.77)" id="6" r="325.08" gradientUnits="userSpaceOnUse" xlink:href="#0"/><radialGradient cx="1105.41" cy="1939.05" gradientTransform="matrix(1 0 0 .4947 0-644.77)" id="3" r="524.99" gradientUnits="userSpaceOnUse" xlink:href="#0"/><radialGradient cx="1341.87" cy="1843.09" gradientTransform="matrix(1 0 0 .4947 0-644.77)" id="1" r="559.26" gradientUnits="userSpaceOnUse" xlink:href="#0"/><radialGradient cx="1075.61" cy="1927.06" gradientTransform="matrix(1 0 0 .4947 0-644.77)" id="0" r="518.72" gradientUnits="userSpaceOnUse"><stop stop-color="#d3e8f8"/><stop offset="1" stop-color="#d3e8f8" stop-opacity="0"/></radialGradient><radialGradient cx="1408.04" cy="1692.14" gradientTransform="matrix(1 0 0 .4947 0-644.77)" id="2" r="406.9" gradientUnits="userSpaceOnUse" xlink:href="#0"/></defs><path opacity=".3" fill="url(#0)" d="m421.5 0l1080 534h342.24l-1080-534z"/><path opacity=".2" fill="url(#1)" d="m763.74 0l1080 534h76.26v-131.57l-814.02-402.43z"/><path opacity=".2" fill="url(#2)" d="m1920 402.43v-169.3l-471.78-233.13h-342.24z"/><path opacity=".4" fill="url(#3)" d="m79.26 0l1080 534h342.24l-1080-534z"/><path opacity=".2" fill="url(#4)" d="m0 0v129.84l817.02 404.16h342.24l-1080-534z"/><path opacity=".2" fill="url(#5)" d="m0 129.84v169.3l474.78 234.86h342.24z"/><path opacity=".2" fill="url(#6)" d="m0 534h474.78l-474.78-234.86z"/></svg>