<svg xmlns="http://www.w3.org/2000/svg" viewBox="0 0 120.00001 19" xmlns:xlink="http://www.w3.org/1999/xlink" enable-background="new 0 0 120.004 18.012"><defs><linearGradient id="0" x1="44.47" gradientUnits="userSpaceOnUse" x2="118.63"><stop stop-color="#fff" stop-opacity=".3"/><stop offset="1" stop-color="#fff" stop-opacity=".5"/></linearGradient><linearGradient id="1" x1="1.903" gradientUnits="userSpaceOnUse" x2="63.908" xlink:href="#0"/></defs><path fill="none" stroke="#fff" stroke-width="1.01" d="m119.23 12.976c0 2.638-2.095 4.797-4.658 4.797h-109.67c-2.561 0-4.658-2.158-4.658-4.797v-8.395c0-2.638 2.095-4.797 4.658-4.797h109.67c2.561 0 4.658 2.158 4.658 4.797v8.395z" stroke-miterlimit="10" transform="translate(.266.722)"/><g transform="matrix(.99375 0 0 1.01778.109.061)"><path fill="url(#1)" d="m5.178 1.905c-1.801 0-3.275 1.474-3.275 3.275v8.188c0 1.801 1.474 3.275 3.275 3.275h39.29l19.436-14.738h-58.73"/><path fill="url(#0)" d="m115.36 1.905h-51.45l-19.436 14.738h70.885c1.801 0 3.275-1.474 3.275-3.275v-8.188c0-1.801-1.474-3.275-3.275-3.275"/></g></svg>