<svg width="130.77" xmlns="http://www.w3.org/2000/svg" viewBox="0 0 130.7728 366.53011" enable-background="new 0 0 130.771 366.528"><path fill="none" stroke="#fff" stroke-linejoin="round" stroke-linecap="round" stroke-width="2" d="m67.37 198.79c-1.156 0-2.372 0-3.723 0-.383 1.664-.762 3.374-1.172 5.077-.346 1.434-.75 2.853-1.085 4.289-.191.819-.289 1.66-.445 2.488-.122.647-.248 1.294-.411 1.932-.357 1.399-.766 2.784-1.101 4.188-.197.827-.256 1.687-.444 2.517-.325 1.437-.705 2.861-1.057 4.292-.157.639-.327 1.276-.453 1.921-.282 1.453-.512 2.917-.817 4.366-.34 1.619-.756 3.222-1.106 4.838-.181.832-.303 1.678-.432 2.521-.268 1.755-.471 3.522-.798 5.266-.306 1.632-.763 3.236-1.103 4.862-.193.922-.239 1.875-.434 2.797-.317 1.495-.706 2.974-1.06 4.461-.153.642-.304 1.285-.44 1.931-.278 1.317-.496 2.649-.832 3.951-.31 1.2-.722 2.375-1.123 3.549-.64 1.875-1.245 3.767-1.979 5.606-1.217 3.047-2.6 6.03-3.763 9.1-.586 1.544-.834 3.214-1.255 4.822-.334 1.276-.779 2.529-1.022 3.821-.206 1.097-.215 2.235-.275 3.356-.097 1.803-.146 3.608-.249 5.41-.111 1.946-.118 3.913-.432 5.827-.318 1.935-.972 3.814-1.451 5.725-.305 1.216-.531 2.452-.843 3.666-.334 1.301-.77 2.576-1.085 3.881-.325 1.347-.541 2.721-.839 4.075-.195.885-.459 1.754-.681 2.634-.169.67-.35 1.339-.473 2.02-.28 1.545-.51 3.1-.792 4.645-.357 1.955-.746 3.905-1.122 5.857-.006.032-.016.063-.019.095-.135 1.562-.236 3.128-.413 4.686-.222 1.959.578 3.657 1.226 5.412.332.898.626 1.849.704 2.794.193 2.347-.158 4.654-.692 6.947-.171.733-.057 1.542-.016 2.313.094 1.764.452 3.55.274 5.283-.175 1.707-.677 3.101-2.912 3.798-1.717.535-2.983.103-4.258-.937-.211-.172-.715-.212-.958-.081-1.32.712-2.524.551-3.729-.265-.212-.143-.58-.057-.876-.076-.796-.051-1.591-.098-2.386-.159-.086-.007-.178-.145-.248-.131-1.385.288-2.551-.512-3.828-.747-.892-.165-1.711-.581-1.95-1.354-.233-.751-.376-1.687.35-2.447 1.433-1.498 3.045-2.758 4.832-3.794 1.164-.675 1.799-1.632 1.686-2.995-.079-.948-.338-1.891-.321-2.833.018-1.037.214-2.079.419-3.101.159-.791.489-1.547.678-2.333.778-3.236.343-6.527.335-9.791-.003-1.414-.456-2.823-.666-4.24-.176-1.188-.261-2.39-.447-3.577-.181-1.15-.445-2.287-.663-3.432-.165-.867-.351-1.732-.464-2.606-.167-1.291-.258-2.591-.418-3.883-.195-1.575-.428-3.145-.647-4.716-.022-.159-.087-.315-.092-.474-.142-4.667-.408-9.336-.355-14 .023-2.063.725-4.114 1.068-6.179.578-3.477 1.827-6.746 3.158-9.973 1.027-2.488 2.318-4.866 3.447-7.314.665-1.442 1.301-2.892 1.192-4.564-.084-1.286.016-2.583-.024-3.873-.064-2.027.478-3.92 1.1-5.819.605-1.847.975-3.777 1.662-5.589.834-2.199.823-4.451.702-6.703-.116-2.166-.47-4.32-.72-6.479-.007-.064-.019-.128-.022-.192-.129-2.308-.196-4.622-.395-6.924-.764-8.824-.311-17.664-.337-26.496-.001-3.261.474-6.526.794-9.783.171-1.738.419-3.472.729-5.19.312-1.731.776-3.435 1.113-5.163.205-1.054.244-2.14.448-3.195.299-1.55.671-3.086 1.026-4.624.284-1.233.599-2.458.883-3.691.382-1.659.778-3.316 1.111-4.985.203-1.02.284-2.063.445-3.092.225-1.44.476-2.877.71-4.316.036-.221.027-.449.059-.67.23-1.569.466-3.137.701-4.706.019-.127.063-.251.07-.378.127-2.377.129-4.768.4-7.128.5-4.369.415-8.745.343-13.12-.027-1.634-.449-3.261-.698-4.89-.134-.873-.257-1.75-.434-2.614-.345-1.686-.733-3.363-1.088-5.05-.169-.802-.277-1.618-.464-2.416-.191-.813-.448-1.609-.67-2.415-.157-.571-.326-1.141-.451-1.72-.283-1.308-.497-2.633-.832-3.927-.148-.573-.522-1.088-.868-1.778-1.163 2.866-2.283 5.453-3.258 8.093-.662 1.791-1.095 3.664-1.675 5.487-.809 2.543-.937 5.175-1.189 7.805-.205 2.132-.762 4.229-1.112 6.35-.186 1.128-.228 2.28-.404 3.411-.17 1.092-.426 2.17-.649 3.253-.165.801-.335 1.6-.507 2.399-.389 1.812-.677 3.653-1.2 5.426-.612 2.073-1.417 4.089-2.161 6.122-.669 1.829-1.321 3.666-2.064 5.464-1.06 2.562-2.24 5.075-3.282 7.645-.553 1.365-1.01 2.783-1.353 4.215-.545 2.274.058 4.521.294 6.785.196 1.882 1.044 3.513 1.549 5.271.087.301.081.636.081.955.005 2.744-.04 5.49.017 8.233.035 1.695.223 3.387.344 5.081.007.095.004.251.055.274 1.326.621.917 2.515 2.523 3.099-.689.537-1.258.931-1.756 1.399-.165.155-.293.626-.194.741.46.532.07.839-.291.969-2.056.736-4.167 1.576-6.296.394-1.443-.802-2.868-1.715-4.085-2.817-.784-.711-1.22-1.832-1.734-2.81-.764-1.454-1.397-2.979-2.2-4.411-.743-1.325-.018-2.472.235-3.685.045-.213.161-.412.201-.625.383-2.045.802-4.085 1.116-6.141.222-1.451.411-2.924.419-4.389.042-7.264-.017-14.529.037-21.794.022-2.865.195-5.732.396-8.591.172-2.451.412-4.902.747-7.335.289-2.092.774-4.155 1.135-6.238.174-1 .213-2.032.4-3.03.184-.982.484-1.941.724-2.913.159-.643.278-1.297.453-1.936.354-1.294.764-2.572 1.092-3.872.314-1.245.522-2.517.835-3.763.326-1.299.726-2.58 1.085-3.871.295-1.063.572-2.132.865-3.195.354-1.284.74-2.559 1.069-3.849.201-.788.319-1.597.481-2.395.136-.67.257-1.345.43-2.01.206-.788.517-1.552.682-2.348.313-1.508.523-3.037.834-4.546.337-1.634.778-3.248 1.104-4.884.21-1.052.275-2.132.44-3.194.198-1.281.433-2.557.654-3.834.022-.126.08-.248.087-.373.142-2.304.234-4.613.43-6.913.187-2.194.477-4.379.733-6.567.11-.944.167-1.905.394-2.822.33-1.33.726-2.652 1.218-3.93.531-1.382 1.169-2.728 1.824-4.058 1.071-2.173 3.064-3.331 5.138-4.258 1.349-.603 2.878-.792 4.301-1.244 2.309-.732 4.568-1.467 6.624-2.924 3-2.129 6.312-3.825 9.394-5.853 1.81-1.192 3.53-2.568 5.094-4.067.686-.658.931-1.809 1.283-2.77.225-.616.315-1.289.404-1.945.185-1.361-.206-2.561-.931-3.733-.376-.609-.466-1.414-.607-2.145-.301-1.554-.55-3.118-.82-4.671-2.489-.639-3.425-1.763-3.862-4.339-.25-1.477-.658-2.93-1.048-4.379-.292-1.084.38-2.924 1.302-3.626.276-.21.503-.658.518-1.01.058-1.386.023-2.776.024-4.164.004-3.376 1.021-6.44 2.807-9.284 2.127-3.388 5.271-5.49 8.868-6.974.85-.351 1.853-.347 2.792-.46 1.013-.122 2.034-.279 3.05-.265 3.258.047 6.206 1.061 8.939 2.85 3.302 2.162 5.438 5.192 6.773 8.815.68 1.846 1.093 3.783.909 5.785-.122 1.329-.317 2.652-.397 3.983-.017.284.256.763.504.853 1.04.379 1.351 1.151 1.417 2.144.133 2.037-.35 3.948-1.13 5.805-.411.978-.738 1.999-1.239 2.926-.2.37-.738.674-1.175.773-.772.174-1.091.459-1.159 1.327-.127 1.636-.474 3.255-.736 4.88-.02.122-.058.27-.141.348-1.527 1.417-1.169 3.095-.695 4.802.243.874.227 1.902.701 2.611.844 1.263 1.838 2.501 3.01 3.451 1.774 1.437 3.734 2.649 5.652 3.901 2.249 1.468 4.51 2.922 6.818 4.293 1.644.976 3.317 1.949 5.085 2.652 1.521.605 3.238.7 4.791 1.244 2.681.939 5.02 2.38 6.682 4.833 1.453 2.143 2.444 4.447 2.981 6.945.351 1.632.564 3.299.746 4.96.192 1.748.254 3.51.406 5.263.241 2.775.432 5.557.793 8.317.239 1.825.748 3.614 1.116 5.423.158.776.272 1.561.397 2.344.267 1.682.474 3.375.808 5.04.302 1.508.772 2.981 1.107 4.483.321 1.441.521 2.909.854 4.347.297 1.282.72 2.534 1.059 3.807.427 1.604.812 3.22 1.243 4.823.335 1.249.743 2.479 1.06 3.732.324 1.283.552 2.591.867 3.876.255 1.039.592 2.058.864 3.094.246.937.463 1.881.673 2.827.157.705.272 1.42.422 2.127.228 1.076.49 2.146.702 3.225.165.838.304 1.683.405 2.53.169 1.422.282 2.85.447 4.272.217 1.869.462 3.734.693 5.601.02.16.041.32.045.48.131 5.02.278 10.05.381 15.07.047 2.291-.211 4.612.069 6.869.29 2.332-.192 4.606-.055 6.903.116 1.953.182 3.916.452 5.85.207 1.485.923 2.919 1 4.397.084 1.621.576 3.116.821 4.675.111.708-.089 1.559-.406 2.221-.976 2.041-1.919 4.129-3.186 5.987-.76 1.115-2.037 1.928-3.196 2.706-1.274.854-2.689 1.566-4.303 1.307-1.146-.184-2.291-.469-3.384-.858-.654-.232-.803-.799-.066-1.332-.739-.611-1.414-1.17-2.171-1.796.368-.298.661-.533.951-.773.117-.097.336-.236.318-.305-.255-.959.462-1.369 1.012-1.885.104-.098.176-.275.187-.422.122-1.595.291-3.191.326-4.788.054-2.423.106-4.854-.019-7.272-.082-1.595.552-2.947.967-4.393.408-1.42.707-2.874 1.017-4.32.167-.779.309-1.571.368-2.364.218-2.921-.856-5.525-1.997-8.127-1.318-3-2.565-6.04-3.795-9.08-.917-2.267-1.815-4.544-2.614-6.854-.52-1.504-.852-3.074-1.26-4.617-.375-1.417-.756-2.833-1.102-4.258-.178-.733-.308-1.48-.421-2.226-.161-1.063-.26-2.136-.434-3.197-.194-1.179-.442-2.348-.669-3.522-.018-.093-.073-.181-.082-.274-.135-1.362-.237-2.728-.403-4.086-.184-1.516-.425-3.03-.64-4.537-.041-.286-.063-.576-.113-.861-.249-1.422-.516-2.842-.754-4.266-.507-3.03-2.049-5.656-3.249-8.418-.584-1.345-1.065-2.735-1.61-4.152-.281.088-.605.189-.829.259-.43 1.69-.867 3.285-1.235 4.897-.329 1.44-.558 2.903-.871 4.348-.333 1.535-.718 3.059-1.069 4.59-.161.701-.314 1.405-.436 2.113-.161.935-.284 1.876-.432 2.813-.238 1.502-.486 3-.722 4.504-.035.222-.044.449-.045.674-.003 2.583-.096 5.17.027 7.748.106 2.234.458 4.457.701 6.685.004.032.011.064.014.096.141 1.846.241 3.697.435 5.538.193 1.836.481 3.663.726 5.493.017.128.036.255.046.383.125 1.659.191 3.324.394 4.973.118.96.467 1.891.692 2.839.168.706.31 1.419.45 2.132.396 2.01.669 4.061 1.21 6.03.53 1.934.952 3.858 1.156 5.86.165 1.622.705 3.202 1.01 4.814.338 1.804.664 3.616.874 5.438.317 2.761.332 5.57.843 8.29.503 2.679.234 5.333.321 7.995.114 3.48.18 6.964.183 10.446.002 3.128-.035 6.259-.195 9.382-.118 2.296-.463 4.581-.708 6.871-.003.032-.001.064-.013.096-.139 2.109-.278 4.219-.417 6.328-.129 1.955-.359 3.911-.347 5.865.006 1.073.391 2.151.655 3.214.249 1 .559 1.987.851 2.977.284.96.585 1.916.871 2.876.501 1.68 1.095 3.339 1.073 5.131-.016 1.305.076 2.617-.02 3.915-.179 2.425.83 4.478 1.809 6.577 1.263 2.707 2.47 5.442 3.626 8.197.707 1.685 1.351 3.406 1.88 5.154.405 1.336.536 2.753.874 4.113 1.174 4.719.699 9.522.699 14.291 0 2.123-.447 4.247-.689 6.37-.018.16-.002.324-.024.483-.253 1.854-.518 3.706-.764 5.561-.154 1.159-.244 2.328-.43 3.481-.186 1.153-.464 2.291-.685 3.44-.162.841-.328 1.682-.434 2.531-.167 1.325-.341 2.653-.412 3.985-.158 2.949-.314 5.902-.34 8.854-.009.982.386 1.968.592 2.953.174.831.383 1.658.505 2.498.159 1.089.325 2.188.343 3.284.013.78-.229 1.562-.33 2.347-.125.976.443 1.685 1.108 2.215 1.375 1.098 2.822 2.108 4.266 3.116 1.212.846 1.816 1.927 1.608 3.434-.107.781-.917 1.476-1.928 1.592-.31.035-.677.049-.908.22-.702.518-1.461.517-2.286.528-.83.011-1.736.569-2.468.369-1.342-.366-2.285.518-3.424.656-.639.077-1.42-.045-1.959-.371-.599-.362-.909-.129-1.251.201-2.258 2.179-6.47.633-6.804-2.128-.215-1.776-.216-3.436-.009-5.192.175-1.493-.019-3.06-.248-4.564-.51-3.344-.847-6.63.841-9.79 1.083-2.026.746-4.213.496-6.368-.04-.348-.167-.685-.208-1.033-.268-2.241-.423-4.501-.812-6.721-.373-2.124-1.013-4.199-1.481-6.307-.32-1.441-.498-2.914-.827-4.353-.297-1.3-.736-2.568-1.067-3.861-.312-1.217-.551-2.452-.847-3.673-.301-1.242-.65-2.472-.946-3.715-.35-1.466-.713-2.931-.983-4.413-.285-1.564-.483-3.144-.686-4.721-.082-.636-.08-1.284-.108-1.927-.125-2.889-.16-5.787-.411-8.665-.112-1.279-.66-2.519-1.01-3.777-.166-.6-.443-1.194-.474-1.801-.099-1.955-1.026-3.637-1.715-5.385-1.422-3.607-3.01-7.148-4.419-10.759-.574-1.474-.848-3.064-1.275-4.596-.361-1.295-.799-2.57-1.105-3.877-.33-1.406-.523-2.844-.82-4.259-.192-.913-.482-1.806-.696-2.715-.181-.768-.339-1.542-.463-2.321-.153-.963-.213-1.943-.401-2.899-.181-.92-.495-1.812-.711-2.726-.173-.731-.308-1.472-.419-2.215-.154-1.032-.24-2.076-.412-3.105-.176-1.057-.422-2.102-.633-3.153-.18-.894-.341-1.792-.532-2.683-.224-1.043-.486-2.079-.704-3.123-.173-.827-.279-1.668-.461-2.492-.201-.915-.458-1.817-.683-2.726-.158-.641-.322-1.281-.452-1.928-.401-2-.752-4.02-1.191-6.02-.308-1.401-.754-2.771-1.089-4.167-.199-.831-.279-1.69-.457-2.527-.182-.854-.42-1.695-.632-2.542-.175-.698-.375-1.39-.517-2.094-.334-1.606-.628-3.219-.946-4.889zm53.751-.444c-.191 2.758-.374 5.408-.554 8.02 1.827-.838 3.216-5.308.554-8.02zm-111.49-.047c-1.911 2.152-1.839 7.04.663 8.06-.216-2.616-.438-5.309-.663-8.06z" stroke-miterlimit="10"/></svg>