<svg xmlns="http://www.w3.org/2000/svg" viewBox="0 0 39.71 32.75" xmlns:xlink="http://www.w3.org/1999/xlink" enable-background="new 0 0 39.71 32.75"><symbol viewBox="-42.439 -35 84.877 70" id="0"><path fill="#fff" d="m11.08-29.23c1.327-1.228 2.055-2.821 2.752-4.432.28-.647.062-1.075-.643-1.184-.462-.071-.935-.091-1.404-.102-1.177-.026-2.354-.03-3.531-.05-.759-.013-.986.18-1.126.929-.265 1.413-.884 2.682-1.699 3.844-.798 1.139-1.685 2.215-2.513 3.334-.522.706-.994 1.449-1.515 2.156-.333.453-.72.866-1.072 1.306-.164.205-.327.209-.568.123-2.106-.756-4.272-1.265-6.513-1.344-1.985-.07-3.899.265-5.683 1.212-1.258.668-2.524 1.327-3.825 1.904-.527.234-1.164.354-1.738.32-.934-.055-1.591.388-2.218.942-.999.881-1.57 2.02-1.903 3.291-.156.596-.147.584-.738.344-1.044-.424-2.079-.88-3.148-1.233-1.594-.527-3.224-.329-4.844-.085-1.673.252-3.35.477-5.02.751-.9.148-1.514.79-2.101 1.418-.927.992-1.483 2.202-1.94 3.465-.523 1.446-1.05 2.894-1.091 4.454-.013.496.075.995.108 1.493.009.131.029.291-.031.393-.691 1.161-.767 2.464-.919 3.756-.141 1.194-.355 2.378-.52 3.569-.141 1.021-.073 2.034.194 3.03.431 1.613 1.309 2.972 2.376 4.231.151.178.27.424.302.653.267 1.893.651 3.758 1.726 5.374.616.926 1.143 1.843 1.443 2.94.383 1.403 1.409 2.459 2.348 3.537.175.201.361.394.525.603.909 1.157 1.9 2.2 3.326 2.746.554.212.881.702 1.198 1.212.273.439.694.798 1.092 1.145 1.899 1.655 4.136 2.703 6.484 3.538 2.229.793 4.541 1.408 6.675 2.404 2.143 1 4.349 1.168 6.62 1.318.954.063 1.887.407 2.836.588.766.146 1.546.358 2.314.335 1.813-.054 3.622-.246 5.434-.353 1.092-.065 2.188-.086 3.282-.107 1.264-.024 2.499-.216 3.686-.649.676-.246 1.345-.525 1.986-.852.923-.47 1.853-.85 2.89-1.045 1.575-.297 2.911-1.211 4.323-1.923 1.032-.521 2.092-.998 3.173-1.407 1.914-.724 3.722-1.593 5.083-3.187.163-.191.355-.379.445-.604.301-.751.932-1.139 1.561-1.559 2.113-1.41 4.047-3.049 5.128-5.387.59-1.276 1.498-2.185 2.436-3.136 1.472-1.493 2.473-3.266 3.02-5.293.047-.176.114-.373.236-.497 1.584-1.613 2.265-3.612 2.511-5.8.311-2.772.142-5.553-.51-8.228-.818-3.354-2.555-6.198-5.773-7.876-.9-.469-1.546-1.205-1.906-2.133-.43-1.108-.72-2.27-1.147-3.38-.284-.739-.7-1.427-1.059-2.137-.049-.097-.134-.185-.154-.287-.393-2.027-1.616-3.514-3.261-4.603-1.852-1.226-3.73-2.479-5.752-3.364-3.674-1.608-7.499-1.769-11.326-.391-.082.03-.17.044-.255.066-.024-.032-.047-.064-.069-.097m10.409 2.359c1.884.271 3.727.665 5.32 1.806-.13-.027-.253-.076-.378-.122-1.218-.448-2.434-.903-3.657-1.337-.415-.147-.85-.239-1.278-.355-.954-.066-1.907-.133-2.861-.199.003-.032.006-.064 0-.096.949.1 1.897.202 2.844.303m7.174 6.462c-.589-.234-1.166-.503-1.768-.694-1.766-.56-3.591-.823-5.432-.99 3.284-.224 8.481 1.27 9.4 2.722-.199-.109-.357-.206-.523-.283-.561-.259-1.125-.511-1.688-.766.083.069.166.137.175.145-1.418-.209-2.882-.454-4.355-.633-1.785-.217-3.581-.341-5.362-.58-.811-.109-1.598-.397-2.396-.604 0-.039.02-.078.029-.117.057 0 .113.021.17.03 1.36.201 2.716.441 4.081.593 1.508.168 3.035.189 4.535.401 1.061.148 2.091.51 3.134.776m-12.872 24.337c-.011-.049-.021-.098-.032-.147-.104 0-.208 0-.312 0-.968-.004-1.94.044-2.903-.029-.744-.056-1.478-.26-2.216-.403-1.211-.236-2.356-.136-3.436.54-.3.188-.729.312-1.071.264-1.143-.161-2.323-.276-3.399-.659-2.122-.756-4.207-1.627-6.263-2.55-1.582-.71-3.12-1.528-4.632-2.379-1.868-1.05-3.703-2.161-5.525-3.29-.928-.575-1.866-1.168-2.678-1.891-1.681-1.496-2.655-3.478-3.447-5.541-.501-1.306-1.07-2.575-1.032-4.06.052-2.06 1.721-4.03 3.489-4.133 1.387-.085 2.494-.63 3.637-1.347 3.01-1.886 6.259-2.583 9.76-1.633.139.038.247.191.37.291-.123.076-.238.175-.372.225-.293.111-.595.197-.893.293.697-.067 1.372-.242 2.049-.252 2.086-.031 4 .68 5.873 1.503.565.248 1.107.602 1.355 1.254-.768.888-1.909.474-2.837.851.379.106.767.21 1.134.161.759-.101 1.5-.331 2.259-.426 2.882-.363 5.656-.003 8.266 1.337.279.143.535.363.829.436 1.442.359 2.702 1.093 3.918 1.898.729.482 1.446.799 2.351.726.648-.052 1.311.06 1.966.114 2.337.194 4.646.521 6.778 1.581.862.428 1.693.919 2.573 1.4-.106-.188-.2-.342-.283-.502-.266-.512-.149-.703.42-.762 1.332-.14 2.585.206 3.696.852 3.862 2.247 5.932 5.607 6.05 10.117.009.329-.054.554-.422.592-.355.037-.593-.055-.693-.452-.106-.424-.271-.835-.436-1.241-.164-.403-.361-.794-.543-1.19-.066.023-.131.046-.197.069.147.549.259 1.11.449 1.643.353.986.447 1.971.214 3-.073.321-.004.674 0 1.012.065.007.131.014.196.021.098-.254.223-.501.287-.764.1-.411.145-.835.246-1.246.027-.109.171-.266.26-.264.122.002.304.107.35.215.089.211.127.453.142.685.076 1.136-.455 2.043-1.189 2.821-.445.472-.649.975-.737 1.603-.183 1.298-.572 2.54-1.334 3.631-.264.378-.598.677-1.126.677-.026-.122-.052-.226-.069-.332-.177-1.14-.548-2.233-1.351-3.054-.69-.706-.752-1.446-.52-2.285.329-1.192.685-2.367.537-3.638-.067-.575.302-.948.882-1.012.486-.054.718.312.818.69.173.647.292 1.313.387 1.977.098.683.14 1.373.206 2.061.047.002.095.004.142.005.076-.215.168-.427.224-.647.278-1.08.227-2.134-.195-3.181-.276-.684-.465-1.388-.228-2.152.198-.64.355-1.3.451-1.962.413-2.851-1.541-5.116-3.816-5.72-1.141-.303-2.262-.17-3.396.068-2.083.437-4.18.642-6.302.253-.517-.095-.937-.276-1.237-.735-.222-.339-.491-.654-.775-.944-.283-.288-.611-.532-.919-.795-.041.039-.081.077-.122.116.159.262.319.523.476.786.469.786.85 1.603.961 2.529.193 1.616-.305 2.343-1.878 2.705-.244.056-.488.119-.727.192-.102.031-.193.096-.289.145.1.075.176.08.252.074.078-.006.164-.003.231-.035.845-.4 1.749-.311 2.637-.299.895.012 1.688.313 2.319.979 1.361 1.435 1.841 3.184 1.72 5.099-.108 1.701-.332 3.395-.488 5.094-.064.698-.085 1.399-.131 2.175-.512-.071-1-.178-1.493-.197-.482-.019-.967.051-1.45.082 0 .054.002.109.003.163.165.038.331.072.495.115.873.232 1.799.35 2.607.724 2.097.969 3.56 2.68 4.89 4.508.089.123.134.282.181.43.356 1.129.216 2.234-.196 3.316-.7 1.841-1.933 3.325-3.241 4.751-.655.714-1.409 1.285-2.423 1.412-.607.076-.869-.125-.815-.68.251-2.575-.463-4.963-1.427-7.299-.085-.205-.258-.373-.39-.558.045.51.195.953.32 1.403.122.44.217.887.323 1.332-.03.002-.059.005-.089.007-.5-.684-.999-1.368-1.499-2.052-.044.029-.087.058-.131.087.2.364.426.718.596 1.096.352.781.793 1.548.979 2.37.198.875.153 1.807.19 2.715 0 .245-.06.496-.109.741-.061.303-.219.488-.562.52-.919.086-1.834.264-2.754.283-1.083.022-2.157-.118-3.125-.695-.303-.181-.407-.355-.287-.718.36-1.086.694-2.181 1.01-3.281.159-.557.256-1.132.405-1.807-.133.111-.167.126-.176.15-.653 1.66-1.301 3.321-1.956 4.979-.192.485-.484.911-1.028 1.014-2.317.44-4.47.086-6.334-1.446-.743-.611-1.296-1.307-1.473-2.353-.402-2.374-1.575-4.314-3.692-5.585-.426-.256-.439-.618-.359-1.018.247-1.229.492-2.458.765-3.682.297-1.332 1.166-2.146 2.43-2.573 1.269-.429 2.586-.452 3.905-.45.705 0 1.248.397 1.37 1.097.319 1.819.691 3.636.875 5.47.208 2.071.037 4.136-.689 6.121-.049.135-.073.28-.109.42 1.073-1.492 1.391-3.22 1.586-5.02 1.141.404 2.248.658 3.407.475 1.491-.235 3.036-1.081 3.216-2.973.021-.218.068-.434.114-.648.143-.667.345-1.299.891-1.77.248-.214.324-1.01.163-1.367-.331.595-.631 1.196-.988 1.761-.727 1.149-1.65 2.01-3.128 2.024-.276.002-.552.089-.946.158 1.09.572 2.076.158 3.119.166-.135.351-.266.711-.516.945-1.082 1.016-2.389 1.295-3.794.905-.624-.173-1.328-.423-1.466-1.214-.346-1.992-.655-3.991-.992-5.985-.058-.346.038-.431.391-.5.91-.186 1.801-.451 2.699-.681m-24.353 15.12c.033-.06.067-.121.1-.181-.615-.385-1.203-.825-1.851-1.142-.904-.443-1.382-1.165-1.557-2.103-.211-1.137-.393-2.281-.542-3.427-.289-2.22-.594-4.44-.801-6.668-.182-1.958.143-3.82 1.541-5.34.513-.557 1.091-1 1.926-.825.378.08.738.253.759.661.029.572.025 1.166-.099 1.72-.206.915-.528 1.803-.78 2.708-.055.198-.025.42-.035.631.202-.244.278-.498.376-.744.353-.887.686-1.784 1.083-2.651.242-.528.721-.67 1.257-.45.898.368 1.8.731 2.683 1.134 1.31.599 2.582 1.288 3.913 1.832 1.23.503 2.515.872 3.781 1.285.313.102.42.282.367.592-.08.463-.142.929-.23 1.39-.208 1.09-.428 2.177-.641 3.266-.068.347-.252.565-.626.586-.11.006-.22.023-.401.042.206.196.346.344.5.475.8.681 1.606 1.353 2.404 2.037 1.034.885 1.67 1.981 1.5 3.373-.095.782-.279 1.587-.604 2.298-.447.978-1.025 1.905-1.624 2.802-.499.747-.844 1.53-.964 2.413-.029.21-.004.427-.004.641.043.002.085.004.128.006.055-.21.097-.424.169-.627.125-.353.231-.72.415-1.042.248-.435.619-.449 1.033-.173.807.537 1.613 1.081 2.46 1.548 1.028.567 2.113 1.032 3.147 1.591.919.497.982.604.747 1.605-.087.373-.403.735-.701 1.01-.31.282-.726.447-1.137.687.527.168.952.004 1.331-.283.387-.293.753-.614 1.116-.938.433-.387.949-.533 1.487-.391.606.16 1.185.423 1.816.655-.656.527-1.242 1.023-1.854 1.484-.521.392-1.095.634-1.78.629-.889-.006-1.783.023-2.668.106-1.199.112-2.393.288-3.588.441-.388.05-.56-.157-.579-.501-.022-.404 0-.811-.008-1.217-.008-.409.218-.645.573-.766.218-.074.455-.096.747-.154-.154-.049-.251-.093-.353-.111-1.876-.339-3.415-1.346-4.783-2.584-1.925-1.743-2.486-4.046-2.494-6.564-.004-1.298.532-2.073 1.769-2.405.193-.052.391-.144.547-.267.237-.187.439-.418.655-.63-.024-.036-.049-.073-.073-.109-.16.047-.327.08-.48.143-.463.19-.919.399-1.383.588-.653.266-1.281.288-1.839-.231-.469-.437-.988-.831-1.401-1.315-1.304-1.53-2.051-3.363-2.706-5.233-.117-.333-.135-.707-.153-1.065-.059-1.176.332-2.253.769-3.317.262-.639.529-1.276.794-1.914-.032-.024-.065-.045-.098-.066-.369.34-.738.68-1.089 1-.217-.686-.441-1.392-.666-2.099-.047.011-.094.022-.141.033 0 1.128.017 2.256-.004 3.384-.043 2.316-.428 4.552-1.566 6.613-.167.302-.236.658-.35.989.046.024.093.048.139.072.281-.87.662-1.657 1.583-2.036.214.382.396.747.613 1.089.671 1.058 1.331 2.126 2.048 3.152.281.402.731.682 1.057 1.058.753.868.798 1.955.823 3.02.049 2.117.554 4.063 1.978 5.696 1.075 1.233 2.387 2.167 3.79 2.987.15.087.361.233.372.366.053.637.07 1.279.054 1.917-.011.424-.248.697-.705.723-1.593.089-3.186.207-4.78.262-1.646.058-2.834-.777-3.714-2.093-.288-.431-.428-.93-.226-1.396 1.1.179 2.145.349 3.191.519-.884-.485-1.841-.788-2.604-1.353-2.575-1.904-4.11-4.52-4.848-7.613-.161-.677-.242-1.373-.376-2.153.502.184.884.316 1.26.463.372.145.737.303 1.105.455m-25-15.351c-.046-.016-.091-.032-.137-.049-.176.388-.425.761-.511 1.168-.147.701-.383.828-.961.387-.123-.094-.239-.207-.328-.333-.632-.9-.564-2.875.149-3.707 1.164-1.36 2.731-1.819 4.443-1.916.747-.042 1.205.255 1.484.957.109.273.168.571.219.862.165.933.141 1.93.99 2.636-.352.289-.668.549-.87.715.955-.156 2.01-.377 3.071-.484.726-.073 1.472-.025 2.203.043.668.062.824.277.926.94.081.527.162 1.054.272 1.575.454 2.146 1.494 3.871 3.518 4.9.543.276 1.044.636 1.575.937.345.196.403.456.326.825-.216 1.038-.887 1.811-1.442 2.665-.557.858-1.318 1.025-2.231.966-.364-.024-.73-.004-1.197-.004.742.65 1.568.526 2.366.591.012.744-.234 1.513.365 2.209.038-.301.069-.531.096-.761.132-1.09.506-2.045 1.335-2.826.412-.388.685-.925 1.01-1.402.421-.619.791-1.277 1.259-1.858.364-.451 1.332-.562 1.828-.266.177.106.341.33.394.531.159.605.244 1.23.388 1.84.804 3.406 1.724 6.774 3.332 9.91.057.111.106.229.138.349.171.642.136.764-.476 1.01-.357.142-.768.29-1.131.245-1.283-.159-2.555-.4-3.803-.606-.025-.259-.039-.407-.053-.557-.504.061-.966.159-1.429.165-2.427.03-4.554-.869-6.532-2.185-.255-.169-.454-.429-.658-.666-.101-.117-.152-.275-.236-.434.275-.043.475-.074.748-.116-.112-.095-.142-.144-.18-.149-2.173-.314-3.952-1.431-5.643-2.743-.905-.702-1.394-1.674-1.8-2.694-.113-.284-.06-.635-.085-.975.576-.082 1.082-.155 1.583-.226.414 1.601 1.366 2.657 2.884 3.202.126.045.253.124.347.219 2.845 2.871 6.349 4.101 10.324 4.128.628.004 1.164.16 1.678.494.372.242.764.451 1.148.675.038-.052.075-.103.113-.155-.358-.307-.689-.655-1.08-.912-.843-.555-.855-.536-.691-1.544.004-.023-.023-.05-.035-.076-1.228.796-1.229.809-1.998.769-1.719-.088-3.379-.434-4.98-1.089-2.236-.915-3.914-2.641-5.825-4.02-1.271-.916-1.102-2.595.162-3.539.646-.482 1.389-.755 2.188-.756 1.436-.002 1.285.057 1.707 1.139.142.363.214.753.31 1.132.054.212.092.427.167.776.068-.21.096-.277.112-.348.192-.882-.023-1.711-.339-2.523-.534-1.373-1.329-2.663-1.301-4.216-.549 1.125-.031 2.271-.06 3.395-1.648.215-1.878.284-2.888.952-.602.398-1.162.866-1.789 1.217-.439.246-.952.463-1.444.494-2.324.146-4.81-1.792-5.213-4.081-.101-.576.049-1.203.122-1.801.055-.449.438-.604.798-.551.677.101 1.35.264 2 .468.462.144.694.527.657 1.027-.021.28-.062.559-.115.835-.095.492-.238.977-.296 1.472-.031.263.073.541.116.813.039-.005.077-.011.116-.016.016-2.43 1.669-3.706 3.437-4.932-.556.184-1.085.406-1.59.673-.486.257-.954.24-1.446.04-1.098-.447-1.628-1.261-1.618-2.442.009-.793.003-1.59.003-2.387m12.295-11.133c.004.067.008.134.012.201-.816.71-1.752 1.274-2.832 1.382-1.625.163-3.09.666-4.38 1.646-.656.499-1.253 1.076-1.883 1.624-.688-.575-.974-1.346-.912-2.383.095-1.592.686-2.981 1.681-4.207.344-.424.721-.821 1.083-1.231-.156.029-.278.094-.392.17-1.573 1.039-2.462 2.541-2.959 4.324-.087.311-.286.613-.5.862-.274.319-.639.558-.922.87-.364.402-.926.659-1.028 1.394.17-.178.258-.3.374-.387.47-.35.937-.707 1.434-1.017.101-.063.452.036.468.108.161.748.77 1.163 1.2 1.71.171.217.286.479.422.712-1.791.354-3.474.703-4.833 1.883-.234.204-.448.165-.688.048-.661-.323-1.057-.907-1.491-1.466-.965-1.242-.945-2.547-.271-3.883.32-.634.724-1.226 1.135-1.911-.88.448-1.435 1.095-1.792 1.916-.143.33-.302.376-.546.124-.152-.157-.304-.318-.433-.494-.76-1.045-.848-2.255-.569-3.426.34-1.425.858-2.811 1.354-4.194.751-2.098 2.36-3.13 4.489-3.431 1.223-.173 2.451-.317 3.682-.414 2.313-.182 4.578.028 6.703 1.049.738.355 1.545.667 1.857 1.541.057.159.103.417.021.508-.106.117-.359.176-.528.145-.414-.074-.817-.209-1.222-.33-1.035-.308-2.066-.63-3.103-.93-.289-.084-2.351-.883-2.607-1.051-.026-.017-.051-.045-.08-.049-.213-.03-.427-.055-.641-.082.134.137.272.271.4.413.128.142.247.293.37.439-.156.099-.301.228-.47.291-.715.269-1.44.515-2.157.778-.274.101-.53.262-.81.336-1.353.357-2.337 1.301-3.423 2.086.869-.174 1.424-1.047 2.379-1.041-.961.826-1.289 1.995-1.747 3.097.3-.262.533-.571.721-.905.152-.27.183-.632.381-.849 1.145-1.256 2.462-2.263 4.122-2.776 1.709-.529 3.354-.241 4.977.323 2.296.797 4.203 2.107 5.362 4.311.216.412.296.917.347 1.388.047.436-.147.555-.582.472-.707-.136-1.411-.298-2.122-.408-.987-.153-1.979-.225-2.85.049 1.209.212 2.504.439 3.799.665m4.057 13.29c.281.787.528 1.477.774 2.166-.062-.755-.281-1.466-.327-2.188-.189-2.953.939-5.447 2.808-7.653.469-.554.648-.592 1.249-.344.301.124.591.295.854.488.432.318.418.771.061 1.171-.362.406-.715.833-.999 1.296-.804 1.313-1.01 2.79-1.034 4.292-.03 1.802-.037 3.606.007 5.408.018.731-.367 1.072-.949 1.264-.347.114-.739.16-1.105.139-1.118-.065-2.041-.66-2.992-1.172-1.374-.739-2.223-1.899-2.72-3.348-.48-1.398-.481-2.832-.333-4.28.024-.237.003-.479.003-.839-1.288 1.19-1.5 1.136-3.119 1.049-.703-.037-1.402-.156-2.105-.183-.725-.028-.982-.151-1.16-.858-.109-.433-.12-.895-.133-1.345-.009-.327.051-.656.087-1.06-.409.429-.47.427-.781.05-.532-.645-.553-2.263-.035-2.927.892-1.145 2.11-1.763 3.493-2.043 1.116-.226 2.274-.262 3.28-.889.199-.124.421-.21.63-.318 1.829-.944 3.512-.721 5.04.647.757.678 1.483 1.392 2.238 2.074.307.278.217.581.075.854-.194.373-.438.723-.688 1.064-.901 1.228-1.574 2.546-1.806 4.076-.21 1.391-.334 2.809-1.013 4.087-.004.008.031.036.062.071.188-.22.37-.433.64-.749m41.06-15.353c.099-.012.145-.025.191-.022.188.012.376.02.562.045 1.575.209 3.13.216 4.713-.08 1.282-.24 2.616-.361 3.917-.304 1.863.081 3.374.984 3.719 3.074.139.844.118 1.716.156 2.575.004.115-.056.245-.118.35-.806 1.362-1.936 2.291-3.526 2.573-.382.068-.774.077-1.161.113.209.147.427.233.652.268.369.059.748.059 1.114.131.433.085.573.384.495.811-.137.754-.266 1.511-.392 2.267-.201 1.203-.488 2.323-1.749 2.927-.331.159-.702.533-.61 1.061.222-.139.405-.305.556-.496.707-.889 2.032-.801 2.606.185.126.216.235.443.339.671.963 2.119.741 4.057-.91 5.759-.211.218-.486.385-.756.532-.252.137-.468.085-.608-.218-.117-.254-.288-.485-.448-.717-1.177-1.697-2.714-3.03-4.332-4.281-.201-.156-.401-.426-.432-.666-.114-.867-.243-1.747-.205-2.615.07-1.624.267-3.243.384-4.866.08-1.105-.012-2.203-.463-3.227-.797-1.808-1.998-3.212-4.02-3.767.108-.701.214-1.379.324-2.083m-33.8 39.24c.583.36 1 .149 1.395.004.895-.329 1.297.075 1.72.908.126.248.022.475-.274.598-.683.284-1.384.346-2.114.278-1.53-.144-2.724-.95-3.868-1.886-.239-.196-.557-.323-.859-.409-1.219-.348-2.49-.556-3.661-1.02-2.329-.923-4.597-1.997-6.903-2.979-2.194-.935-4.107-2.27-5.8-3.935-1.609-1.582-2.216-3.517-1.995-5.733.017-.167.173-.321.264-.481.122.159.332.307.352.478.266 2.242 1.558 3.775 3.376 4.953 1.708 1.107 3.416 2.215 5.13 3.313.374.239.778.43 1.161.656.267.157.567.292.774.512.407.432.74.934 1.142 1.372.259.282.587.501.884.749.029-.034.057-.069.086-.103-.254-.477-.775-.825-.752-1.487.378.108.715.234 1.063.297 1.26.23 2.526.431 3.787.66.693.126 1.375.321 2.071.424 1.022.151 2.055.286 3.061-.106.999-.389 1.155-.341 1.696.596.093.161.164.339.216.518.271.931 0 1.344-.963 1.501-.301.047-.587.187-.989.322m17.15-10.117c.172.195.317.38.484.543 1.324 1.293 2.875 2.178 4.711 2.472 1.178.189 2.383.417 3.466-.406.158-.12.456-.132.668-.089.332.066.641.246.971.332.446.117.904.192 1.357.283.128.026.35.013.369.07.042.128.023.312-.044.432-.079.141-.218.269-.361.349-.833.466-1.656.958-2.519 1.364-1.801.847-3.681 1.302-5.644.658-1.143-.375-2.25-.869-3.353-1.355-.752-.332-1.418-.815-1.889-1.507-.121-.177-.221-.445-.182-.641.224-1.136.938-1.907 1.966-2.505m-5.6-42.4c.494-1.392 1.292-2.57 2.224-3.655 1.845-2.148 3.68-4.294 4.374-7.15.042-.172.349-.374.552-.397.989-.114 1.972-.042 2.936.237.36.104.471.291.265.618-.476.755-.886 1.563-1.448 2.247-1.353 1.647-2.776 3.236-4.177 4.842-.099.113-.242.194-.377.27-1.244.699-2.379 1.516-3.142 2.766-.21.343-.762.437-1.207.222m11.02 50.31c-.073-.774-.012-.92.516-.995 2.07-.293 3.941-1.117 5.736-2.142.18-.103.342-.273.458-.448.348-.528.812-.893 1.44-.955 1.13-.111 2.264-.172 3.411-.255.095.483-.029.987-.383 1.355-.572.595-1.17 1.185-1.84 1.661-1.456 1.035-3.145 1.606-4.788 2.27-.908.367-1.759.319-2.653.023-.608-.2-1.234-.336-1.897-.514m17.18-46.2c-2.766-1.107-5.726-.859-8.596-1.259.208.104.421.199.644.236 1.591.262 3.18.546 4.778.756 1.976.26 3.739 1.02 5.361 2.141.247.171.428.438.64.661-1.433-.865-2.946-1.44-4.45-2.032-.025.052-.049.105-.074.157.558.268 1.115.535 1.673.803-.088.035-.161.025-.228 0-1.069-.406-2.126-.849-3.314-.725-.276.029-.561-.029-.842-.048-3.575-.241-6.849-1.4-9.95-3.159-1.192-.677-2.216-1.602-3.505-2.145-1.041-.438-2.077-.825-3.194-.881-1.606-.08-3.174.076-4.444 1.246-.108.1-.242.171-.445.311.118-.753.515-1.142 1.105-1.316.66-.195 1.359-.271 2-.505.908-.33 1.822-.329 2.736-.176 2.191.366 4 1.564 5.836 2.719 1 .633 1.993 1.31 3.064 1.808 1.85.86 3.862 1.162 5.868 1.442.743.103 1.488.19 2.233.285.008-.048.015-.096.023-.145-1.226-.235-2.458-.447-3.678-.714-.813-.178-1.765-.021-2.333-.88-.042-.063-.198-.055-.303-.071-.832-.129-1.632-.35-2.46-.826.803.134 1.492.28 2.188.36 2.037.234 4.081.406 6.114.672 1.26.166 2.469.559 3.55 1.286m-51.845 45.942c1.216.612 2.362 1.19 3.51 1.768.685.344 1.382.667 2.05 1.039.377.21.606.564.663 1.099-.445-.037-.867.004-1.237-.114-2.269-.729-4.521-1.525-6.591-2.717-1.366-.787-2.646-1.727-3.934-2.642-.466-.331-.815-.802-.77-1.505.224.134.395.241.57.34.872.493 1.697 1.13 2.63 1.44 1.184.393 2.085.991 2.693 2.083.152.273.505.434.765.646.027-.035.054-.071.082-.106-.187-.404-.602-.731-.431-1.331m-17.633-25.665c.652.269 1.226.587 1.84.738.753.185 1.077.614 1.114 1.344.034.674.373 1.192.91 1.567.395.275.834.488 1.242.745.114.072.259.2.269.314.034.369.013.743.013 1.114-1.67.411-3.091-.226-4.145-1.247-1.205-1.166-1.595-2.796-1.243-4.575m-1.327-4.795c.112-.305.289-.864.531-1.394.057-.125.333-.225.499-.213.526.038.882.478.903.999.012.295.039.595.107.881.36 1.506 1.252 2.642 2.519 3.489.421.282.157.569.081.857-.088.332-.308.324-.584.213-.391-.158-.806-.259-1.188-.433-2.157-.978-2.693-2.062-2.868-4.399m67.926 25.867c.627-.545 1.221-1.029 1.777-1.552 1.175-1.105 2.352-2.205 3.043-3.717.184-.401.501-.755.808-1.083.358-.383.836-.483 1.484-.426-.459.918-.841 1.771-1.3 2.581-1.034 1.827-2.428 3.291-4.378 4.166-.466.208-.922.259-1.434.031m-63.2-7.924c-.046.03-.092.061-.138.091-.249-.252-.571-.464-.735-.763-.729-1.326-1.199-2.754-1.45-4.244-.137-.811-.08-1.616.287-2.28.671.234 1.292.45 1.934.673-.327.728-.417 1.474-.064 2.266.138.31.132.707.112 1.061-.061 1.066-.38 2.13.054 3.196m75.15-5.662c-.087.313-.123.561-.222.781-.372.83-.779 1.644-1.146 2.476-.484 1.097-1.301 1.874-2.332 2.43-.7.377-1.453.592-2.319.481.137-.205.346-.321.507-.486.993-1.021 2.107-1.933 2.8-3.22.259-.481.572-.938.898-1.378.424-.571.975-.968 1.814-1.084m-45.04 23.14c.074.615-.186.962-.762 1.014-.343.031-.689.027-1.033.033-1.667.029-3.325-.017-4.89-.691-1.132-.487-1.966-1.286-2.539-2.496.25.089.412.136.564.203 1.147.503 2.279 1.042 3.441 1.509 1.306.525 2.638.88 4.07.443.352-.107.767-.015 1.149-.015m25.59-59.799c-1.756-.387-6.229.173-6.968.829.519 0 1 0 1.481-.003.501-.014 1-.077 1.501-.069.457.007.913.08 1.37.124-2.716.33-5.463.307-8.04 1.374-.304.126-.67.105-1.064.16.197-.557.585-.635.969-.735.436-.115.878-.223 1.296-.387.816-.32 1.594-.755 2.428-1.01 3.553-1.066 7.123-.937 10.667.048 1.122.312 2.202.776 3.3 1.171-.02.055-.04.11-.06.166-.936-.355-1.872-.71-2.808-1.065-.011.026-.023.053-.034.079.085.059.17.118.255.176-2-.501-4.03-.812-6.099-.759.603-.034 1.205-.069 1.807-.103m4.903 10.198c0 .011 0 .022-.002.033-.275-.025-.55-.047-.825-.076-2.496-.261-4.963-.699-7.255-1.747-1.232-.563-2.347-1.378-3.532-2.051-1.06-.602-2.103-1.264-3.229-1.71-.812-.321-1.747-.331-2.528-.462.006-.002.134-.051.267-.074 1.789-.312 3.428.086 4.919 1.092 2.797 1.888 5.736 3.482 9.03 4.335 1.041.27 2.106.443 3.16.66m-4.302 45.548c-.029-.082-.059-.164-.088-.246.168-.112.33-.235.505-.334.735-.418 1.491-.802 2.209-1.248 1.093-.678 2.054-1.506 2.624-2.693.182-.38.448-.454.801-.368.383.093.651.355.545.746-.119.439-.268.934-.568 1.247-1.054 1.097-2.3 1.948-3.765 2.404-.735.228-1.508.332-2.263.492m-55.47-14.952c.492.569 1.012.98 1.717 1.146.193.046.385.368.453.599.085.289.07.618.048.927-.052.722-.137 1.436.283 2.1.086.136.047.352.07.576-2.032-.739-3.266-3.938-2.571-5.348m37.523 19.959c3.152-.482 6.2-1.077 9.337-1.107-.381 1.208-7.357 2.037-9.337 1.107m-43.34-33.28c.503.445.734.886.683 1.497-.042.509.018 1.031.072 1.543.12 1.145.364 2.262.999 3.244.244.377.448.721.232 1.172-.056.117-.101.24-.151.36-.124-.075-.284-.121-.368-.228-1.769-2.26-2.125-4.795-1.467-7.588m43.4 34.08c-.144.048-.241.103-.341.11-1.184.084-2.37.245-3.551.214-1.022-.028-2.04-.263-3.055-.435-.384-.065-.478-.353-.389-.834.077-.419.333-.307.598-.252.946.198 1.887.458 2.844.557.753.078 1.527-.066 2.292-.074.613-.006 1.154.201 1.602.714m24.23-58.41c-.578-.13-1.156-.258-1.734-.391-2.093-.482-4.19-.94-6.351-.961-1.873-.018-3.707.321-5.54.663-.74.138-1.494.206-2.242.306-.024-.068-.048-.135-.072-.203.117-.084.222-.2.353-.246 1.851-.656 3.794-.921 5.723-.911 1.978 0 3.959.326 5.93.573 1.369.17 2.701.525 3.933 1.17m12.685 32.45c.149-.344.304-.607.378-.89.312-1.196.586-2.401.902-3.595.131-.495.315-.986.9-1.164.319.289.335.658.25 1.01-.27 1.108-.566 2.209-.872 3.307-.062.22-.194.43-.33.618-.286.391-.668.639-1.228.716m-68.17 16.08c-1.032.09-5.263-4.158-5.647-5.573.599.512 1.177.981 1.726 1.481 1.214 1.105 2.423 2.216 3.61 3.35.17.163.203.47.311.742m42.661 7.142c.288-.352.469-.653.723-.869 1.187-1.01 2.649-1.452 4.102-1.89.314-.095.684-.07.935.354-1.824.945-3.507 2.142-5.76 2.405m2.034-54.52c-.003-.048-.006-.096 0-.144.193-.104.379-.28.58-.3.638-.064 1.281-.081 1.923-.096 2.144-.051 4.244.294 6.341.69.575.109 1.162.15 1.743.223.011-.051.023-.102.034-.153-.366-.131-.732-.262-1.098-.393.02-.053.04-.105.059-.158.803.3 1.605.599 2.408.899-.011.037-.023.074-.034.111-.247-.056-.495-.112-.742-.168 1.228.545 2.516.945 3.625 1.957-.161-.046-.207-.049-.239-.07-1.575-1.028-3.31-1.662-5.159-1.92-1.75-.245-3.513-.41-5.276-.535-.913-.065-1.837.038-2.756.057-.466.008-.933 0-1.399 0m-2.839-1.091c0-.03 0-.06 0-.091.059-.013.118-.026.177-.039 1.914-.418 3.846-.117 5.762-.068 1.736.044 3.465.399 5.197.617-.003.008-.007.016 0 .024-3.71-.147-7.419-.295-11.127-.443m14.602.959c-3.544-1.265-7.308-1.068-10.947-1.69 3.748-.082 7.443.178 10.947 1.69m-11.564 5.05c-.187-.061-.379-.108-.559-.185-1.647-.702-3.229-1.502-4.619-2.671-.663-.557-1.477-.934-2.227-1.386-.091-.055-.208-.068-.311-.105-.098-.035-.193-.076-.29-.115.095-.049.173-.049.251-.041 1.437.151 2.581.91 3.68 1.766 1.29 1.01 2.499 2.137 4.075 2.737m1.202-4.312c2.657-.296 5.298-.237 7.92.315-2.635-.239-5.301.295-7.92-.315m5.377-5.354c-2.02-.233-4.156-.479-6.293-.725 2.225-.373 4.36-.08 6.293.725m10.407 10.486c-2.149-1.372-4.372-2.242-6.837-2.871 1.495-.059 6.364 1.96 6.837 2.871m-1.655 1.721c-2.181-1.171-4.559-1.606-6.958-1.971 2.447.2 4.921.299 6.958 1.971m-8.712-10.25c1.885.343 3.9.896 5.764 1.993-2-.694-3.979-1.376-5.764-1.993m-.539 9.199c-1.355.13-3.519-.31-4.413-.929 1.496.315 3.049.642 4.413.929m4.412-.009c1.196-.105 2.294.201 3.329.765-1.11-.255-2.22-.51-3.329-.765m2.318-4.349c.022-.039.043-.078.065-.116.959.539 1.918 1.079 2.878 1.618-.026.047-.053.094-.079.141-.955-.548-1.909-1.095-2.864-1.643m-.535-.376c-.014.031-.028.063-.041.094-.598-.193-1.196-.385-1.794-.578.011-.035.023-.069.034-.104.6.196 1.2.392 1.801.588"/><path fill="#fff" d="m22.422.303c.48-.506 1.071-.542 1.671-.497.611.046 1.101-.184 1.515-.598.08-.08.081-.239.155-.484-1.225.801-2.552.603-3.757.928-.876.236-1.493-.268-2.178-.577-2.392-1.081-4.741-2.248-7.292-2.954-2.359-.653-4.734-.608-7.132-.445-1 .068-2 .122-2.932-.42-.308-.182-.452-.408-.348-.722.19-.576.427-1.136.65-1.7.091-.23.199-.454.228-.749-.148.134-.331.246-.439.408-.546.82-1.111 1.632-1.596 2.487-.47.829-1.052 1.18-1.994 1.106-.932-.073-1.78-.407-2.561-.871-3-1.786-5.997-3.597-8.977-5.424-.889-.545-1.854-.994-2.527-1.849-.846-1.075-1.167-2.283-.908-3.613.073-.376.308-.77.578-1.048.809-.833 1.764-1.372 2.994-1.327.988.036 1.978.013 2.922.367.262.099.507.244.762.369.009-.016.038-.045.033-.062-.245-.728-.201-.859.484-1.219.836-.44 1.746-.465 2.661-.436.281.009.56.055.84.072.328.019.47.185.471.512.003.907-.065 1.816.319 2.688.114.26-.106.408-.405.397-1.049-.037-2.099-.061-3.149-.088-.155-.004-.31 0-.473.055 1.48.301 3.089.012 4.459.988-.274.37-.534.72-.794 1.07.031.033.063.066.094.099.399-.221.811-.421 1.196-.665 1.196-.759 2.479-.7 3.813-.518 3.307.45 6.469 1.343 9.434 2.893.066.035.128.078.339.208-.329.155-.547.306-.788.363-.742.175-1.431.433-1.967 1.035 3.827-1.047 7.71-1.109 11.627-.759-1.129-.612-2.346-.911-3.68-.963.8-.952 1.543-1.839 2.287-2.725-.04-.037-.08-.075-.119-.112-1 .764-2.031 1.495-2.999 2.3-.94.781-1.944.809-2.995.378-.65-.266-1.246-.662-1.889-.948-2.127-.946-4.345-1.612-6.633-2.032-1.872-.343-3.758-.499-5.66-.299-.262.028-.446-.045-.578-.286-.158-.287-.355-.553-.517-.839-.241-.425-.331-.876-.174-1.356.029-.089.064-.182.065-.274.018-1.372.986-1.886 2.072-2.27.481-.17.988-.268 1.559-.419-1.295.015-2.483.244-3.585.742-.9.407-1.544.225-2.145-.501-.271-.328-.629-.585-.947-.874-.05.038-.101.077-.151.115.095.174.181.354.286.522.182.29.138.506-.19.633-.277.107-.562.196-.84.301-.713.268-1.409.593-2.141.793-.593.162-1.225.216-1.843.244-.669.031-1.348-.092-2.01-.028-1.98.191-3.549 1.83-3.674 3.833-.032.512-.198.735-.696.848-.769.173-.968.36-1.091.923.163-.097.349-.17.487-.295.444-.403.978-.448 1.3.037 1.747 2.631 4.519 3.903 7.111 5.403 1.888 1.093 3.82 2.128 5.409 3.641.855.814 1.864 1.572 2.087 2.864.088.505.147 1.015.231 1.612.117-.181.228-.314.298-.466.242-.523.295-.525.771-.178.374.273.78.503 1.178.74.067.04.169.02.267.028-.505-.425-1.027-.793-1.458-1.248-.469-.495-.877-1.054-1.256-1.622-.114-.17-.087-.474-.036-.696.022-.098.278-.226.406-.204 2.02.341 4.03.053 6.04-.103.934-.072 1.876-.088 2.812-.057.899.029 1.496.66 1.956 1.32.625.895 1.109 1.888 1.678 2.824.216.355.497.671.748 1 .055-.031.109-.061.164-.092-.499-1.019-.969-2.053-1.509-3.049-.287-.533-.703-.996-1.046-1.5-.058-.084-.091-.269-.042-.323.077-.086.233-.141.357-.142 1.687-.019 3.34.199 4.954.71 1.873.593 3.652 1.398 5.382 2.321.759.405 1.544.766 2.282 1.207.272.163.505.469.638.763.185.409.251.871.387 1.304.034.11.141.197.214.295.065-.11.173-.214.188-.33.122-.922-.178-1.729-.733-2.494"/><path fill="#fff" d="m24.889 9.797c1.886 2.287 2.638 4.889 2.72 7.722.049.008.098.017.147.025.098-.484.286-.969.279-1.451-.026-1.908-.361-3.741-1.577-5.3-.379-.487-.8-.918-1.569-.996"/><path fill="#fff" d="m9.01 7.397c-.215.531-.379 1-.594 1.451-.216.449-.446.9-.736 1.303-.28.39-.618.749-.977 1.069-.346.308-.751.549-1.13.82.036.061.071.122.107.182.308-.121.661-.183.915-.375.67-.507 1.299-1.069 1.94-1.614.369-.314.707-.671 1.103-.944.393-.272.841-.464 1.292-.814-.21-.016-.436-.089-.629-.037-1.058.284-1.054.294-1.204-.803-.008-.058-.041-.113-.087-.238"/><path fill="#fff" d="m-23.674-2.266c.911-.36 1.822-.288 2.746-.052.708.181 1.424.378 2.148.444.744.067 1.481-.08 2.076-.597-.005-.046-.001-.092-.015-.138-.291.02-.584.072-.872.053-.357-.024-.752-.026-1.054-.184-.357-.186-.316-.453-.021-.742.204-.201.38-.429.569-.646-.037-.05-.074-.101-.11-.151-.193.094-.435.143-.569.29-.543.593-1.246.729-1.992.791-.606.051-1.224.058-1.809.198-.416.099-.787.386-1.179.589.028.048.055.097.082.145m2.529-.329c-.004-.024-.009-.047-.013-.071.363-.083.726-.165 1.089-.251.459-.108.607.023.576.488-.551-.056-1.102-.111-1.652-.166"/><path fill="#fff" d="m28.499-6.916c.536 1.317 1.821 2.229 1.926 3.779.064-.023.128-.045.191-.068.057-.251.103-.504.172-.751.108-.384.309-.614.773-.567 1.209.123 2.216-.345 3.08-1.215-.588.109-1.177.217-1.765.327-1.29.241-2.455.035-3.432-.915-.255-.248-.549-.455-.825-.68-.039.03-.08.06-.12.09"/></symbol><use width="84.88" x="-42.44" y="-35" height="70" xlink:href="#0" transform="matrix(.4679 0 0-.4679 19.855 16.375)"/></svg>