<svg xmlns="http://www.w3.org/2000/svg" viewBox="0 0 129.99999 366.00005" enable-background="new 0 0 160.771 452.846"><path opacity=".8" fill="#fff" d="m66.986 198.53c-1.159 0-2.377 0-3.729 0-.383 1.666-.763 3.378-1.174 5.084-.346 1.435-.751 2.857-1.087 4.294-.192.82-.289 1.662-.446 2.491-.122.647-.248 1.296-.412 1.934-.358 1.401-.767 2.788-1.103 4.194-.198.828-.256 1.689-.445 2.521-.326 1.439-.706 2.864-1.059 4.297-.158.64-.328 1.278-.454 1.924-.283 1.455-.513 2.921-.818 4.372-.341 1.62-.757 3.226-1.109 4.845-.181.833-.304 1.68-.433 2.524-.269 1.757-.472 3.526-.8 5.273-.306 1.634-.764 3.24-1.105 4.869-.193.923-.239 1.877-.435 2.8-.318 1.497-.708 2.978-1.062 4.467-.153.643-.304 1.287-.441 1.933-.279 1.319-.497 2.653-.834 3.956-.31 1.202-.724 2.378-1.126 3.554-.641 1.877-1.247 3.772-1.983 5.613-1.219 3.051-2.604 6.04-3.77 9.109-.587 1.545-.836 3.218-1.257 4.828-.334 1.278-.78 2.532-1.024 3.826-.207 1.098-.215 2.237-.275 3.361-.097 1.805-.146 3.613-.249 5.418-.111 1.949-.118 3.918-.433 5.835-.319 1.938-.974 3.819-1.454 5.732-.306 1.218-.532 2.455-.844 3.671-.335 1.302-.771 2.579-1.087 3.886-.326 1.349-.542 2.724-.841 4.08-.196.886-.459 1.757-.682 2.637-.169.671-.351 1.341-.474 2.02-.281 1.548-.51 3.104-.793 4.651-.358 1.958-.747 3.91-1.124 5.865-.007.031-.016.063-.019.095-.135 1.564-.236 3.133-.413 4.692-.223 1.961.579 3.661 1.228 5.419.332.899.627 1.851.705 2.798.193 2.349-.158 4.66-.693 6.956-.171.734-.057 1.544-.016 2.316.095 1.767.453 3.555.275 5.29-.175 1.709-.678 3.105-2.917 3.803-1.72.536-2.989.103-4.266-.938-.212-.172-.716-.213-.96-.081-1.323.713-2.528.552-3.736-.266-.213-.144-.581-.057-.877-.076-.797-.051-1.594-.099-2.39-.159-.087-.006-.178-.146-.248-.131-1.388.288-2.556-.512-3.834-.748-.894-.165-1.713-.581-1.954-1.355-.233-.752-.377-1.689.35-2.45 1.435-1.5 3.051-2.761 4.841-3.799 1.166-.676 1.802-1.634 1.689-2.998-.079-.949-.338-1.894-.322-2.837.019-1.038.214-2.081.42-3.105.159-.792.49-1.549.679-2.337.779-3.24.344-6.535.336-9.803-.003-1.415-.457-2.826-.667-4.246-.176-1.19-.261-2.393-.448-3.581-.181-1.152-.445-2.29-.665-3.436-.166-.868-.352-1.734-.465-2.609-.167-1.292-.259-2.594-.419-3.888-.196-1.577-.429-3.149-.648-4.723-.023-.159-.087-.315-.092-.474-.142-4.673-.409-9.348-.356-14.02.023-2.066.726-4.12 1.07-6.187.579-3.481 1.831-6.754 3.164-9.986 1.029-2.492 2.322-4.873 3.453-7.323.666-1.443 1.303-2.896 1.194-4.57-.084-1.288.016-2.586-.024-3.878-.064-2.029.479-3.926 1.102-5.827.607-1.849.977-3.782 1.666-5.596.835-2.202.824-4.457.704-6.712-.116-2.169-.471-4.326-.721-6.488-.007-.064-.019-.129-.023-.192-.129-2.311-.197-4.628-.395-6.933-.765-8.835-.311-17.687-.337-26.53-.001-3.265.476-6.535.796-9.796.171-1.74.42-3.476.73-5.197.313-1.734.778-3.44 1.114-5.169.205-1.055.245-2.143.449-3.199.3-1.552.672-3.09 1.028-4.63.285-1.234.6-2.461.885-3.695.383-1.661.779-3.32 1.113-4.992.204-1.021.285-2.066.446-3.095.226-1.443.477-2.881.712-4.322.036-.221.027-.449.059-.671.23-1.571.467-3.142.702-4.712.019-.127.063-.251.07-.378.127-2.38.129-4.774.4-7.137.501-4.374.416-8.756.343-13.14-.028-1.636-.45-3.265-.699-4.896-.134-.875-.257-1.751-.435-2.618-.346-1.688-.734-3.368-1.09-5.05-.17-.803-.277-1.621-.465-2.419-.191-.814-.449-1.612-.671-2.418-.158-.572-.327-1.143-.452-1.722-.284-1.309-.498-2.636-.834-3.932-.149-.574-.523-1.09-.87-1.781-1.164 2.87-2.287 5.46-3.264 8.103-.663 1.793-1.097 3.669-1.678 5.494-.81 2.547-.939 5.182-1.191 7.815-.205 2.135-.763 4.235-1.114 6.358-.187 1.13-.229 2.283-.405 3.416-.171 1.093-.427 2.173-.65 3.257-.165.802-.336 1.603-.508 2.403-.39 1.814-.678 3.658-1.202 5.433-.613 2.076-1.42 4.095-2.165 6.13-.67 1.831-1.323 3.67-2.068 5.471-1.062 2.566-2.244 5.082-3.288 7.655-.554 1.367-1.012 2.787-1.356 4.221-.546 2.278.058 4.527.294 6.794.197 1.884 1.046 3.517 1.553 5.278.086.302.081.636.082.956.006 2.748-.04 5.497.017 8.243.036 1.697.223 3.391.345 5.087.007.095.005.251.055.275 1.329.621.919 2.518 2.528 3.104-.69.538-1.26.932-1.759 1.401-.166.155-.293.627-.194.742.461.533.07.841-.291.97-2.059.736-4.174 1.578-6.307.394-1.446-.803-2.873-1.718-4.092-2.821-.786-.712-1.223-1.834-1.737-2.813-.765-1.456-1.4-2.983-2.203-4.416-.744-1.326-.019-2.475.236-3.69.044-.213.161-.412.201-.626.383-2.048.804-4.09 1.118-6.15.222-1.453.412-2.928.42-4.394.042-7.274-.018-14.548.037-21.822.022-2.868.196-5.739.396-8.603.172-2.454.412-4.908.749-7.344.289-2.094.776-4.161 1.137-6.246.174-1 .213-2.034.401-3.036.184-.983.485-1.944.725-2.917.159-.644.279-1.299.454-1.938.354-1.296.766-2.576 1.094-3.877.314-1.247.523-2.521.836-3.768.327-1.301.728-2.583 1.087-3.876.296-1.064.572-2.135.867-3.199.355-1.285.741-2.562 1.071-3.854.201-.789.319-1.6.482-2.399.137-.672.258-1.347.431-2.01.206-.79.518-1.554.682-2.35.314-1.51.524-3.041.836-4.552.338-1.637.779-3.252 1.105-4.891.21-1.053.276-2.135.441-3.198.199-1.283.433-2.56.655-3.839.022-.126.08-.248.087-.373.142-2.308.234-4.619.431-6.922.188-2.197.478-4.385.734-6.575.111-.946.167-1.907.395-2.826.331-1.331.728-2.656 1.22-3.935.532-1.384 1.171-2.731 1.827-4.063 1.073-2.176 3.07-3.335 5.148-4.263 1.352-.604 2.883-.794 4.309-1.245 2.313-.733 4.577-1.469 6.635-2.927 3.01-2.132 6.323-3.83 9.41-5.861 1.814-1.193 3.536-2.572 5.102-4.072.687-.659.933-1.811 1.286-2.774.226-.617.315-1.291.404-1.948.185-1.363-.206-2.564-.932-3.737-.377-.609-.467-1.415-.608-2.148-.301-1.557-.551-3.122-.822-4.677-2.494-.64-3.432-1.765-3.869-4.345-.251-1.478-.659-2.933-1.05-4.385-.292-1.085.38-2.928 1.304-3.631.276-.21.504-.66.519-1.01.058-1.388.023-2.779.024-4.17.003-3.381 1.022-6.448 2.812-9.296 2.132-3.392 5.28-5.497 8.883-6.983.852-.351 1.857-.347 2.797-.46 1.015-.122 2.038-.28 3.055-.265 3.263.047 6.216 1.062 8.955 2.854 3.308 2.164 5.448 5.198 6.785 8.827.682 1.848 1.095 3.788.91 5.793-.122 1.33-.317 2.656-.398 3.988-.017.284.256.764.505.854 1.041.379 1.354 1.152 1.419 2.148.133 2.04-.351 3.953-1.132 5.813-.412.979-.739 2-1.241 2.931-.201.37-.739.675-1.177.773-.774.175-1.093.46-1.16 1.329-.128 1.638-.475 3.26-.737 4.886-.019.122-.057.271-.141.348-1.53 1.419-1.171 3.099-.695 4.808.243.875.228 1.904.703 2.615.845 1.264 1.841 2.504 3.02 3.455 1.776 1.439 3.741 2.653 5.662 3.906 2.253 1.469 4.518 2.927 6.83 4.298 1.646.977 3.323 1.951 5.094 2.655 1.523.605 3.244.701 4.799 1.245 2.686.941 5.03 2.384 6.694 4.84 1.456 2.146 2.448 4.453 2.986 6.954.351 1.634.565 3.303.748 4.966.192 1.751.255 3.515.407 5.27.241 2.778.433 5.564.794 8.327.239 1.827.749 3.618 1.118 5.43.159.777.272 1.563.398 2.347.268 1.684.475 3.38.809 5.05.302 1.51.774 2.985 1.109 4.489.322 1.443.522 2.913.856 4.352.298 1.284.721 2.537 1.061 3.812.429 1.606.814 3.224 1.244 4.829.336 1.25.745 2.482 1.062 3.736.324 1.285.553 2.594.868 3.881.255 1.041.593 2.061.865 3.098.246.938.464 1.884.674 2.83.157.706.272 1.422.423 2.13.229 1.077.491 2.148.704 3.229.165.839.305 1.684.405 2.534.169 1.423.282 2.854.447 4.278.218 1.871.463 3.739.695 5.608.02.16.04.32.045.481.131 5.03.278 10.06.382 15.09.047 2.294-.212 4.618.069 6.878.29 2.336-.192 4.612-.056 6.912.116 1.955.182 3.922.452 5.857.208 1.487.925 2.923 1 4.403.084 1.623.577 3.12.822 4.681.112.709-.09 1.561-.407 2.224-.978 2.044-1.923 4.135-3.192 5.995-.762 1.116-2.04 1.931-3.202 2.709-1.276.854-2.694 1.568-4.311 1.309-1.148-.184-2.296-.47-3.391-.859-.656-.233-.804-.799-.066-1.334-.741-.612-1.417-1.171-2.175-1.798.369-.299.662-.534.953-.774.117-.097.337-.237.319-.305-.255-.96.463-1.371 1.014-1.887.104-.098.176-.276.188-.422.122-1.598.291-3.195.327-4.794.054-2.426.106-4.86-.019-7.281-.082-1.597.552-2.951.969-4.398.409-1.423.708-2.877 1.019-4.326.167-.78.31-1.573.369-2.367.218-2.925-.857-5.532-2-8.138-1.32-3.01-2.569-6.05-3.802-9.1-.919-2.269-1.819-4.55-2.619-6.863-.522-1.506-.854-3.078-1.262-4.623-.376-1.419-.757-2.837-1.104-4.263-.179-.734-.309-1.482-.422-2.229-.162-1.064-.26-2.139-.435-3.201-.194-1.18-.443-2.351-.67-3.526-.018-.093-.074-.181-.082-.274-.135-1.363-.238-2.732-.403-4.091-.184-1.518-.426-3.03-.641-4.543-.04-.287-.063-.576-.113-.862-.249-1.424-.517-2.846-.755-4.272-.508-3.034-2.053-5.663-3.255-8.428-.585-1.347-1.067-2.738-1.613-4.157-.281.088-.606.189-.83.259-.43 1.692-.869 3.29-1.237 4.903-.329 1.443-.559 2.907-.873 4.353-.333 1.537-.719 3.063-1.071 4.596-.161.701-.314 1.406-.438 2.116-.162.936-.285 1.878-.433 2.817-.239 1.503-.487 3.01-.724 4.51-.035.221-.044.449-.044.675-.003 2.586-.096 5.178.027 7.757.107 2.237.459 4.463.702 6.694.003.032.011.064.014.096.141 1.848.242 3.702.436 5.545.193 1.839.481 3.668.728 5.501.017.128.036.255.046.384.125 1.661.191 3.328.395 4.98.119.962.468 1.893.694 2.843.168.707.311 1.421.451 2.135.397 2.02.67 4.066 1.212 6.04.531 1.937.953 3.863 1.158 5.868.166 1.624.706 3.206 1.01 4.821.339 1.806.665 3.621.875 5.446.318 2.764.333 5.578.844 8.301.504 2.683.234 5.339.322 8.01.114 3.485.18 6.973.184 10.459.002 3.132-.035 6.267-.196 9.394-.118 2.299-.464 4.587-.709 6.88-.003.032-.001.064-.013.096-.14 2.112-.279 4.225-.418 6.337-.129 1.958-.359 3.916-.348 5.873.006 1.074.391 2.153.657 3.218.249 1 .56 1.99.853 2.981.285.962.586 1.919.873 2.88.501 1.682 1.097 3.343 1.075 5.137-.016 1.307.076 2.62-.02 3.92-.18 2.428.831 4.484 1.812 6.585 1.266 2.711 2.474 5.449 3.632 8.207.708 1.688 1.353 3.411 1.883 5.161.405 1.338.537 2.757.876 4.118 1.176 4.725.701 9.535.7 14.31 0 2.126-.448 4.252-.69 6.378-.019.16-.002.324-.024.483-.254 1.856-.519 3.711-.766 5.569-.154 1.161-.244 2.331-.43 3.486-.186 1.155-.465 2.295-.686 3.444-.162.841-.328 1.684-.435 2.534-.167 1.326-.341 2.657-.412 3.99-.158 2.953-.314 5.91-.34 8.865-.009.984.386 1.971.593 2.957.175.832.383 1.661.506 2.501.16 1.091.326 2.19.344 3.289.013.782-.23 1.565-.331 2.35-.125.977.444 1.687 1.11 2.219 1.377 1.099 2.827 2.111 4.273 3.12 1.214.847 1.819 1.93 1.612 3.438-.108.782-.919 1.478-1.931 1.594-.311.036-.678.048-.91.22-.704.519-1.464.518-2.29.529-.831.001-1.739.569-2.472.369-1.344-.366-2.289.519-3.43.657-.64.078-1.422-.045-1.963-.372-.6-.362-.91-.129-1.253.202-2.263 2.181-6.481.634-6.817-2.13-.216-1.778-.216-3.44-.001-5.199.175-1.495-.019-3.064-.248-4.57-.51-3.349-.849-6.639.843-9.803 1.084-2.029.747-4.219.496-6.377-.04-.348-.167-.686-.209-1.034-.269-2.244-.424-4.507-.814-6.729-.374-2.126-1.015-4.204-1.484-6.315-.32-1.443-.499-2.918-.828-4.359-.298-1.302-.737-2.571-1.069-3.867-.312-1.218-.552-2.455-.848-3.678-.302-1.243-.651-2.475-.948-3.719-.35-1.468-.714-2.935-.985-4.419-.285-1.565-.484-3.148-.687-4.727-.082-.637-.08-1.286-.108-1.929-.125-2.893-.16-5.794-.412-8.676-.112-1.28-.661-2.522-1.01-3.782-.167-.601-.444-1.196-.475-1.803-.099-1.957-1.028-3.642-1.718-5.392-1.425-3.611-3.02-7.157-4.427-10.774-.576-1.476-.849-3.067-1.277-4.602-.361-1.296-.8-2.573-1.107-3.882-.331-1.408-.524-2.848-.822-4.264-.192-.915-.484-1.808-.698-2.719-.181-.769-.34-1.544-.464-2.325-.154-.964-.213-1.945-.402-2.902-.181-.921-.496-1.815-.712-2.729-.173-.731-.309-1.474-.42-2.218-.154-1.034-.241-2.079-.412-3.109-.176-1.058-.423-2.105-.635-3.157-.18-.895-.342-1.794-.533-2.686-.224-1.045-.487-2.081-.705-3.127-.173-.828-.28-1.67-.462-2.495-.201-.916-.459-1.819-.685-2.73-.159-.642-.323-1.283-.452-1.931-.402-2.01-.753-4.03-1.193-6.02-.309-1.403-.755-2.775-1.092-4.172-.2-.832-.279-1.692-.458-2.53-.182-.854-.421-1.697-.633-2.546-.175-.698-.376-1.392-.517-2.097-.328-1.62-.623-3.234-.94-4.907m53.845-.445c-.191 2.762-.374 5.415-.555 8.03 1.831-.84 3.222-5.314.555-8.03m-111.68-.046c-1.914 2.155-1.843 7.05.664 8.07-.216-2.62-.438-5.316-.664-8.07"/></svg>