<svg width="22.19" xmlns="http://www.w3.org/2000/svg" viewBox="0 0 22.187 32.75" xmlns:xlink="http://www.w3.org/1999/xlink" enable-background="new 0 0 22.187 32.75"><symbol viewBox="-23.711 -35 47.423 70" id="0"><path fill="#fff" d="m13.657 4.765c7.87-6.676 11.859-15.24 9.266-24.951-1.01-3.769-2.633-7.413-4.325-10.947-1.54-3.216-4.393-4.325-7.929-3.7-6.293 1.112-11.593 4.308-16.626 7.988-2.154 1.575-4.218 3.346-6.04 5.296-4.411 4.731-5.586 10.389-3.927 16.564 1.55 5.77 4.496 10.779 9.11 14.646 2.442 2.047 5.19 3.989 8.58 2.929 2.306-.721 4.534-1.952 6.53-3.338 2.573-1.786 2.658-4.88 3.171-7.646 1.313-7.07.112-13.808-2.827-20.296-.247-.545-.463-1.104-.525-1.71 4.863 7.606 7 15.847 5.538 25.16"/><path fill="#fff" d="m-19.653-9.779c-3.339 6.626-4.182 13.25-.482 20 .57 1.041.925 2.336.944 3.521.094 5.945.044 11.893.044 17.84 0 .566 0 1.132 0 1.791 2.454 0 4.747 0 7.223 0 .027-.543.077-1.096.078-1.65.006-5.105.029-10.21-.016-15.314 0-1.158.365-1.682 1.556-1.522 0 1.769-.064 3.539.016 5.304.103 2.275.98 4.259 2.387 6.06.438.562.693 1.398.724 2.122.093 2.15.033 4.307.033 6.583 1.372 0 2.654 0 4.163 0 0-1.587 0-3.183 0-5.16 2.999 1.134 1.09 3.614 2.099 5.177 1.138 0 2.421 0 3.918 0 0-1.118.058-2.209-.015-3.291-.082-1.203.421-1.622 1.768-1.395 0 1.535 0 3.081 0 4.706 1.453 0 2.699 0 4.226 0 0-1.903-.285-3.881.082-5.729.348-1.75 1.381-3.365 2.199-5.238-3.296 0-6.53 0-9.763 0-3.301 0-5.787-2.116-5.484-5.439.321-3.514-1.191-5.282-3.858-7.285-6.668-5.01-10.42-11.963-11.713-20.22-.045-.29-.086-.581-.129-.872"/><path fill="#fff" d="m-.883 14.44c-.432.833-.904 1.612-1.25 2.443-.687 1.648.103 5.318 2.767 5.355 6.203.086 12.408.02 18.612.007.195 0 .39-.093.656-.16 0-1.482 0-2.926 0-4.58-2.262 0-4.455 0-6.648 0-1.84 0-3.68.011-5.521 0-2.296-.014-3.02-.719-3.11-2.976-.012-.31-.029-.62-.044-.939-1.881.294-3.706.578-5.462.851"/><path fill="#fff" d="m18.438 3.818c-3.597 2.754-7.179 5.479-10.735 8.238-.439.341-.872.806-1.08 1.308-.699 1.689-.177 2.41 1.638 2.416.841.003 1.683.018 2.523-.002.775-.018 1.748.319 1.883-.983.012-.116.319-.22.503-.298 4.592-1.945 6.612-6.2 5.268-10.679"/><path fill="#fff" d="m-20.941 17.914c-.869 0-1.747 0-2.77 0 0 1.456 0 2.94 0 4.56.846 0 1.71 0 2.77 0 0-1.422 0-2.891 0-4.56"/></symbol><use width="47.42" x="-23.711" y="-35" height="70" xlink:href="#0" transform="matrix(.4679 0 0-.4679 11.09 16.375)"/></svg>