<svg xmlns="http://www.w3.org/2000/svg" viewBox="0 0 37.428 20.907" xmlns:xlink="http://www.w3.org/1999/xlink" enable-background="new 0 0 37.428 20.907"><symbol viewBox="-40 -22.343 80 44.686" id="0"><path fill="#fff" d="m-26.59-9.199c.11-.234.183-.496.335-.698 1.421-1.89 3.198-3.317 5.455-4.09.872-.299 1.759-.555 2.64-.828.069-.021.147-.019.221-.019.977-.003 1.031-.031.765-.959-.232-.808-.249-1.694-.884-2.372-.476-.509-.997-.765-1.705-.792-.961-.037-1.923-.147-2.875-.293-.852-.131-1.529-.651-2.161-1.202-.379-.33-.788-.486-1.285-.585-.979-.196-1.942-.485-2.897-.781-1.722-.533-3.472-.744-5.211-.227-.838.249-1.645.697-2.379 1.185-1.405.935-2.625 2.062-3.299 3.681-.212.51-.158.906.126 1.35.962 1.501 1.983 2.973 2.827 4.54.813 1.51 1.479 3.106 2.129 4.696 1.475 3.609 2.833 7.269 4.823 10.643 1.036 1.758 1.987 3.577 3.153 5.245 1.188 1.699 2.528 3.306 3.924 4.84 1.133 1.245 2.393 2.39 3.697 3.458 1.719 1.406 3.668 2.527 5.764 3.2 1.963.63 4.045.921 6.094 1.247 2.01.319 4.056.425 6.069.124 1.44-.215 2.854-.656 4.244-1.105.408-.132.784-.583 1.022-.979 1.01-1.679 1.781-3.466 2.29-5.365.259-.968.579-1.92.829-2.89.11-.427.109-.883.17-1.324.22-1.601.449-3.201.664-4.804.039-.293.018-.593.044-.889.049-.567.111-1.133.17-1.699.004-.036.033-.073.029-.107-.038-.334-.08-.667-.12-1-.259.204-.59.36-.763.621-.591.889-1.516 1.292-2.409 1.734-.36.178-.78.243-1.179.33-.214.047-.465.097-.657.028-.216-.078-.385-.288-.574-.441.182-.123.35-.32.547-.356 1.322-.242 2.578-.612 3.461-1.716.762-.952 1.418-1.995 1.628-3.199.114-.651-.085-1.36-.165-2.041-.147-1.24-.162-1.254-1.276-.67-.765.401-1.58.552-2.424.557-1.474.007-3.074-1.385-3.177-2.862-.1-1.435-1.847-3.343-3.436-2.961-.573.138-1.178.146-1.75.29-1.123.284-2.065-.125-2.471-1.21-.33-.883-.542-1.808-.858-2.696-.549-1.539-1.556-2.142-3.173-1.826-.995.194-1.951.593-2.945.795-.538.109-1.122.012-1.684-.016-.456-.023-.927-.182-1.361-.104-1.095.196-2.18.465-3.257.752-2.052.547-3.823 1.605-5.38 3.041-.358.331-.766.608-1.151.909-.071-.054-.142-.107-.214-.159"/><path fill="#fff" d="m40 10.06c0-2.181-1.664-3.93-3.699-4.485-.609-.166-1.233-.281-1.852-.408-.669-.138-.786-.048-.879.618-.117.846-.158 1.723-.736 2.42-.141.17-.398.243-.601.361 0-.25-.089-.548.016-.741.729-1.346.616-3.043-.328-4.224-1.269-1.588-2.907-2.726-4.719-3.558-1.595-.732-3.258-1.356-4.947-1.831-2.088-.587-4.229-.985-6.354-1.435-.561-.119-1.149-.105-1.718-.191-.957-.146-1.465.401-1.883 1.139-.61 1.077-.7 2.223-.668 3.444.043 1.633.734 2.972 1.587 4.269.294.447.691.826 1.015 1.254.09.119.09.307.131.463-.149-.036-.335-.029-.441-.117-.429-.355-.82-.756-1.253-1.106-.216-.175-.492-.276-.74-.41-.072.249-.151.496-.213.747-.031.125-.006.265-.045.386-.602 1.855-.324 3.653.498 5.347.675 1.391 1.616 2.622 2.844 3.603.159.126.303.272.444.418.621.643 1.422.751 2.255.777 3.036.096 6.071.083 9.09-.264 1.744-.2 3.321-.895 4.78-1.868.727-.484 1.476-.934 2.216-1.398 1.117-.699 2.335-1.031 3.654-1.033.425 0 .856-.049 1.274-.13.796-.153 1.273-.948 1.271-2.047"/><path fill="#fff" d="m-20.338-20.301c1.224-.146 2.387.149 3.116 1.232.53.787 1 1.694 1.194 2.611.324 1.543 1.358 1.795 2.628 1.496.814-.192 1.626-.413 2.41-.701 1.532-.562 3.613.364 4.248 1.656.455.926.823 1.909 1.097 2.903.285 1.031.838 1.412 1.87 1 1.955-.777 3.454-.125 4.898 1.389.691.724 1.1 1.555 1.235 2.563.125.936 1.056 1.601 1.986 1.72 1.074.137 2.02-.252 2.984-.569.181-.06.412-.33.405-.496-.006-.154-.276-.389-.465-.431-1.174-.263-2.01-.988-2.727-1.895-.334-.422-.57-.84-.6-1.438-.064-1.283-.984-1.973-2.087-2.349-.781-.267-1.621-.436-2.445-.485-1.632-.097-2.532-1.086-3.239-2.389-.3-.552-.576-1.124-.935-1.636-.649-.926-1.565-1.467-2.688-1.634-.991-.148-1.981-.332-2.978-.414-1.677-.138-3.089-.885-4.407-1.835-2.024-1.457-4.223-1.945-6.651-1.345-.397.098-.793.206-1.174.353-.127.049-.202.232-.301.354.134.079.263.216.402.227.725.054 1.451.076 2.224.111"/><path fill="#fff" d="m9.416-.832c0 1.48.004 3.115 0 4.751-.013 3.935-.906 7.709-2.24 11.372-.58 1.593-1.478 3.071-2.218 4.607-.08.166-.07.375-.101.563.19 0 .401.052.568 0 1.324-.49 2.625-1.043 3.961-1.497 1.752-.596 3.527-1.123 5.294-1.672.435-.135.506-.345.191-.668-.103-.106-.224-.196-.343-.286-1.74-1.32-2.836-3.056-3.63-5.092-.857-2.196-.659-4.326-.134-6.503.039-.16.172-.303.187-.461.035-.368.139-.786.015-1.105-.862-2.206-.663-4.293.755-6.175.44-.584 1.196-.928 1.797-1.395 1.452-1.125 2.425-2.542 2.642-4.408.081-.698.2-1.398.19-2.096-.004-.274-.259-.617-.497-.8-.456-.35-.968-.147-1.134.412-.105.354-.164.727-.198 1.096-.211 2.316-1.185 4.233-3.02 5.675-.982.774-1.495 1.829-1.954 2.932-.076.183-.074.399-.135.76"/><path fill="#fff" d="m9.15-4.129c.012.167-.001.346.046.497.051.136.168.293.294.34.074.028.286-.118.326-.226.358-.964 1.17-1.536 1.899-2.152 1.376-1.163 1.852-2.72 2.112-4.399.076-.493.133-.989.233-1.477.077-.378-.035-.606-.401-.734-.838-.293-1.368.148-1.505 1.01-.289 1.819-.666 3.633-2.174 4.928-.112.097-.232.187-.359.261-.698.41-.74.532-.506 1.345.055.193.049.403.07.605-.011.002-.023.003-.035.004"/></symbol><use width="80" x="-40" y="-22.343" height="44.686" xlink:href="#0" transform="matrix(.4679 0 0-.4679 18.714 10.453)"/></svg>