<svg width="30.23" xmlns="http://www.w3.org/2000/svg" viewBox="0 0 30.232 32.75" xmlns:xlink="http://www.w3.org/1999/xlink" enable-background="new 0 0 30.232 32.75"><symbol viewBox="-32.309 -35 64.618 70" id="0"><path fill="#fff" d="m-2.921 3.175c.273.834.777 1.666.783 2.502.045 5.99-.009 11.98-.043 17.97 0 .241-.046.538-.188.714-2.481 3.077-2.141 6.915-3.03 10.594 1.414 0 2.651 0 3.396 0 .791-1.117 1.399-1.976 2.01-2.835.543.871 1.086 1.742 1.796 2.88.76 0 1.968 0 3.422 0-.754-3.627-.612-7.366-2.855-10.522-.215-.302-.318-.747-.323-1.127-.071-5.581-.162-11.163-.13-16.744.007-1.155.491-2.307.755-3.46.177.021.355.043.533.065.14 2.192.209 4.391.441 6.573.178 1.669.428 3.354.884 4.964 1.02 3.597 3.058 4.526 6.529 2.991 4.215-1.864 7.485-4.956 10.445-8.394 5.261-6.11 8.307-13.179 9.168-21.21.491-4.573 1.299-9.121 1.589-13.703.408-6.443-1.719-8.869-8.128-9.331-4.87-.351-9.727.172-14.403 1.687-4.198 1.361-6.284 3.957-6.369 8.395-.145 7.521-.04 15.05-.04 22.62 2.296-1.741 3.436-5.162 2.57-7.708-.46-1.354-1.09-2.657-1.465-4.03-.128-.47.288-1.087.455-1.637.455.366 1.062.647 1.324 1.12.279.503.148 1.218.357 1.781.138.373.551.881.855.89.325 0 .831-.431.966-.786.268-.703.464-1.484.46-2.231 0-1.786-.144-3.572-.248-5.357-.044-.763-.306-1.697.756-1.874 1.141-.19 1.199.821 1.163 1.553-.125 2.599-.34 5.194-.536 7.789-.045.602-.152 1.199-.231 1.798.117.07.234.141.352.211.624-.81 1.255-1.615 1.868-2.433.306-.409.5-.948.886-1.24.412-.311.991-.401 1.497-.588.012.57.264 1.312-.002 1.683-2.442 3.412-4.975 6.76-7.478 10.128-.703.945-1.417 1.882-2.078 2.855-.182.267-.368.812-.244.946.23.25.715.455 1.043.396 3.492-.626 6.884-1.625 9.822-3.658 1.858-1.286 2.59-3.366 2.97-5.54.07-.403.074-.817.143-1.22.138-.81-.045-2.033 1.243-1.847 1.26.181.824 1.382.731 2.158-.356 2.99-1.456 5.718-3.279 8.156.087.163.175.327.262.49 1.572-.543 3.139-1.101 4.72-1.618.491-.16 1.025-.292 1.527-.257.175.012.521.707.428.843-.296.432-.712.965-1.171 1.07-2.19.499-4.415.841-6.614 1.301-.86.18-1.685.524-2.526.793-.018.167-.036.333-.055.5.812.469 1.584 1.035 2.444 1.386 1.322.54 2.732.867 4.04 1.428.384.164.561.812.832 1.238-.49.201-1.093.692-1.449.552-1.419-.556-2.891-1.131-4.105-2.023-3.166-2.328-6.61-3.104-10.439-2.42-.501.09-1.02.078-1.706.126 0-1.302 0-2.589 0-3.821-1.21.537-2.28 1.369-3.368 1.394-1.099.024-2.217-.752-3.492-1.241 0 .358 0 .976 0 1.594 0 .656 0 1.313 0 2.08-1.446-.112-2.759-.203-4.069-.316-2.551-.221-4.824.468-6.967 1.867-1.534 1-3.19 1.826-4.832 2.648-.663.33-1.623.701-1.832-.434-.071-.384.653-1.129 1.17-1.364 1.343-.61 2.792-.983 4.161-1.543.718-.294 1.357-.782 2.031-1.183-.013-.204-.027-.408-.04-.612-1.45-.321-2.897-.663-4.352-.959-1.551-.315-3.131-.513-4.657-.917-.555-.147-1.029-.707-1.447-1.165-.08-.087.292-.839.436-.833.555.023 1.112.201 1.652.374 1.528.49 3.048 1.01 4.578 1.515-1.01-2.671-1.943-5.07-2.81-7.494-.201-.563-.311-1.233-.211-1.809.096-.551.519-1.044.799-1.563.366.454.908.855 1.06 1.372.316 1.071.324 2.232.638 3.303.73 2.493 2.278 4.338 4.743 5.275 2 .761 4.03 1.475 6.077 2.097.824.25 1.739.198 3.072.329-.54-.99-.782-1.584-1.151-2.085-2.945-3.997-5.914-7.976-8.875-11.962-.444-.598-1.223-1.253-.281-1.932.987-.711 1.416.225 1.889.891.783 1.103 1.587 2.192 2.382 3.287.148-.053.296-.105.443-.158-.147-.962-.351-1.92-.428-2.887-.178-2.24-.345-4.483-.406-6.728-.019-.706.042-1.752 1.171-1.586 1.047.154.832 1.055.784 1.843-.118 1.937-.174 3.878-.229 5.817 0 .35.016.758.184 1.046.336.574.783 1.084 1.184 1.621.349-.559.757-1.092 1.028-1.687.183-.403.045-.987.285-1.322.274-.383.809-.581 1.23-.859.195.496.651 1.063.539 1.475-.362 1.324-.864 2.624-1.442 3.873-.918 1.983-.494 3.784.549 5.54.52.875 1.078 1.727 1.62 2.592.155-.096.298-.142.298-.189.033-7.321.166-14.644.041-21.963-.09-5.274-2.314-7.933-7.481-9.274-4.882-1.267-9.851-1.818-14.903-1.208-4.178.504-6.602 2.712-6.489 6.917.134 4.988.81 9.97 1.412 14.935.554 4.572 1.364 9.1 3.454 13.293 3.236 6.494 7.62 11.998 13.761 15.961 1.225.791 2.626 1.384 4.02 1.819 2.117.658 3.675.012 4.457-2.082.723-1.937 1.135-4.02 1.421-6.081.308-2.217.309-4.476.445-6.716.138-.047.275-.093.413-.139"/></symbol><use width="64.62" x="-32.31" y="-35" height="70" xlink:href="#0" transform="matrix(.4679 0 0-.4679 15.12 16.375)"/></svg>